%TF.GenerationSoftware,KiCad,Pcbnew,8.0.4*%
%TF.CreationDate,2025-10-09T01:12:19-07:00*%
%TF.ProjectId,ARES_FC,41524553-5f46-4432-9e6b-696361645f70,rev?*%
%TF.SameCoordinates,Original*%
%TF.FileFunction,Drillmap*%
%TF.FilePolarity,Positive*%
%FSLAX45Y45*%
G04 Gerber Fmt 4.5, Leading zero omitted, Abs format (unit mm)*
G04 Created by KiCad (PCBNEW 8.0.4) date 2025-10-09 01:12:19*
%MOMM*%
%LPD*%
G01*
G04 APERTURE LIST*
%ADD10C,0.100000*%
%ADD11C,0.010000*%
%ADD12C,0.200000*%
%ADD13C,0.121000*%
%ADD14C,0.220000*%
G04 APERTURE END LIST*
D10*
X15986974Y-7092780D02*
G75*
G02*
X17853875Y-8972380I-991404J-2851650D01*
G01*
X15779339Y-7196295D02*
G75*
G02*
X15986974Y-7092784I190721J-122565D01*
G01*
X12138874Y-8972380D02*
X12138874Y-9950280D01*
X14226109Y-7196294D02*
X14316924Y-7384880D01*
X14213409Y-12704265D02*
G75*
G02*
X14005774Y-12807779I-190729J122575D01*
G01*
X14213409Y-12704265D02*
X14316924Y-12515680D01*
X15675824Y-12515680D02*
X14316924Y-12515680D01*
X15779339Y-7196295D02*
X15675824Y-7384880D01*
X14005774Y-12807780D02*
G75*
G02*
X12138874Y-10928180I991401J2851645D01*
G01*
X12138874Y-9950280D02*
X12138874Y-10928180D01*
X17853874Y-9950280D02*
X17853874Y-8972380D01*
X12138874Y-8972380D02*
G75*
G02*
X14018729Y-7093535I2843649J-965323D01*
G01*
X14316924Y-7384880D02*
X15675824Y-7384880D01*
X15974274Y-12807776D02*
G75*
G02*
X15766636Y-12704267I-16914J226086D01*
G01*
X17853874Y-10928180D02*
G75*
G02*
X15974020Y-12807025I-2843651J965324D01*
G01*
X14018474Y-7092784D02*
G75*
G02*
X14226110Y-7196294I16916J-226076D01*
G01*
X15766639Y-12704265D02*
X15675824Y-12515680D01*
X17853874Y-10928180D02*
X17853874Y-9950280D01*
D11*
X17234250Y-9492500D02*
X17344250Y-9492500D01*
X17234250Y-10357500D02*
X17344250Y-10357500D01*
X17344250Y-9552500D02*
X17234250Y-9552500D01*
X17344250Y-10417500D02*
X17234250Y-10417500D01*
X17666250Y-9492500D02*
X17746250Y-9492500D01*
X17666250Y-10357500D02*
X17746250Y-10357500D01*
X17746250Y-9552500D02*
X17666250Y-9552500D01*
X17746250Y-10417500D02*
X17666250Y-10417500D01*
X17204250Y-9522500D02*
G75*
G02*
X17234250Y-9492500I30000J0D01*
G01*
X17204250Y-10387500D02*
G75*
G02*
X17234250Y-10357500I30000J0D01*
G01*
X17234250Y-9552500D02*
G75*
G02*
X17204250Y-9522500I0J30000D01*
G01*
X17234250Y-10417500D02*
G75*
G02*
X17204250Y-10387500I0J30000D01*
G01*
X17344250Y-9492500D02*
G75*
G02*
X17374250Y-9522500I0J-30000D01*
G01*
X17344250Y-10357500D02*
G75*
G02*
X17374250Y-10387500I0J-30000D01*
G01*
X17374250Y-9522500D02*
G75*
G02*
X17344250Y-9552500I-30000J0D01*
G01*
X17374250Y-10387500D02*
G75*
G02*
X17344250Y-10417500I-30000J0D01*
G01*
X17636250Y-9522500D02*
G75*
G02*
X17666250Y-9492500I30000J0D01*
G01*
X17636250Y-10387500D02*
G75*
G02*
X17666250Y-10357500I30000J0D01*
G01*
X17666250Y-9552500D02*
G75*
G02*
X17636250Y-9522500I0J30000D01*
G01*
X17666250Y-10417500D02*
G75*
G02*
X17636250Y-10387500I0J30000D01*
G01*
X17746250Y-9492500D02*
G75*
G02*
X17776250Y-9522500I0J-30000D01*
G01*
X17746250Y-10357500D02*
G75*
G02*
X17776250Y-10387500I0J-30000D01*
G01*
X17776250Y-9522500D02*
G75*
G02*
X17746250Y-9552500I-30000J0D01*
G01*
X17776250Y-10387500D02*
G75*
G02*
X17746250Y-10417500I-30000J0D01*
G01*
D12*
D10*
X17308250Y-9636000D02*
X17368250Y-9696000D01*
X17368250Y-9636000D02*
X17308250Y-9696000D01*
X17308250Y-10214000D02*
X17368250Y-10274000D01*
X17368250Y-10214000D02*
X17308250Y-10274000D01*
D13*
X15215500Y-10895000D02*
G75*
G02*
X15094500Y-10895000I-60500J0D01*
G01*
X15094500Y-10895000D02*
G75*
G02*
X15215500Y-10895000I60500J0D01*
G01*
D14*
X13547774Y-8389880D02*
X13547774Y-8609880D01*
X13437774Y-8499880D02*
X13657774Y-8499880D01*
X13547774Y-11289880D02*
X13547774Y-11509880D01*
X13437774Y-11399880D02*
X13657774Y-11399880D01*
X16442774Y-8394880D02*
X16442774Y-8614880D01*
X16332774Y-8504880D02*
X16552774Y-8504880D01*
X16447774Y-11289880D02*
X16447774Y-11509880D01*
X16337774Y-11399880D02*
X16557774Y-11399880D01*
D12*
X12394651Y-13124894D02*
X12394651Y-12924894D01*
X12394651Y-12924894D02*
X12442270Y-12924894D01*
X12442270Y-12924894D02*
X12470841Y-12934418D01*
X12470841Y-12934418D02*
X12489889Y-12953466D01*
X12489889Y-12953466D02*
X12499413Y-12972513D01*
X12499413Y-12972513D02*
X12508936Y-13010608D01*
X12508936Y-13010608D02*
X12508936Y-13039180D01*
X12508936Y-13039180D02*
X12499413Y-13077275D01*
X12499413Y-13077275D02*
X12489889Y-13096323D01*
X12489889Y-13096323D02*
X12470841Y-13115370D01*
X12470841Y-13115370D02*
X12442270Y-13124894D01*
X12442270Y-13124894D02*
X12394651Y-13124894D01*
X12594651Y-13124894D02*
X12594651Y-12991561D01*
X12594651Y-13029656D02*
X12604175Y-13010608D01*
X12604175Y-13010608D02*
X12613698Y-13001085D01*
X12613698Y-13001085D02*
X12632746Y-12991561D01*
X12632746Y-12991561D02*
X12651794Y-12991561D01*
X12718460Y-13124894D02*
X12718460Y-12991561D01*
X12718460Y-12924894D02*
X12708936Y-12934418D01*
X12708936Y-12934418D02*
X12718460Y-12943942D01*
X12718460Y-12943942D02*
X12727984Y-12934418D01*
X12727984Y-12934418D02*
X12718460Y-12924894D01*
X12718460Y-12924894D02*
X12718460Y-12943942D01*
X12842270Y-13124894D02*
X12823222Y-13115370D01*
X12823222Y-13115370D02*
X12813698Y-13096323D01*
X12813698Y-13096323D02*
X12813698Y-12924894D01*
X12947032Y-13124894D02*
X12927984Y-13115370D01*
X12927984Y-13115370D02*
X12918460Y-13096323D01*
X12918460Y-13096323D02*
X12918460Y-12924894D01*
X13175603Y-13124894D02*
X13175603Y-12924894D01*
X13175603Y-12924894D02*
X13242270Y-13067751D01*
X13242270Y-13067751D02*
X13308936Y-12924894D01*
X13308936Y-12924894D02*
X13308936Y-13124894D01*
X13489889Y-13124894D02*
X13489889Y-13020132D01*
X13489889Y-13020132D02*
X13480365Y-13001085D01*
X13480365Y-13001085D02*
X13461317Y-12991561D01*
X13461317Y-12991561D02*
X13423222Y-12991561D01*
X13423222Y-12991561D02*
X13404175Y-13001085D01*
X13489889Y-13115370D02*
X13470841Y-13124894D01*
X13470841Y-13124894D02*
X13423222Y-13124894D01*
X13423222Y-13124894D02*
X13404175Y-13115370D01*
X13404175Y-13115370D02*
X13394651Y-13096323D01*
X13394651Y-13096323D02*
X13394651Y-13077275D01*
X13394651Y-13077275D02*
X13404175Y-13058227D01*
X13404175Y-13058227D02*
X13423222Y-13048704D01*
X13423222Y-13048704D02*
X13470841Y-13048704D01*
X13470841Y-13048704D02*
X13489889Y-13039180D01*
X13585127Y-12991561D02*
X13585127Y-13191561D01*
X13585127Y-13001085D02*
X13604175Y-12991561D01*
X13604175Y-12991561D02*
X13642270Y-12991561D01*
X13642270Y-12991561D02*
X13661317Y-13001085D01*
X13661317Y-13001085D02*
X13670841Y-13010608D01*
X13670841Y-13010608D02*
X13680365Y-13029656D01*
X13680365Y-13029656D02*
X13680365Y-13086799D01*
X13680365Y-13086799D02*
X13670841Y-13105846D01*
X13670841Y-13105846D02*
X13661317Y-13115370D01*
X13661317Y-13115370D02*
X13642270Y-13124894D01*
X13642270Y-13124894D02*
X13604175Y-13124894D01*
X13604175Y-13124894D02*
X13585127Y-13115370D01*
X13766079Y-13105846D02*
X13775603Y-13115370D01*
X13775603Y-13115370D02*
X13766079Y-13124894D01*
X13766079Y-13124894D02*
X13756556Y-13115370D01*
X13756556Y-13115370D02*
X13766079Y-13105846D01*
X13766079Y-13105846D02*
X13766079Y-13124894D01*
X13766079Y-13001085D02*
X13775603Y-13010608D01*
X13775603Y-13010608D02*
X13766079Y-13020132D01*
X13766079Y-13020132D02*
X13756556Y-13010608D01*
X13756556Y-13010608D02*
X13766079Y-13001085D01*
X13766079Y-13001085D02*
X13766079Y-13020132D01*
D10*
X12073874Y-13423410D02*
X12133874Y-13483410D01*
X12133874Y-13423410D02*
X12073874Y-13483410D01*
D12*
X12432746Y-13344894D02*
X12451794Y-13344894D01*
X12451794Y-13344894D02*
X12470841Y-13354418D01*
X12470841Y-13354418D02*
X12480365Y-13363942D01*
X12480365Y-13363942D02*
X12489889Y-13382989D01*
X12489889Y-13382989D02*
X12499413Y-13421085D01*
X12499413Y-13421085D02*
X12499413Y-13468704D01*
X12499413Y-13468704D02*
X12489889Y-13506799D01*
X12489889Y-13506799D02*
X12480365Y-13525846D01*
X12480365Y-13525846D02*
X12470841Y-13535370D01*
X12470841Y-13535370D02*
X12451794Y-13544894D01*
X12451794Y-13544894D02*
X12432746Y-13544894D01*
X12432746Y-13544894D02*
X12413698Y-13535370D01*
X12413698Y-13535370D02*
X12404175Y-13525846D01*
X12404175Y-13525846D02*
X12394651Y-13506799D01*
X12394651Y-13506799D02*
X12385127Y-13468704D01*
X12385127Y-13468704D02*
X12385127Y-13421085D01*
X12385127Y-13421085D02*
X12394651Y-13382989D01*
X12394651Y-13382989D02*
X12404175Y-13363942D01*
X12404175Y-13363942D02*
X12413698Y-13354418D01*
X12413698Y-13354418D02*
X12432746Y-13344894D01*
X12585127Y-13525846D02*
X12594651Y-13535370D01*
X12594651Y-13535370D02*
X12585127Y-13544894D01*
X12585127Y-13544894D02*
X12575603Y-13535370D01*
X12575603Y-13535370D02*
X12585127Y-13525846D01*
X12585127Y-13525846D02*
X12585127Y-13544894D01*
X12766079Y-13344894D02*
X12727984Y-13344894D01*
X12727984Y-13344894D02*
X12708936Y-13354418D01*
X12708936Y-13354418D02*
X12699413Y-13363942D01*
X12699413Y-13363942D02*
X12680365Y-13392513D01*
X12680365Y-13392513D02*
X12670841Y-13430608D01*
X12670841Y-13430608D02*
X12670841Y-13506799D01*
X12670841Y-13506799D02*
X12680365Y-13525846D01*
X12680365Y-13525846D02*
X12689889Y-13535370D01*
X12689889Y-13535370D02*
X12708936Y-13544894D01*
X12708936Y-13544894D02*
X12747032Y-13544894D01*
X12747032Y-13544894D02*
X12766079Y-13535370D01*
X12766079Y-13535370D02*
X12775603Y-13525846D01*
X12775603Y-13525846D02*
X12785127Y-13506799D01*
X12785127Y-13506799D02*
X12785127Y-13459180D01*
X12785127Y-13459180D02*
X12775603Y-13440132D01*
X12775603Y-13440132D02*
X12766079Y-13430608D01*
X12766079Y-13430608D02*
X12747032Y-13421085D01*
X12747032Y-13421085D02*
X12708936Y-13421085D01*
X12708936Y-13421085D02*
X12689889Y-13430608D01*
X12689889Y-13430608D02*
X12680365Y-13440132D01*
X12680365Y-13440132D02*
X12670841Y-13459180D01*
X12908936Y-13344894D02*
X12927984Y-13344894D01*
X12927984Y-13344894D02*
X12947032Y-13354418D01*
X12947032Y-13354418D02*
X12956556Y-13363942D01*
X12956556Y-13363942D02*
X12966079Y-13382989D01*
X12966079Y-13382989D02*
X12975603Y-13421085D01*
X12975603Y-13421085D02*
X12975603Y-13468704D01*
X12975603Y-13468704D02*
X12966079Y-13506799D01*
X12966079Y-13506799D02*
X12956556Y-13525846D01*
X12956556Y-13525846D02*
X12947032Y-13535370D01*
X12947032Y-13535370D02*
X12927984Y-13544894D01*
X12927984Y-13544894D02*
X12908936Y-13544894D01*
X12908936Y-13544894D02*
X12889889Y-13535370D01*
X12889889Y-13535370D02*
X12880365Y-13525846D01*
X12880365Y-13525846D02*
X12870841Y-13506799D01*
X12870841Y-13506799D02*
X12861317Y-13468704D01*
X12861317Y-13468704D02*
X12861317Y-13421085D01*
X12861317Y-13421085D02*
X12870841Y-13382989D01*
X12870841Y-13382989D02*
X12880365Y-13363942D01*
X12880365Y-13363942D02*
X12889889Y-13354418D01*
X12889889Y-13354418D02*
X12908936Y-13344894D01*
X13099413Y-13344894D02*
X13118460Y-13344894D01*
X13118460Y-13344894D02*
X13137508Y-13354418D01*
X13137508Y-13354418D02*
X13147032Y-13363942D01*
X13147032Y-13363942D02*
X13156556Y-13382989D01*
X13156556Y-13382989D02*
X13166079Y-13421085D01*
X13166079Y-13421085D02*
X13166079Y-13468704D01*
X13166079Y-13468704D02*
X13156556Y-13506799D01*
X13156556Y-13506799D02*
X13147032Y-13525846D01*
X13147032Y-13525846D02*
X13137508Y-13535370D01*
X13137508Y-13535370D02*
X13118460Y-13544894D01*
X13118460Y-13544894D02*
X13099413Y-13544894D01*
X13099413Y-13544894D02*
X13080365Y-13535370D01*
X13080365Y-13535370D02*
X13070841Y-13525846D01*
X13070841Y-13525846D02*
X13061317Y-13506799D01*
X13061317Y-13506799D02*
X13051794Y-13468704D01*
X13051794Y-13468704D02*
X13051794Y-13421085D01*
X13051794Y-13421085D02*
X13061317Y-13382989D01*
X13061317Y-13382989D02*
X13070841Y-13363942D01*
X13070841Y-13363942D02*
X13080365Y-13354418D01*
X13080365Y-13354418D02*
X13099413Y-13344894D01*
X13251794Y-13544894D02*
X13251794Y-13411561D01*
X13251794Y-13430608D02*
X13261317Y-13421085D01*
X13261317Y-13421085D02*
X13280365Y-13411561D01*
X13280365Y-13411561D02*
X13308937Y-13411561D01*
X13308937Y-13411561D02*
X13327984Y-13421085D01*
X13327984Y-13421085D02*
X13337508Y-13440132D01*
X13337508Y-13440132D02*
X13337508Y-13544894D01*
X13337508Y-13440132D02*
X13347032Y-13421085D01*
X13347032Y-13421085D02*
X13366079Y-13411561D01*
X13366079Y-13411561D02*
X13394651Y-13411561D01*
X13394651Y-13411561D02*
X13413698Y-13421085D01*
X13413698Y-13421085D02*
X13423222Y-13440132D01*
X13423222Y-13440132D02*
X13423222Y-13544894D01*
X13518460Y-13544894D02*
X13518460Y-13411561D01*
X13518460Y-13430608D02*
X13527984Y-13421085D01*
X13527984Y-13421085D02*
X13547032Y-13411561D01*
X13547032Y-13411561D02*
X13575603Y-13411561D01*
X13575603Y-13411561D02*
X13594651Y-13421085D01*
X13594651Y-13421085D02*
X13604175Y-13440132D01*
X13604175Y-13440132D02*
X13604175Y-13544894D01*
X13604175Y-13440132D02*
X13613698Y-13421085D01*
X13613698Y-13421085D02*
X13632746Y-13411561D01*
X13632746Y-13411561D02*
X13661317Y-13411561D01*
X13661317Y-13411561D02*
X13680365Y-13421085D01*
X13680365Y-13421085D02*
X13689889Y-13440132D01*
X13689889Y-13440132D02*
X13689889Y-13544894D01*
X14080365Y-13335370D02*
X13908937Y-13592513D01*
X14337508Y-13344894D02*
X14356556Y-13344894D01*
X14356556Y-13344894D02*
X14375603Y-13354418D01*
X14375603Y-13354418D02*
X14385127Y-13363942D01*
X14385127Y-13363942D02*
X14394651Y-13382989D01*
X14394651Y-13382989D02*
X14404175Y-13421085D01*
X14404175Y-13421085D02*
X14404175Y-13468704D01*
X14404175Y-13468704D02*
X14394651Y-13506799D01*
X14394651Y-13506799D02*
X14385127Y-13525846D01*
X14385127Y-13525846D02*
X14375603Y-13535370D01*
X14375603Y-13535370D02*
X14356556Y-13544894D01*
X14356556Y-13544894D02*
X14337508Y-13544894D01*
X14337508Y-13544894D02*
X14318460Y-13535370D01*
X14318460Y-13535370D02*
X14308937Y-13525846D01*
X14308937Y-13525846D02*
X14299413Y-13506799D01*
X14299413Y-13506799D02*
X14289889Y-13468704D01*
X14289889Y-13468704D02*
X14289889Y-13421085D01*
X14289889Y-13421085D02*
X14299413Y-13382989D01*
X14299413Y-13382989D02*
X14308937Y-13363942D01*
X14308937Y-13363942D02*
X14318460Y-13354418D01*
X14318460Y-13354418D02*
X14337508Y-13344894D01*
X14489889Y-13525846D02*
X14499413Y-13535370D01*
X14499413Y-13535370D02*
X14489889Y-13544894D01*
X14489889Y-13544894D02*
X14480365Y-13535370D01*
X14480365Y-13535370D02*
X14489889Y-13525846D01*
X14489889Y-13525846D02*
X14489889Y-13544894D01*
X14623222Y-13344894D02*
X14642270Y-13344894D01*
X14642270Y-13344894D02*
X14661318Y-13354418D01*
X14661318Y-13354418D02*
X14670841Y-13363942D01*
X14670841Y-13363942D02*
X14680365Y-13382989D01*
X14680365Y-13382989D02*
X14689889Y-13421085D01*
X14689889Y-13421085D02*
X14689889Y-13468704D01*
X14689889Y-13468704D02*
X14680365Y-13506799D01*
X14680365Y-13506799D02*
X14670841Y-13525846D01*
X14670841Y-13525846D02*
X14661318Y-13535370D01*
X14661318Y-13535370D02*
X14642270Y-13544894D01*
X14642270Y-13544894D02*
X14623222Y-13544894D01*
X14623222Y-13544894D02*
X14604175Y-13535370D01*
X14604175Y-13535370D02*
X14594651Y-13525846D01*
X14594651Y-13525846D02*
X14585127Y-13506799D01*
X14585127Y-13506799D02*
X14575603Y-13468704D01*
X14575603Y-13468704D02*
X14575603Y-13421085D01*
X14575603Y-13421085D02*
X14585127Y-13382989D01*
X14585127Y-13382989D02*
X14594651Y-13363942D01*
X14594651Y-13363942D02*
X14604175Y-13354418D01*
X14604175Y-13354418D02*
X14623222Y-13344894D01*
X14766080Y-13363942D02*
X14775603Y-13354418D01*
X14775603Y-13354418D02*
X14794651Y-13344894D01*
X14794651Y-13344894D02*
X14842270Y-13344894D01*
X14842270Y-13344894D02*
X14861318Y-13354418D01*
X14861318Y-13354418D02*
X14870841Y-13363942D01*
X14870841Y-13363942D02*
X14880365Y-13382989D01*
X14880365Y-13382989D02*
X14880365Y-13402037D01*
X14880365Y-13402037D02*
X14870841Y-13430608D01*
X14870841Y-13430608D02*
X14756556Y-13544894D01*
X14756556Y-13544894D02*
X14880365Y-13544894D01*
X14947032Y-13344894D02*
X15070841Y-13344894D01*
X15070841Y-13344894D02*
X15004175Y-13421085D01*
X15004175Y-13421085D02*
X15032746Y-13421085D01*
X15032746Y-13421085D02*
X15051794Y-13430608D01*
X15051794Y-13430608D02*
X15061318Y-13440132D01*
X15061318Y-13440132D02*
X15070841Y-13459180D01*
X15070841Y-13459180D02*
X15070841Y-13506799D01*
X15070841Y-13506799D02*
X15061318Y-13525846D01*
X15061318Y-13525846D02*
X15051794Y-13535370D01*
X15051794Y-13535370D02*
X15032746Y-13544894D01*
X15032746Y-13544894D02*
X14975603Y-13544894D01*
X14975603Y-13544894D02*
X14956556Y-13535370D01*
X14956556Y-13535370D02*
X14947032Y-13525846D01*
X15242270Y-13344894D02*
X15204175Y-13344894D01*
X15204175Y-13344894D02*
X15185127Y-13354418D01*
X15185127Y-13354418D02*
X15175603Y-13363942D01*
X15175603Y-13363942D02*
X15156556Y-13392513D01*
X15156556Y-13392513D02*
X15147032Y-13430608D01*
X15147032Y-13430608D02*
X15147032Y-13506799D01*
X15147032Y-13506799D02*
X15156556Y-13525846D01*
X15156556Y-13525846D02*
X15166080Y-13535370D01*
X15166080Y-13535370D02*
X15185127Y-13544894D01*
X15185127Y-13544894D02*
X15223222Y-13544894D01*
X15223222Y-13544894D02*
X15242270Y-13535370D01*
X15242270Y-13535370D02*
X15251794Y-13525846D01*
X15251794Y-13525846D02*
X15261318Y-13506799D01*
X15261318Y-13506799D02*
X15261318Y-13459180D01*
X15261318Y-13459180D02*
X15251794Y-13440132D01*
X15251794Y-13440132D02*
X15242270Y-13430608D01*
X15242270Y-13430608D02*
X15223222Y-13421085D01*
X15223222Y-13421085D02*
X15185127Y-13421085D01*
X15185127Y-13421085D02*
X15166080Y-13430608D01*
X15166080Y-13430608D02*
X15156556Y-13440132D01*
X15156556Y-13440132D02*
X15147032Y-13459180D01*
X15337508Y-13344894D02*
X15337508Y-13382989D01*
X15413699Y-13344894D02*
X15413699Y-13382989D01*
X15708937Y-13621085D02*
X15699413Y-13611561D01*
X15699413Y-13611561D02*
X15680365Y-13582989D01*
X15680365Y-13582989D02*
X15670842Y-13563942D01*
X15670842Y-13563942D02*
X15661318Y-13535370D01*
X15661318Y-13535370D02*
X15651794Y-13487751D01*
X15651794Y-13487751D02*
X15651794Y-13449656D01*
X15651794Y-13449656D02*
X15661318Y-13402037D01*
X15661318Y-13402037D02*
X15670842Y-13373466D01*
X15670842Y-13373466D02*
X15680365Y-13354418D01*
X15680365Y-13354418D02*
X15699413Y-13325846D01*
X15699413Y-13325846D02*
X15708937Y-13316323D01*
X15775603Y-13363942D02*
X15785127Y-13354418D01*
X15785127Y-13354418D02*
X15804175Y-13344894D01*
X15804175Y-13344894D02*
X15851794Y-13344894D01*
X15851794Y-13344894D02*
X15870842Y-13354418D01*
X15870842Y-13354418D02*
X15880365Y-13363942D01*
X15880365Y-13363942D02*
X15889889Y-13382989D01*
X15889889Y-13382989D02*
X15889889Y-13402037D01*
X15889889Y-13402037D02*
X15880365Y-13430608D01*
X15880365Y-13430608D02*
X15766080Y-13544894D01*
X15766080Y-13544894D02*
X15889889Y-13544894D01*
X16127984Y-13544894D02*
X16127984Y-13344894D01*
X16213699Y-13544894D02*
X16213699Y-13440132D01*
X16213699Y-13440132D02*
X16204175Y-13421085D01*
X16204175Y-13421085D02*
X16185127Y-13411561D01*
X16185127Y-13411561D02*
X16156556Y-13411561D01*
X16156556Y-13411561D02*
X16137508Y-13421085D01*
X16137508Y-13421085D02*
X16127984Y-13430608D01*
X16337508Y-13544894D02*
X16318461Y-13535370D01*
X16318461Y-13535370D02*
X16308937Y-13525846D01*
X16308937Y-13525846D02*
X16299413Y-13506799D01*
X16299413Y-13506799D02*
X16299413Y-13449656D01*
X16299413Y-13449656D02*
X16308937Y-13430608D01*
X16308937Y-13430608D02*
X16318461Y-13421085D01*
X16318461Y-13421085D02*
X16337508Y-13411561D01*
X16337508Y-13411561D02*
X16366080Y-13411561D01*
X16366080Y-13411561D02*
X16385127Y-13421085D01*
X16385127Y-13421085D02*
X16394651Y-13430608D01*
X16394651Y-13430608D02*
X16404175Y-13449656D01*
X16404175Y-13449656D02*
X16404175Y-13506799D01*
X16404175Y-13506799D02*
X16394651Y-13525846D01*
X16394651Y-13525846D02*
X16385127Y-13535370D01*
X16385127Y-13535370D02*
X16366080Y-13544894D01*
X16366080Y-13544894D02*
X16337508Y-13544894D01*
X16518461Y-13544894D02*
X16499413Y-13535370D01*
X16499413Y-13535370D02*
X16489889Y-13516323D01*
X16489889Y-13516323D02*
X16489889Y-13344894D01*
X16670842Y-13535370D02*
X16651794Y-13544894D01*
X16651794Y-13544894D02*
X16613699Y-13544894D01*
X16613699Y-13544894D02*
X16594651Y-13535370D01*
X16594651Y-13535370D02*
X16585127Y-13516323D01*
X16585127Y-13516323D02*
X16585127Y-13440132D01*
X16585127Y-13440132D02*
X16594651Y-13421085D01*
X16594651Y-13421085D02*
X16613699Y-13411561D01*
X16613699Y-13411561D02*
X16651794Y-13411561D01*
X16651794Y-13411561D02*
X16670842Y-13421085D01*
X16670842Y-13421085D02*
X16680365Y-13440132D01*
X16680365Y-13440132D02*
X16680365Y-13459180D01*
X16680365Y-13459180D02*
X16585127Y-13478227D01*
X16756556Y-13535370D02*
X16775604Y-13544894D01*
X16775604Y-13544894D02*
X16813699Y-13544894D01*
X16813699Y-13544894D02*
X16832747Y-13535370D01*
X16832747Y-13535370D02*
X16842270Y-13516323D01*
X16842270Y-13516323D02*
X16842270Y-13506799D01*
X16842270Y-13506799D02*
X16832747Y-13487751D01*
X16832747Y-13487751D02*
X16813699Y-13478227D01*
X16813699Y-13478227D02*
X16785127Y-13478227D01*
X16785127Y-13478227D02*
X16766080Y-13468704D01*
X16766080Y-13468704D02*
X16756556Y-13449656D01*
X16756556Y-13449656D02*
X16756556Y-13440132D01*
X16756556Y-13440132D02*
X16766080Y-13421085D01*
X16766080Y-13421085D02*
X16785127Y-13411561D01*
X16785127Y-13411561D02*
X16813699Y-13411561D01*
X16813699Y-13411561D02*
X16832747Y-13421085D01*
X16908937Y-13621085D02*
X16918461Y-13611561D01*
X16918461Y-13611561D02*
X16937508Y-13582989D01*
X16937508Y-13582989D02*
X16947032Y-13563942D01*
X16947032Y-13563942D02*
X16956556Y-13535370D01*
X16956556Y-13535370D02*
X16966080Y-13487751D01*
X16966080Y-13487751D02*
X16966080Y-13449656D01*
X16966080Y-13449656D02*
X16956556Y-13402037D01*
X16956556Y-13402037D02*
X16947032Y-13373466D01*
X16947032Y-13373466D02*
X16937508Y-13354418D01*
X16937508Y-13354418D02*
X16918461Y-13325846D01*
X16918461Y-13325846D02*
X16908937Y-13316323D01*
X17270842Y-13621085D02*
X17261318Y-13611561D01*
X17261318Y-13611561D02*
X17242270Y-13582989D01*
X17242270Y-13582989D02*
X17232747Y-13563942D01*
X17232747Y-13563942D02*
X17223223Y-13535370D01*
X17223223Y-13535370D02*
X17213699Y-13487751D01*
X17213699Y-13487751D02*
X17213699Y-13449656D01*
X17213699Y-13449656D02*
X17223223Y-13402037D01*
X17223223Y-13402037D02*
X17232747Y-13373466D01*
X17232747Y-13373466D02*
X17242270Y-13354418D01*
X17242270Y-13354418D02*
X17261318Y-13325846D01*
X17261318Y-13325846D02*
X17270842Y-13316323D01*
X17347032Y-13411561D02*
X17347032Y-13544894D01*
X17347032Y-13430608D02*
X17356556Y-13421085D01*
X17356556Y-13421085D02*
X17375604Y-13411561D01*
X17375604Y-13411561D02*
X17404175Y-13411561D01*
X17404175Y-13411561D02*
X17423223Y-13421085D01*
X17423223Y-13421085D02*
X17432747Y-13440132D01*
X17432747Y-13440132D02*
X17432747Y-13544894D01*
X17556556Y-13544894D02*
X17537508Y-13535370D01*
X17537508Y-13535370D02*
X17527985Y-13525846D01*
X17527985Y-13525846D02*
X17518461Y-13506799D01*
X17518461Y-13506799D02*
X17518461Y-13449656D01*
X17518461Y-13449656D02*
X17527985Y-13430608D01*
X17527985Y-13430608D02*
X17537508Y-13421085D01*
X17537508Y-13421085D02*
X17556556Y-13411561D01*
X17556556Y-13411561D02*
X17585128Y-13411561D01*
X17585128Y-13411561D02*
X17604175Y-13421085D01*
X17604175Y-13421085D02*
X17613699Y-13430608D01*
X17613699Y-13430608D02*
X17623223Y-13449656D01*
X17623223Y-13449656D02*
X17623223Y-13506799D01*
X17623223Y-13506799D02*
X17613699Y-13525846D01*
X17613699Y-13525846D02*
X17604175Y-13535370D01*
X17604175Y-13535370D02*
X17585128Y-13544894D01*
X17585128Y-13544894D02*
X17556556Y-13544894D01*
X17680366Y-13411561D02*
X17756556Y-13411561D01*
X17708937Y-13344894D02*
X17708937Y-13516323D01*
X17708937Y-13516323D02*
X17718461Y-13535370D01*
X17718461Y-13535370D02*
X17737508Y-13544894D01*
X17737508Y-13544894D02*
X17756556Y-13544894D01*
X17975604Y-13411561D02*
X17975604Y-13611561D01*
X17975604Y-13421085D02*
X17994651Y-13411561D01*
X17994651Y-13411561D02*
X18032747Y-13411561D01*
X18032747Y-13411561D02*
X18051794Y-13421085D01*
X18051794Y-13421085D02*
X18061318Y-13430608D01*
X18061318Y-13430608D02*
X18070842Y-13449656D01*
X18070842Y-13449656D02*
X18070842Y-13506799D01*
X18070842Y-13506799D02*
X18061318Y-13525846D01*
X18061318Y-13525846D02*
X18051794Y-13535370D01*
X18051794Y-13535370D02*
X18032747Y-13544894D01*
X18032747Y-13544894D02*
X17994651Y-13544894D01*
X17994651Y-13544894D02*
X17975604Y-13535370D01*
X18185128Y-13544894D02*
X18166080Y-13535370D01*
X18166080Y-13535370D02*
X18156556Y-13516323D01*
X18156556Y-13516323D02*
X18156556Y-13344894D01*
X18347032Y-13544894D02*
X18347032Y-13440132D01*
X18347032Y-13440132D02*
X18337509Y-13421085D01*
X18337509Y-13421085D02*
X18318461Y-13411561D01*
X18318461Y-13411561D02*
X18280366Y-13411561D01*
X18280366Y-13411561D02*
X18261318Y-13421085D01*
X18347032Y-13535370D02*
X18327985Y-13544894D01*
X18327985Y-13544894D02*
X18280366Y-13544894D01*
X18280366Y-13544894D02*
X18261318Y-13535370D01*
X18261318Y-13535370D02*
X18251794Y-13516323D01*
X18251794Y-13516323D02*
X18251794Y-13497275D01*
X18251794Y-13497275D02*
X18261318Y-13478227D01*
X18261318Y-13478227D02*
X18280366Y-13468704D01*
X18280366Y-13468704D02*
X18327985Y-13468704D01*
X18327985Y-13468704D02*
X18347032Y-13459180D01*
X18413699Y-13411561D02*
X18489889Y-13411561D01*
X18442270Y-13344894D02*
X18442270Y-13516323D01*
X18442270Y-13516323D02*
X18451794Y-13535370D01*
X18451794Y-13535370D02*
X18470842Y-13544894D01*
X18470842Y-13544894D02*
X18489889Y-13544894D01*
X18632747Y-13535370D02*
X18613699Y-13544894D01*
X18613699Y-13544894D02*
X18575604Y-13544894D01*
X18575604Y-13544894D02*
X18556556Y-13535370D01*
X18556556Y-13535370D02*
X18547032Y-13516323D01*
X18547032Y-13516323D02*
X18547032Y-13440132D01*
X18547032Y-13440132D02*
X18556556Y-13421085D01*
X18556556Y-13421085D02*
X18575604Y-13411561D01*
X18575604Y-13411561D02*
X18613699Y-13411561D01*
X18613699Y-13411561D02*
X18632747Y-13421085D01*
X18632747Y-13421085D02*
X18642270Y-13440132D01*
X18642270Y-13440132D02*
X18642270Y-13459180D01*
X18642270Y-13459180D02*
X18547032Y-13478227D01*
X18813699Y-13544894D02*
X18813699Y-13344894D01*
X18813699Y-13535370D02*
X18794651Y-13544894D01*
X18794651Y-13544894D02*
X18756556Y-13544894D01*
X18756556Y-13544894D02*
X18737509Y-13535370D01*
X18737509Y-13535370D02*
X18727985Y-13525846D01*
X18727985Y-13525846D02*
X18718461Y-13506799D01*
X18718461Y-13506799D02*
X18718461Y-13449656D01*
X18718461Y-13449656D02*
X18727985Y-13430608D01*
X18727985Y-13430608D02*
X18737509Y-13421085D01*
X18737509Y-13421085D02*
X18756556Y-13411561D01*
X18756556Y-13411561D02*
X18794651Y-13411561D01*
X18794651Y-13411561D02*
X18813699Y-13421085D01*
X18889890Y-13621085D02*
X18899413Y-13611561D01*
X18899413Y-13611561D02*
X18918461Y-13582989D01*
X18918461Y-13582989D02*
X18927985Y-13563942D01*
X18927985Y-13563942D02*
X18937509Y-13535370D01*
X18937509Y-13535370D02*
X18947032Y-13487751D01*
X18947032Y-13487751D02*
X18947032Y-13449656D01*
X18947032Y-13449656D02*
X18937509Y-13402037D01*
X18937509Y-13402037D02*
X18927985Y-13373466D01*
X18927985Y-13373466D02*
X18918461Y-13354418D01*
X18918461Y-13354418D02*
X18899413Y-13325846D01*
X18899413Y-13325846D02*
X18889890Y-13316323D01*
D13*
X12133874Y-13717410D02*
G75*
G02*
X12012874Y-13717410I-60500J0D01*
G01*
X12012874Y-13717410D02*
G75*
G02*
X12133874Y-13717410I60500J0D01*
G01*
D12*
X12499413Y-13808894D02*
X12385127Y-13808894D01*
X12442270Y-13808894D02*
X12442270Y-13608894D01*
X12442270Y-13608894D02*
X12423222Y-13637466D01*
X12423222Y-13637466D02*
X12404175Y-13656513D01*
X12404175Y-13656513D02*
X12385127Y-13666037D01*
X12585127Y-13789846D02*
X12594651Y-13799370D01*
X12594651Y-13799370D02*
X12585127Y-13808894D01*
X12585127Y-13808894D02*
X12575603Y-13799370D01*
X12575603Y-13799370D02*
X12585127Y-13789846D01*
X12585127Y-13789846D02*
X12585127Y-13808894D01*
X12670841Y-13627942D02*
X12680365Y-13618418D01*
X12680365Y-13618418D02*
X12699413Y-13608894D01*
X12699413Y-13608894D02*
X12747032Y-13608894D01*
X12747032Y-13608894D02*
X12766079Y-13618418D01*
X12766079Y-13618418D02*
X12775603Y-13627942D01*
X12775603Y-13627942D02*
X12785127Y-13646989D01*
X12785127Y-13646989D02*
X12785127Y-13666037D01*
X12785127Y-13666037D02*
X12775603Y-13694608D01*
X12775603Y-13694608D02*
X12661317Y-13808894D01*
X12661317Y-13808894D02*
X12785127Y-13808894D01*
X12975603Y-13808894D02*
X12861317Y-13808894D01*
X12918460Y-13808894D02*
X12918460Y-13608894D01*
X12918460Y-13608894D02*
X12899413Y-13637466D01*
X12899413Y-13637466D02*
X12880365Y-13656513D01*
X12880365Y-13656513D02*
X12861317Y-13666037D01*
X13099413Y-13608894D02*
X13118460Y-13608894D01*
X13118460Y-13608894D02*
X13137508Y-13618418D01*
X13137508Y-13618418D02*
X13147032Y-13627942D01*
X13147032Y-13627942D02*
X13156556Y-13646989D01*
X13156556Y-13646989D02*
X13166079Y-13685085D01*
X13166079Y-13685085D02*
X13166079Y-13732704D01*
X13166079Y-13732704D02*
X13156556Y-13770799D01*
X13156556Y-13770799D02*
X13147032Y-13789846D01*
X13147032Y-13789846D02*
X13137508Y-13799370D01*
X13137508Y-13799370D02*
X13118460Y-13808894D01*
X13118460Y-13808894D02*
X13099413Y-13808894D01*
X13099413Y-13808894D02*
X13080365Y-13799370D01*
X13080365Y-13799370D02*
X13070841Y-13789846D01*
X13070841Y-13789846D02*
X13061317Y-13770799D01*
X13061317Y-13770799D02*
X13051794Y-13732704D01*
X13051794Y-13732704D02*
X13051794Y-13685085D01*
X13051794Y-13685085D02*
X13061317Y-13646989D01*
X13061317Y-13646989D02*
X13070841Y-13627942D01*
X13070841Y-13627942D02*
X13080365Y-13618418D01*
X13080365Y-13618418D02*
X13099413Y-13608894D01*
X13251794Y-13808894D02*
X13251794Y-13675561D01*
X13251794Y-13694608D02*
X13261317Y-13685085D01*
X13261317Y-13685085D02*
X13280365Y-13675561D01*
X13280365Y-13675561D02*
X13308937Y-13675561D01*
X13308937Y-13675561D02*
X13327984Y-13685085D01*
X13327984Y-13685085D02*
X13337508Y-13704132D01*
X13337508Y-13704132D02*
X13337508Y-13808894D01*
X13337508Y-13704132D02*
X13347032Y-13685085D01*
X13347032Y-13685085D02*
X13366079Y-13675561D01*
X13366079Y-13675561D02*
X13394651Y-13675561D01*
X13394651Y-13675561D02*
X13413698Y-13685085D01*
X13413698Y-13685085D02*
X13423222Y-13704132D01*
X13423222Y-13704132D02*
X13423222Y-13808894D01*
X13518460Y-13808894D02*
X13518460Y-13675561D01*
X13518460Y-13694608D02*
X13527984Y-13685085D01*
X13527984Y-13685085D02*
X13547032Y-13675561D01*
X13547032Y-13675561D02*
X13575603Y-13675561D01*
X13575603Y-13675561D02*
X13594651Y-13685085D01*
X13594651Y-13685085D02*
X13604175Y-13704132D01*
X13604175Y-13704132D02*
X13604175Y-13808894D01*
X13604175Y-13704132D02*
X13613698Y-13685085D01*
X13613698Y-13685085D02*
X13632746Y-13675561D01*
X13632746Y-13675561D02*
X13661317Y-13675561D01*
X13661317Y-13675561D02*
X13680365Y-13685085D01*
X13680365Y-13685085D02*
X13689889Y-13704132D01*
X13689889Y-13704132D02*
X13689889Y-13808894D01*
X14080365Y-13599370D02*
X13908937Y-13856513D01*
X14337508Y-13608894D02*
X14356556Y-13608894D01*
X14356556Y-13608894D02*
X14375603Y-13618418D01*
X14375603Y-13618418D02*
X14385127Y-13627942D01*
X14385127Y-13627942D02*
X14394651Y-13646989D01*
X14394651Y-13646989D02*
X14404175Y-13685085D01*
X14404175Y-13685085D02*
X14404175Y-13732704D01*
X14404175Y-13732704D02*
X14394651Y-13770799D01*
X14394651Y-13770799D02*
X14385127Y-13789846D01*
X14385127Y-13789846D02*
X14375603Y-13799370D01*
X14375603Y-13799370D02*
X14356556Y-13808894D01*
X14356556Y-13808894D02*
X14337508Y-13808894D01*
X14337508Y-13808894D02*
X14318460Y-13799370D01*
X14318460Y-13799370D02*
X14308937Y-13789846D01*
X14308937Y-13789846D02*
X14299413Y-13770799D01*
X14299413Y-13770799D02*
X14289889Y-13732704D01*
X14289889Y-13732704D02*
X14289889Y-13685085D01*
X14289889Y-13685085D02*
X14299413Y-13646989D01*
X14299413Y-13646989D02*
X14308937Y-13627942D01*
X14308937Y-13627942D02*
X14318460Y-13618418D01*
X14318460Y-13618418D02*
X14337508Y-13608894D01*
X14489889Y-13789846D02*
X14499413Y-13799370D01*
X14499413Y-13799370D02*
X14489889Y-13808894D01*
X14489889Y-13808894D02*
X14480365Y-13799370D01*
X14480365Y-13799370D02*
X14489889Y-13789846D01*
X14489889Y-13789846D02*
X14489889Y-13808894D01*
X14623222Y-13608894D02*
X14642270Y-13608894D01*
X14642270Y-13608894D02*
X14661318Y-13618418D01*
X14661318Y-13618418D02*
X14670841Y-13627942D01*
X14670841Y-13627942D02*
X14680365Y-13646989D01*
X14680365Y-13646989D02*
X14689889Y-13685085D01*
X14689889Y-13685085D02*
X14689889Y-13732704D01*
X14689889Y-13732704D02*
X14680365Y-13770799D01*
X14680365Y-13770799D02*
X14670841Y-13789846D01*
X14670841Y-13789846D02*
X14661318Y-13799370D01*
X14661318Y-13799370D02*
X14642270Y-13808894D01*
X14642270Y-13808894D02*
X14623222Y-13808894D01*
X14623222Y-13808894D02*
X14604175Y-13799370D01*
X14604175Y-13799370D02*
X14594651Y-13789846D01*
X14594651Y-13789846D02*
X14585127Y-13770799D01*
X14585127Y-13770799D02*
X14575603Y-13732704D01*
X14575603Y-13732704D02*
X14575603Y-13685085D01*
X14575603Y-13685085D02*
X14585127Y-13646989D01*
X14585127Y-13646989D02*
X14594651Y-13627942D01*
X14594651Y-13627942D02*
X14604175Y-13618418D01*
X14604175Y-13618418D02*
X14623222Y-13608894D01*
X14861318Y-13675561D02*
X14861318Y-13808894D01*
X14813699Y-13599370D02*
X14766080Y-13742227D01*
X14766080Y-13742227D02*
X14889889Y-13742227D01*
X14947032Y-13608894D02*
X15080365Y-13608894D01*
X15080365Y-13608894D02*
X14994651Y-13808894D01*
X15242270Y-13608894D02*
X15204175Y-13608894D01*
X15204175Y-13608894D02*
X15185127Y-13618418D01*
X15185127Y-13618418D02*
X15175603Y-13627942D01*
X15175603Y-13627942D02*
X15156556Y-13656513D01*
X15156556Y-13656513D02*
X15147032Y-13694608D01*
X15147032Y-13694608D02*
X15147032Y-13770799D01*
X15147032Y-13770799D02*
X15156556Y-13789846D01*
X15156556Y-13789846D02*
X15166080Y-13799370D01*
X15166080Y-13799370D02*
X15185127Y-13808894D01*
X15185127Y-13808894D02*
X15223222Y-13808894D01*
X15223222Y-13808894D02*
X15242270Y-13799370D01*
X15242270Y-13799370D02*
X15251794Y-13789846D01*
X15251794Y-13789846D02*
X15261318Y-13770799D01*
X15261318Y-13770799D02*
X15261318Y-13723180D01*
X15261318Y-13723180D02*
X15251794Y-13704132D01*
X15251794Y-13704132D02*
X15242270Y-13694608D01*
X15242270Y-13694608D02*
X15223222Y-13685085D01*
X15223222Y-13685085D02*
X15185127Y-13685085D01*
X15185127Y-13685085D02*
X15166080Y-13694608D01*
X15166080Y-13694608D02*
X15156556Y-13704132D01*
X15156556Y-13704132D02*
X15147032Y-13723180D01*
X15337508Y-13608894D02*
X15337508Y-13646989D01*
X15413699Y-13608894D02*
X15413699Y-13646989D01*
X15708937Y-13885085D02*
X15699413Y-13875561D01*
X15699413Y-13875561D02*
X15680365Y-13846989D01*
X15680365Y-13846989D02*
X15670842Y-13827942D01*
X15670842Y-13827942D02*
X15661318Y-13799370D01*
X15661318Y-13799370D02*
X15651794Y-13751751D01*
X15651794Y-13751751D02*
X15651794Y-13713656D01*
X15651794Y-13713656D02*
X15661318Y-13666037D01*
X15661318Y-13666037D02*
X15670842Y-13637466D01*
X15670842Y-13637466D02*
X15680365Y-13618418D01*
X15680365Y-13618418D02*
X15699413Y-13589846D01*
X15699413Y-13589846D02*
X15708937Y-13580323D01*
X15889889Y-13808894D02*
X15775603Y-13808894D01*
X15832746Y-13808894D02*
X15832746Y-13608894D01*
X15832746Y-13608894D02*
X15813699Y-13637466D01*
X15813699Y-13637466D02*
X15794651Y-13656513D01*
X15794651Y-13656513D02*
X15775603Y-13666037D01*
X16127984Y-13808894D02*
X16127984Y-13608894D01*
X16213699Y-13808894D02*
X16213699Y-13704132D01*
X16213699Y-13704132D02*
X16204175Y-13685085D01*
X16204175Y-13685085D02*
X16185127Y-13675561D01*
X16185127Y-13675561D02*
X16156556Y-13675561D01*
X16156556Y-13675561D02*
X16137508Y-13685085D01*
X16137508Y-13685085D02*
X16127984Y-13694608D01*
X16337508Y-13808894D02*
X16318461Y-13799370D01*
X16318461Y-13799370D02*
X16308937Y-13789846D01*
X16308937Y-13789846D02*
X16299413Y-13770799D01*
X16299413Y-13770799D02*
X16299413Y-13713656D01*
X16299413Y-13713656D02*
X16308937Y-13694608D01*
X16308937Y-13694608D02*
X16318461Y-13685085D01*
X16318461Y-13685085D02*
X16337508Y-13675561D01*
X16337508Y-13675561D02*
X16366080Y-13675561D01*
X16366080Y-13675561D02*
X16385127Y-13685085D01*
X16385127Y-13685085D02*
X16394651Y-13694608D01*
X16394651Y-13694608D02*
X16404175Y-13713656D01*
X16404175Y-13713656D02*
X16404175Y-13770799D01*
X16404175Y-13770799D02*
X16394651Y-13789846D01*
X16394651Y-13789846D02*
X16385127Y-13799370D01*
X16385127Y-13799370D02*
X16366080Y-13808894D01*
X16366080Y-13808894D02*
X16337508Y-13808894D01*
X16518461Y-13808894D02*
X16499413Y-13799370D01*
X16499413Y-13799370D02*
X16489889Y-13780323D01*
X16489889Y-13780323D02*
X16489889Y-13608894D01*
X16670842Y-13799370D02*
X16651794Y-13808894D01*
X16651794Y-13808894D02*
X16613699Y-13808894D01*
X16613699Y-13808894D02*
X16594651Y-13799370D01*
X16594651Y-13799370D02*
X16585127Y-13780323D01*
X16585127Y-13780323D02*
X16585127Y-13704132D01*
X16585127Y-13704132D02*
X16594651Y-13685085D01*
X16594651Y-13685085D02*
X16613699Y-13675561D01*
X16613699Y-13675561D02*
X16651794Y-13675561D01*
X16651794Y-13675561D02*
X16670842Y-13685085D01*
X16670842Y-13685085D02*
X16680365Y-13704132D01*
X16680365Y-13704132D02*
X16680365Y-13723180D01*
X16680365Y-13723180D02*
X16585127Y-13742227D01*
X16747032Y-13885085D02*
X16756556Y-13875561D01*
X16756556Y-13875561D02*
X16775604Y-13846989D01*
X16775604Y-13846989D02*
X16785127Y-13827942D01*
X16785127Y-13827942D02*
X16794651Y-13799370D01*
X16794651Y-13799370D02*
X16804175Y-13751751D01*
X16804175Y-13751751D02*
X16804175Y-13713656D01*
X16804175Y-13713656D02*
X16794651Y-13666037D01*
X16794651Y-13666037D02*
X16785127Y-13637466D01*
X16785127Y-13637466D02*
X16775604Y-13618418D01*
X16775604Y-13618418D02*
X16756556Y-13589846D01*
X16756556Y-13589846D02*
X16747032Y-13580323D01*
X17108937Y-13885085D02*
X17099413Y-13875561D01*
X17099413Y-13875561D02*
X17080366Y-13846989D01*
X17080366Y-13846989D02*
X17070842Y-13827942D01*
X17070842Y-13827942D02*
X17061318Y-13799370D01*
X17061318Y-13799370D02*
X17051794Y-13751751D01*
X17051794Y-13751751D02*
X17051794Y-13713656D01*
X17051794Y-13713656D02*
X17061318Y-13666037D01*
X17061318Y-13666037D02*
X17070842Y-13637466D01*
X17070842Y-13637466D02*
X17080366Y-13618418D01*
X17080366Y-13618418D02*
X17099413Y-13589846D01*
X17099413Y-13589846D02*
X17108937Y-13580323D01*
X17185127Y-13675561D02*
X17185127Y-13808894D01*
X17185127Y-13694608D02*
X17194651Y-13685085D01*
X17194651Y-13685085D02*
X17213699Y-13675561D01*
X17213699Y-13675561D02*
X17242270Y-13675561D01*
X17242270Y-13675561D02*
X17261318Y-13685085D01*
X17261318Y-13685085D02*
X17270842Y-13704132D01*
X17270842Y-13704132D02*
X17270842Y-13808894D01*
X17394651Y-13808894D02*
X17375604Y-13799370D01*
X17375604Y-13799370D02*
X17366080Y-13789846D01*
X17366080Y-13789846D02*
X17356556Y-13770799D01*
X17356556Y-13770799D02*
X17356556Y-13713656D01*
X17356556Y-13713656D02*
X17366080Y-13694608D01*
X17366080Y-13694608D02*
X17375604Y-13685085D01*
X17375604Y-13685085D02*
X17394651Y-13675561D01*
X17394651Y-13675561D02*
X17423223Y-13675561D01*
X17423223Y-13675561D02*
X17442270Y-13685085D01*
X17442270Y-13685085D02*
X17451794Y-13694608D01*
X17451794Y-13694608D02*
X17461318Y-13713656D01*
X17461318Y-13713656D02*
X17461318Y-13770799D01*
X17461318Y-13770799D02*
X17451794Y-13789846D01*
X17451794Y-13789846D02*
X17442270Y-13799370D01*
X17442270Y-13799370D02*
X17423223Y-13808894D01*
X17423223Y-13808894D02*
X17394651Y-13808894D01*
X17518461Y-13675561D02*
X17594651Y-13675561D01*
X17547032Y-13608894D02*
X17547032Y-13780323D01*
X17547032Y-13780323D02*
X17556556Y-13799370D01*
X17556556Y-13799370D02*
X17575604Y-13808894D01*
X17575604Y-13808894D02*
X17594651Y-13808894D01*
X17813699Y-13675561D02*
X17813699Y-13875561D01*
X17813699Y-13685085D02*
X17832747Y-13675561D01*
X17832747Y-13675561D02*
X17870842Y-13675561D01*
X17870842Y-13675561D02*
X17889889Y-13685085D01*
X17889889Y-13685085D02*
X17899413Y-13694608D01*
X17899413Y-13694608D02*
X17908937Y-13713656D01*
X17908937Y-13713656D02*
X17908937Y-13770799D01*
X17908937Y-13770799D02*
X17899413Y-13789846D01*
X17899413Y-13789846D02*
X17889889Y-13799370D01*
X17889889Y-13799370D02*
X17870842Y-13808894D01*
X17870842Y-13808894D02*
X17832747Y-13808894D01*
X17832747Y-13808894D02*
X17813699Y-13799370D01*
X18023223Y-13808894D02*
X18004175Y-13799370D01*
X18004175Y-13799370D02*
X17994651Y-13780323D01*
X17994651Y-13780323D02*
X17994651Y-13608894D01*
X18185128Y-13808894D02*
X18185128Y-13704132D01*
X18185128Y-13704132D02*
X18175604Y-13685085D01*
X18175604Y-13685085D02*
X18156556Y-13675561D01*
X18156556Y-13675561D02*
X18118461Y-13675561D01*
X18118461Y-13675561D02*
X18099413Y-13685085D01*
X18185128Y-13799370D02*
X18166080Y-13808894D01*
X18166080Y-13808894D02*
X18118461Y-13808894D01*
X18118461Y-13808894D02*
X18099413Y-13799370D01*
X18099413Y-13799370D02*
X18089889Y-13780323D01*
X18089889Y-13780323D02*
X18089889Y-13761275D01*
X18089889Y-13761275D02*
X18099413Y-13742227D01*
X18099413Y-13742227D02*
X18118461Y-13732704D01*
X18118461Y-13732704D02*
X18166080Y-13732704D01*
X18166080Y-13732704D02*
X18185128Y-13723180D01*
X18251794Y-13675561D02*
X18327985Y-13675561D01*
X18280366Y-13608894D02*
X18280366Y-13780323D01*
X18280366Y-13780323D02*
X18289889Y-13799370D01*
X18289889Y-13799370D02*
X18308937Y-13808894D01*
X18308937Y-13808894D02*
X18327985Y-13808894D01*
X18470842Y-13799370D02*
X18451794Y-13808894D01*
X18451794Y-13808894D02*
X18413699Y-13808894D01*
X18413699Y-13808894D02*
X18394651Y-13799370D01*
X18394651Y-13799370D02*
X18385128Y-13780323D01*
X18385128Y-13780323D02*
X18385128Y-13704132D01*
X18385128Y-13704132D02*
X18394651Y-13685085D01*
X18394651Y-13685085D02*
X18413699Y-13675561D01*
X18413699Y-13675561D02*
X18451794Y-13675561D01*
X18451794Y-13675561D02*
X18470842Y-13685085D01*
X18470842Y-13685085D02*
X18480366Y-13704132D01*
X18480366Y-13704132D02*
X18480366Y-13723180D01*
X18480366Y-13723180D02*
X18385128Y-13742227D01*
X18651794Y-13808894D02*
X18651794Y-13608894D01*
X18651794Y-13799370D02*
X18632747Y-13808894D01*
X18632747Y-13808894D02*
X18594651Y-13808894D01*
X18594651Y-13808894D02*
X18575604Y-13799370D01*
X18575604Y-13799370D02*
X18566080Y-13789846D01*
X18566080Y-13789846D02*
X18556556Y-13770799D01*
X18556556Y-13770799D02*
X18556556Y-13713656D01*
X18556556Y-13713656D02*
X18566080Y-13694608D01*
X18566080Y-13694608D02*
X18575604Y-13685085D01*
X18575604Y-13685085D02*
X18594651Y-13675561D01*
X18594651Y-13675561D02*
X18632747Y-13675561D01*
X18632747Y-13675561D02*
X18651794Y-13685085D01*
X18727985Y-13885085D02*
X18737509Y-13875561D01*
X18737509Y-13875561D02*
X18756556Y-13846989D01*
X18756556Y-13846989D02*
X18766080Y-13827942D01*
X18766080Y-13827942D02*
X18775604Y-13799370D01*
X18775604Y-13799370D02*
X18785128Y-13751751D01*
X18785128Y-13751751D02*
X18785128Y-13713656D01*
X18785128Y-13713656D02*
X18775604Y-13666037D01*
X18775604Y-13666037D02*
X18766080Y-13637466D01*
X18766080Y-13637466D02*
X18756556Y-13618418D01*
X18756556Y-13618418D02*
X18737509Y-13589846D01*
X18737509Y-13589846D02*
X18727985Y-13580323D01*
X12033874Y-13881410D02*
X12033874Y-14081410D01*
X11933874Y-13981410D02*
X12133874Y-13981410D01*
X12385127Y-13891942D02*
X12394651Y-13882418D01*
X12394651Y-13882418D02*
X12413698Y-13872894D01*
X12413698Y-13872894D02*
X12461317Y-13872894D01*
X12461317Y-13872894D02*
X12480365Y-13882418D01*
X12480365Y-13882418D02*
X12489889Y-13891942D01*
X12489889Y-13891942D02*
X12499413Y-13910989D01*
X12499413Y-13910989D02*
X12499413Y-13930037D01*
X12499413Y-13930037D02*
X12489889Y-13958608D01*
X12489889Y-13958608D02*
X12375603Y-14072894D01*
X12375603Y-14072894D02*
X12499413Y-14072894D01*
X12585127Y-14053846D02*
X12594651Y-14063370D01*
X12594651Y-14063370D02*
X12585127Y-14072894D01*
X12585127Y-14072894D02*
X12575603Y-14063370D01*
X12575603Y-14063370D02*
X12585127Y-14053846D01*
X12585127Y-14053846D02*
X12585127Y-14072894D01*
X12670841Y-13891942D02*
X12680365Y-13882418D01*
X12680365Y-13882418D02*
X12699413Y-13872894D01*
X12699413Y-13872894D02*
X12747032Y-13872894D01*
X12747032Y-13872894D02*
X12766079Y-13882418D01*
X12766079Y-13882418D02*
X12775603Y-13891942D01*
X12775603Y-13891942D02*
X12785127Y-13910989D01*
X12785127Y-13910989D02*
X12785127Y-13930037D01*
X12785127Y-13930037D02*
X12775603Y-13958608D01*
X12775603Y-13958608D02*
X12661317Y-14072894D01*
X12661317Y-14072894D02*
X12785127Y-14072894D01*
X12908936Y-13872894D02*
X12927984Y-13872894D01*
X12927984Y-13872894D02*
X12947032Y-13882418D01*
X12947032Y-13882418D02*
X12956556Y-13891942D01*
X12956556Y-13891942D02*
X12966079Y-13910989D01*
X12966079Y-13910989D02*
X12975603Y-13949085D01*
X12975603Y-13949085D02*
X12975603Y-13996704D01*
X12975603Y-13996704D02*
X12966079Y-14034799D01*
X12966079Y-14034799D02*
X12956556Y-14053846D01*
X12956556Y-14053846D02*
X12947032Y-14063370D01*
X12947032Y-14063370D02*
X12927984Y-14072894D01*
X12927984Y-14072894D02*
X12908936Y-14072894D01*
X12908936Y-14072894D02*
X12889889Y-14063370D01*
X12889889Y-14063370D02*
X12880365Y-14053846D01*
X12880365Y-14053846D02*
X12870841Y-14034799D01*
X12870841Y-14034799D02*
X12861317Y-13996704D01*
X12861317Y-13996704D02*
X12861317Y-13949085D01*
X12861317Y-13949085D02*
X12870841Y-13910989D01*
X12870841Y-13910989D02*
X12880365Y-13891942D01*
X12880365Y-13891942D02*
X12889889Y-13882418D01*
X12889889Y-13882418D02*
X12908936Y-13872894D01*
X13099413Y-13872894D02*
X13118460Y-13872894D01*
X13118460Y-13872894D02*
X13137508Y-13882418D01*
X13137508Y-13882418D02*
X13147032Y-13891942D01*
X13147032Y-13891942D02*
X13156556Y-13910989D01*
X13156556Y-13910989D02*
X13166079Y-13949085D01*
X13166079Y-13949085D02*
X13166079Y-13996704D01*
X13166079Y-13996704D02*
X13156556Y-14034799D01*
X13156556Y-14034799D02*
X13147032Y-14053846D01*
X13147032Y-14053846D02*
X13137508Y-14063370D01*
X13137508Y-14063370D02*
X13118460Y-14072894D01*
X13118460Y-14072894D02*
X13099413Y-14072894D01*
X13099413Y-14072894D02*
X13080365Y-14063370D01*
X13080365Y-14063370D02*
X13070841Y-14053846D01*
X13070841Y-14053846D02*
X13061317Y-14034799D01*
X13061317Y-14034799D02*
X13051794Y-13996704D01*
X13051794Y-13996704D02*
X13051794Y-13949085D01*
X13051794Y-13949085D02*
X13061317Y-13910989D01*
X13061317Y-13910989D02*
X13070841Y-13891942D01*
X13070841Y-13891942D02*
X13080365Y-13882418D01*
X13080365Y-13882418D02*
X13099413Y-13872894D01*
X13251794Y-14072894D02*
X13251794Y-13939561D01*
X13251794Y-13958608D02*
X13261317Y-13949085D01*
X13261317Y-13949085D02*
X13280365Y-13939561D01*
X13280365Y-13939561D02*
X13308937Y-13939561D01*
X13308937Y-13939561D02*
X13327984Y-13949085D01*
X13327984Y-13949085D02*
X13337508Y-13968132D01*
X13337508Y-13968132D02*
X13337508Y-14072894D01*
X13337508Y-13968132D02*
X13347032Y-13949085D01*
X13347032Y-13949085D02*
X13366079Y-13939561D01*
X13366079Y-13939561D02*
X13394651Y-13939561D01*
X13394651Y-13939561D02*
X13413698Y-13949085D01*
X13413698Y-13949085D02*
X13423222Y-13968132D01*
X13423222Y-13968132D02*
X13423222Y-14072894D01*
X13518460Y-14072894D02*
X13518460Y-13939561D01*
X13518460Y-13958608D02*
X13527984Y-13949085D01*
X13527984Y-13949085D02*
X13547032Y-13939561D01*
X13547032Y-13939561D02*
X13575603Y-13939561D01*
X13575603Y-13939561D02*
X13594651Y-13949085D01*
X13594651Y-13949085D02*
X13604175Y-13968132D01*
X13604175Y-13968132D02*
X13604175Y-14072894D01*
X13604175Y-13968132D02*
X13613698Y-13949085D01*
X13613698Y-13949085D02*
X13632746Y-13939561D01*
X13632746Y-13939561D02*
X13661317Y-13939561D01*
X13661317Y-13939561D02*
X13680365Y-13949085D01*
X13680365Y-13949085D02*
X13689889Y-13968132D01*
X13689889Y-13968132D02*
X13689889Y-14072894D01*
X14080365Y-13863370D02*
X13908937Y-14120513D01*
X14337508Y-13872894D02*
X14356556Y-13872894D01*
X14356556Y-13872894D02*
X14375603Y-13882418D01*
X14375603Y-13882418D02*
X14385127Y-13891942D01*
X14385127Y-13891942D02*
X14394651Y-13910989D01*
X14394651Y-13910989D02*
X14404175Y-13949085D01*
X14404175Y-13949085D02*
X14404175Y-13996704D01*
X14404175Y-13996704D02*
X14394651Y-14034799D01*
X14394651Y-14034799D02*
X14385127Y-14053846D01*
X14385127Y-14053846D02*
X14375603Y-14063370D01*
X14375603Y-14063370D02*
X14356556Y-14072894D01*
X14356556Y-14072894D02*
X14337508Y-14072894D01*
X14337508Y-14072894D02*
X14318460Y-14063370D01*
X14318460Y-14063370D02*
X14308937Y-14053846D01*
X14308937Y-14053846D02*
X14299413Y-14034799D01*
X14299413Y-14034799D02*
X14289889Y-13996704D01*
X14289889Y-13996704D02*
X14289889Y-13949085D01*
X14289889Y-13949085D02*
X14299413Y-13910989D01*
X14299413Y-13910989D02*
X14308937Y-13891942D01*
X14308937Y-13891942D02*
X14318460Y-13882418D01*
X14318460Y-13882418D02*
X14337508Y-13872894D01*
X14489889Y-14053846D02*
X14499413Y-14063370D01*
X14499413Y-14063370D02*
X14489889Y-14072894D01*
X14489889Y-14072894D02*
X14480365Y-14063370D01*
X14480365Y-14063370D02*
X14489889Y-14053846D01*
X14489889Y-14053846D02*
X14489889Y-14072894D01*
X14623222Y-13872894D02*
X14642270Y-13872894D01*
X14642270Y-13872894D02*
X14661318Y-13882418D01*
X14661318Y-13882418D02*
X14670841Y-13891942D01*
X14670841Y-13891942D02*
X14680365Y-13910989D01*
X14680365Y-13910989D02*
X14689889Y-13949085D01*
X14689889Y-13949085D02*
X14689889Y-13996704D01*
X14689889Y-13996704D02*
X14680365Y-14034799D01*
X14680365Y-14034799D02*
X14670841Y-14053846D01*
X14670841Y-14053846D02*
X14661318Y-14063370D01*
X14661318Y-14063370D02*
X14642270Y-14072894D01*
X14642270Y-14072894D02*
X14623222Y-14072894D01*
X14623222Y-14072894D02*
X14604175Y-14063370D01*
X14604175Y-14063370D02*
X14594651Y-14053846D01*
X14594651Y-14053846D02*
X14585127Y-14034799D01*
X14585127Y-14034799D02*
X14575603Y-13996704D01*
X14575603Y-13996704D02*
X14575603Y-13949085D01*
X14575603Y-13949085D02*
X14585127Y-13910989D01*
X14585127Y-13910989D02*
X14594651Y-13891942D01*
X14594651Y-13891942D02*
X14604175Y-13882418D01*
X14604175Y-13882418D02*
X14623222Y-13872894D01*
X14804175Y-13958608D02*
X14785127Y-13949085D01*
X14785127Y-13949085D02*
X14775603Y-13939561D01*
X14775603Y-13939561D02*
X14766080Y-13920513D01*
X14766080Y-13920513D02*
X14766080Y-13910989D01*
X14766080Y-13910989D02*
X14775603Y-13891942D01*
X14775603Y-13891942D02*
X14785127Y-13882418D01*
X14785127Y-13882418D02*
X14804175Y-13872894D01*
X14804175Y-13872894D02*
X14842270Y-13872894D01*
X14842270Y-13872894D02*
X14861318Y-13882418D01*
X14861318Y-13882418D02*
X14870841Y-13891942D01*
X14870841Y-13891942D02*
X14880365Y-13910989D01*
X14880365Y-13910989D02*
X14880365Y-13920513D01*
X14880365Y-13920513D02*
X14870841Y-13939561D01*
X14870841Y-13939561D02*
X14861318Y-13949085D01*
X14861318Y-13949085D02*
X14842270Y-13958608D01*
X14842270Y-13958608D02*
X14804175Y-13958608D01*
X14804175Y-13958608D02*
X14785127Y-13968132D01*
X14785127Y-13968132D02*
X14775603Y-13977656D01*
X14775603Y-13977656D02*
X14766080Y-13996704D01*
X14766080Y-13996704D02*
X14766080Y-14034799D01*
X14766080Y-14034799D02*
X14775603Y-14053846D01*
X14775603Y-14053846D02*
X14785127Y-14063370D01*
X14785127Y-14063370D02*
X14804175Y-14072894D01*
X14804175Y-14072894D02*
X14842270Y-14072894D01*
X14842270Y-14072894D02*
X14861318Y-14063370D01*
X14861318Y-14063370D02*
X14870841Y-14053846D01*
X14870841Y-14053846D02*
X14880365Y-14034799D01*
X14880365Y-14034799D02*
X14880365Y-13996704D01*
X14880365Y-13996704D02*
X14870841Y-13977656D01*
X14870841Y-13977656D02*
X14861318Y-13968132D01*
X14861318Y-13968132D02*
X14842270Y-13958608D01*
X15051794Y-13872894D02*
X15013699Y-13872894D01*
X15013699Y-13872894D02*
X14994651Y-13882418D01*
X14994651Y-13882418D02*
X14985127Y-13891942D01*
X14985127Y-13891942D02*
X14966080Y-13920513D01*
X14966080Y-13920513D02*
X14956556Y-13958608D01*
X14956556Y-13958608D02*
X14956556Y-14034799D01*
X14956556Y-14034799D02*
X14966080Y-14053846D01*
X14966080Y-14053846D02*
X14975603Y-14063370D01*
X14975603Y-14063370D02*
X14994651Y-14072894D01*
X14994651Y-14072894D02*
X15032746Y-14072894D01*
X15032746Y-14072894D02*
X15051794Y-14063370D01*
X15051794Y-14063370D02*
X15061318Y-14053846D01*
X15061318Y-14053846D02*
X15070841Y-14034799D01*
X15070841Y-14034799D02*
X15070841Y-13987180D01*
X15070841Y-13987180D02*
X15061318Y-13968132D01*
X15061318Y-13968132D02*
X15051794Y-13958608D01*
X15051794Y-13958608D02*
X15032746Y-13949085D01*
X15032746Y-13949085D02*
X14994651Y-13949085D01*
X14994651Y-13949085D02*
X14975603Y-13958608D01*
X14975603Y-13958608D02*
X14966080Y-13968132D01*
X14966080Y-13968132D02*
X14956556Y-13987180D01*
X15242270Y-13872894D02*
X15204175Y-13872894D01*
X15204175Y-13872894D02*
X15185127Y-13882418D01*
X15185127Y-13882418D02*
X15175603Y-13891942D01*
X15175603Y-13891942D02*
X15156556Y-13920513D01*
X15156556Y-13920513D02*
X15147032Y-13958608D01*
X15147032Y-13958608D02*
X15147032Y-14034799D01*
X15147032Y-14034799D02*
X15156556Y-14053846D01*
X15156556Y-14053846D02*
X15166080Y-14063370D01*
X15166080Y-14063370D02*
X15185127Y-14072894D01*
X15185127Y-14072894D02*
X15223222Y-14072894D01*
X15223222Y-14072894D02*
X15242270Y-14063370D01*
X15242270Y-14063370D02*
X15251794Y-14053846D01*
X15251794Y-14053846D02*
X15261318Y-14034799D01*
X15261318Y-14034799D02*
X15261318Y-13987180D01*
X15261318Y-13987180D02*
X15251794Y-13968132D01*
X15251794Y-13968132D02*
X15242270Y-13958608D01*
X15242270Y-13958608D02*
X15223222Y-13949085D01*
X15223222Y-13949085D02*
X15185127Y-13949085D01*
X15185127Y-13949085D02*
X15166080Y-13958608D01*
X15166080Y-13958608D02*
X15156556Y-13968132D01*
X15156556Y-13968132D02*
X15147032Y-13987180D01*
X15337508Y-13872894D02*
X15337508Y-13910989D01*
X15413699Y-13872894D02*
X15413699Y-13910989D01*
X15708937Y-14149085D02*
X15699413Y-14139561D01*
X15699413Y-14139561D02*
X15680365Y-14110989D01*
X15680365Y-14110989D02*
X15670842Y-14091942D01*
X15670842Y-14091942D02*
X15661318Y-14063370D01*
X15661318Y-14063370D02*
X15651794Y-14015751D01*
X15651794Y-14015751D02*
X15651794Y-13977656D01*
X15651794Y-13977656D02*
X15661318Y-13930037D01*
X15661318Y-13930037D02*
X15670842Y-13901466D01*
X15670842Y-13901466D02*
X15680365Y-13882418D01*
X15680365Y-13882418D02*
X15699413Y-13853846D01*
X15699413Y-13853846D02*
X15708937Y-13844323D01*
X15870842Y-13939561D02*
X15870842Y-14072894D01*
X15823222Y-13863370D02*
X15775603Y-14006227D01*
X15775603Y-14006227D02*
X15899413Y-14006227D01*
X16127984Y-14072894D02*
X16127984Y-13872894D01*
X16213699Y-14072894D02*
X16213699Y-13968132D01*
X16213699Y-13968132D02*
X16204175Y-13949085D01*
X16204175Y-13949085D02*
X16185127Y-13939561D01*
X16185127Y-13939561D02*
X16156556Y-13939561D01*
X16156556Y-13939561D02*
X16137508Y-13949085D01*
X16137508Y-13949085D02*
X16127984Y-13958608D01*
X16337508Y-14072894D02*
X16318461Y-14063370D01*
X16318461Y-14063370D02*
X16308937Y-14053846D01*
X16308937Y-14053846D02*
X16299413Y-14034799D01*
X16299413Y-14034799D02*
X16299413Y-13977656D01*
X16299413Y-13977656D02*
X16308937Y-13958608D01*
X16308937Y-13958608D02*
X16318461Y-13949085D01*
X16318461Y-13949085D02*
X16337508Y-13939561D01*
X16337508Y-13939561D02*
X16366080Y-13939561D01*
X16366080Y-13939561D02*
X16385127Y-13949085D01*
X16385127Y-13949085D02*
X16394651Y-13958608D01*
X16394651Y-13958608D02*
X16404175Y-13977656D01*
X16404175Y-13977656D02*
X16404175Y-14034799D01*
X16404175Y-14034799D02*
X16394651Y-14053846D01*
X16394651Y-14053846D02*
X16385127Y-14063370D01*
X16385127Y-14063370D02*
X16366080Y-14072894D01*
X16366080Y-14072894D02*
X16337508Y-14072894D01*
X16518461Y-14072894D02*
X16499413Y-14063370D01*
X16499413Y-14063370D02*
X16489889Y-14044323D01*
X16489889Y-14044323D02*
X16489889Y-13872894D01*
X16670842Y-14063370D02*
X16651794Y-14072894D01*
X16651794Y-14072894D02*
X16613699Y-14072894D01*
X16613699Y-14072894D02*
X16594651Y-14063370D01*
X16594651Y-14063370D02*
X16585127Y-14044323D01*
X16585127Y-14044323D02*
X16585127Y-13968132D01*
X16585127Y-13968132D02*
X16594651Y-13949085D01*
X16594651Y-13949085D02*
X16613699Y-13939561D01*
X16613699Y-13939561D02*
X16651794Y-13939561D01*
X16651794Y-13939561D02*
X16670842Y-13949085D01*
X16670842Y-13949085D02*
X16680365Y-13968132D01*
X16680365Y-13968132D02*
X16680365Y-13987180D01*
X16680365Y-13987180D02*
X16585127Y-14006227D01*
X16756556Y-14063370D02*
X16775604Y-14072894D01*
X16775604Y-14072894D02*
X16813699Y-14072894D01*
X16813699Y-14072894D02*
X16832747Y-14063370D01*
X16832747Y-14063370D02*
X16842270Y-14044323D01*
X16842270Y-14044323D02*
X16842270Y-14034799D01*
X16842270Y-14034799D02*
X16832747Y-14015751D01*
X16832747Y-14015751D02*
X16813699Y-14006227D01*
X16813699Y-14006227D02*
X16785127Y-14006227D01*
X16785127Y-14006227D02*
X16766080Y-13996704D01*
X16766080Y-13996704D02*
X16756556Y-13977656D01*
X16756556Y-13977656D02*
X16756556Y-13968132D01*
X16756556Y-13968132D02*
X16766080Y-13949085D01*
X16766080Y-13949085D02*
X16785127Y-13939561D01*
X16785127Y-13939561D02*
X16813699Y-13939561D01*
X16813699Y-13939561D02*
X16832747Y-13949085D01*
X16908937Y-14149085D02*
X16918461Y-14139561D01*
X16918461Y-14139561D02*
X16937508Y-14110989D01*
X16937508Y-14110989D02*
X16947032Y-14091942D01*
X16947032Y-14091942D02*
X16956556Y-14063370D01*
X16956556Y-14063370D02*
X16966080Y-14015751D01*
X16966080Y-14015751D02*
X16966080Y-13977656D01*
X16966080Y-13977656D02*
X16956556Y-13930037D01*
X16956556Y-13930037D02*
X16947032Y-13901466D01*
X16947032Y-13901466D02*
X16937508Y-13882418D01*
X16937508Y-13882418D02*
X16918461Y-13853846D01*
X16918461Y-13853846D02*
X16908937Y-13844323D01*
X17270842Y-14149085D02*
X17261318Y-14139561D01*
X17261318Y-14139561D02*
X17242270Y-14110989D01*
X17242270Y-14110989D02*
X17232747Y-14091942D01*
X17232747Y-14091942D02*
X17223223Y-14063370D01*
X17223223Y-14063370D02*
X17213699Y-14015751D01*
X17213699Y-14015751D02*
X17213699Y-13977656D01*
X17213699Y-13977656D02*
X17223223Y-13930037D01*
X17223223Y-13930037D02*
X17232747Y-13901466D01*
X17232747Y-13901466D02*
X17242270Y-13882418D01*
X17242270Y-13882418D02*
X17261318Y-13853846D01*
X17261318Y-13853846D02*
X17270842Y-13844323D01*
X17347032Y-13939561D02*
X17347032Y-14072894D01*
X17347032Y-13958608D02*
X17356556Y-13949085D01*
X17356556Y-13949085D02*
X17375604Y-13939561D01*
X17375604Y-13939561D02*
X17404175Y-13939561D01*
X17404175Y-13939561D02*
X17423223Y-13949085D01*
X17423223Y-13949085D02*
X17432747Y-13968132D01*
X17432747Y-13968132D02*
X17432747Y-14072894D01*
X17556556Y-14072894D02*
X17537508Y-14063370D01*
X17537508Y-14063370D02*
X17527985Y-14053846D01*
X17527985Y-14053846D02*
X17518461Y-14034799D01*
X17518461Y-14034799D02*
X17518461Y-13977656D01*
X17518461Y-13977656D02*
X17527985Y-13958608D01*
X17527985Y-13958608D02*
X17537508Y-13949085D01*
X17537508Y-13949085D02*
X17556556Y-13939561D01*
X17556556Y-13939561D02*
X17585128Y-13939561D01*
X17585128Y-13939561D02*
X17604175Y-13949085D01*
X17604175Y-13949085D02*
X17613699Y-13958608D01*
X17613699Y-13958608D02*
X17623223Y-13977656D01*
X17623223Y-13977656D02*
X17623223Y-14034799D01*
X17623223Y-14034799D02*
X17613699Y-14053846D01*
X17613699Y-14053846D02*
X17604175Y-14063370D01*
X17604175Y-14063370D02*
X17585128Y-14072894D01*
X17585128Y-14072894D02*
X17556556Y-14072894D01*
X17680366Y-13939561D02*
X17756556Y-13939561D01*
X17708937Y-13872894D02*
X17708937Y-14044323D01*
X17708937Y-14044323D02*
X17718461Y-14063370D01*
X17718461Y-14063370D02*
X17737508Y-14072894D01*
X17737508Y-14072894D02*
X17756556Y-14072894D01*
X17975604Y-13939561D02*
X17975604Y-14139561D01*
X17975604Y-13949085D02*
X17994651Y-13939561D01*
X17994651Y-13939561D02*
X18032747Y-13939561D01*
X18032747Y-13939561D02*
X18051794Y-13949085D01*
X18051794Y-13949085D02*
X18061318Y-13958608D01*
X18061318Y-13958608D02*
X18070842Y-13977656D01*
X18070842Y-13977656D02*
X18070842Y-14034799D01*
X18070842Y-14034799D02*
X18061318Y-14053846D01*
X18061318Y-14053846D02*
X18051794Y-14063370D01*
X18051794Y-14063370D02*
X18032747Y-14072894D01*
X18032747Y-14072894D02*
X17994651Y-14072894D01*
X17994651Y-14072894D02*
X17975604Y-14063370D01*
X18185128Y-14072894D02*
X18166080Y-14063370D01*
X18166080Y-14063370D02*
X18156556Y-14044323D01*
X18156556Y-14044323D02*
X18156556Y-13872894D01*
X18347032Y-14072894D02*
X18347032Y-13968132D01*
X18347032Y-13968132D02*
X18337509Y-13949085D01*
X18337509Y-13949085D02*
X18318461Y-13939561D01*
X18318461Y-13939561D02*
X18280366Y-13939561D01*
X18280366Y-13939561D02*
X18261318Y-13949085D01*
X18347032Y-14063370D02*
X18327985Y-14072894D01*
X18327985Y-14072894D02*
X18280366Y-14072894D01*
X18280366Y-14072894D02*
X18261318Y-14063370D01*
X18261318Y-14063370D02*
X18251794Y-14044323D01*
X18251794Y-14044323D02*
X18251794Y-14025275D01*
X18251794Y-14025275D02*
X18261318Y-14006227D01*
X18261318Y-14006227D02*
X18280366Y-13996704D01*
X18280366Y-13996704D02*
X18327985Y-13996704D01*
X18327985Y-13996704D02*
X18347032Y-13987180D01*
X18413699Y-13939561D02*
X18489889Y-13939561D01*
X18442270Y-13872894D02*
X18442270Y-14044323D01*
X18442270Y-14044323D02*
X18451794Y-14063370D01*
X18451794Y-14063370D02*
X18470842Y-14072894D01*
X18470842Y-14072894D02*
X18489889Y-14072894D01*
X18632747Y-14063370D02*
X18613699Y-14072894D01*
X18613699Y-14072894D02*
X18575604Y-14072894D01*
X18575604Y-14072894D02*
X18556556Y-14063370D01*
X18556556Y-14063370D02*
X18547032Y-14044323D01*
X18547032Y-14044323D02*
X18547032Y-13968132D01*
X18547032Y-13968132D02*
X18556556Y-13949085D01*
X18556556Y-13949085D02*
X18575604Y-13939561D01*
X18575604Y-13939561D02*
X18613699Y-13939561D01*
X18613699Y-13939561D02*
X18632747Y-13949085D01*
X18632747Y-13949085D02*
X18642270Y-13968132D01*
X18642270Y-13968132D02*
X18642270Y-13987180D01*
X18642270Y-13987180D02*
X18547032Y-14006227D01*
X18813699Y-14072894D02*
X18813699Y-13872894D01*
X18813699Y-14063370D02*
X18794651Y-14072894D01*
X18794651Y-14072894D02*
X18756556Y-14072894D01*
X18756556Y-14072894D02*
X18737509Y-14063370D01*
X18737509Y-14063370D02*
X18727985Y-14053846D01*
X18727985Y-14053846D02*
X18718461Y-14034799D01*
X18718461Y-14034799D02*
X18718461Y-13977656D01*
X18718461Y-13977656D02*
X18727985Y-13958608D01*
X18727985Y-13958608D02*
X18737509Y-13949085D01*
X18737509Y-13949085D02*
X18756556Y-13939561D01*
X18756556Y-13939561D02*
X18794651Y-13939561D01*
X18794651Y-13939561D02*
X18813699Y-13949085D01*
X18889890Y-14149085D02*
X18899413Y-14139561D01*
X18899413Y-14139561D02*
X18918461Y-14110989D01*
X18918461Y-14110989D02*
X18927985Y-14091942D01*
X18927985Y-14091942D02*
X18937509Y-14063370D01*
X18937509Y-14063370D02*
X18947032Y-14015751D01*
X18947032Y-14015751D02*
X18947032Y-13977656D01*
X18947032Y-13977656D02*
X18937509Y-13930037D01*
X18937509Y-13930037D02*
X18927985Y-13901466D01*
X18927985Y-13901466D02*
X18918461Y-13882418D01*
X18918461Y-13882418D02*
X18899413Y-13853846D01*
X18899413Y-13853846D02*
X18889890Y-13844323D01*
M02*
