G04 #@! TF.GenerationSoftware,KiCad,Pcbnew,8.0.4*
G04 #@! TF.CreationDate,2025-10-09T01:10:06-07:00*
G04 #@! TF.ProjectId,ARES_FC,41524553-5f46-4432-9e6b-696361645f70,rev?*
G04 #@! TF.SameCoordinates,Original*
G04 #@! TF.FileFunction,Legend,Top*
G04 #@! TF.FilePolarity,Positive*
%FSLAX46Y46*%
G04 Gerber Fmt 4.6, Leading zero omitted, Abs format (unit mm)*
G04 Created by KiCad (PCBNEW 8.0.4) date 2025-10-09 01:10:06*
%MOMM*%
%LPD*%
G01*
G04 APERTURE LIST*
G04 Aperture macros list*
%AMRoundRect*
0 Rectangle with rounded corners*
0 $1 Rounding radius*
0 $2 $3 $4 $5 $6 $7 $8 $9 X,Y pos of 4 corners*
0 Add a 4 corners polygon primitive as box body*
4,1,4,$2,$3,$4,$5,$6,$7,$8,$9,$2,$3,0*
0 Add four circle primitives for the rounded corners*
1,1,$1+$1,$2,$3*
1,1,$1+$1,$4,$5*
1,1,$1+$1,$6,$7*
1,1,$1+$1,$8,$9*
0 Add four rect primitives between the rounded corners*
20,1,$1+$1,$2,$3,$4,$5,0*
20,1,$1+$1,$4,$5,$6,$7,0*
20,1,$1+$1,$6,$7,$8,$9,0*
20,1,$1+$1,$8,$9,$2,$3,0*%
G04 Aperture macros list end*
%ADD10C,0.125000*%
%ADD11C,0.150000*%
%ADD12C,0.120000*%
%ADD13C,0.127000*%
%ADD14C,0.200000*%
%ADD15C,0.010000*%
%ADD16R,2.500000X2.500000*%
%ADD17RoundRect,0.140000X0.170000X-0.140000X0.170000X0.140000X-0.170000X0.140000X-0.170000X-0.140000X0*%
%ADD18C,2.200000*%
%ADD19RoundRect,0.140000X0.140000X0.170000X-0.140000X0.170000X-0.140000X-0.170000X0.140000X-0.170000X0*%
%ADD20RoundRect,0.135000X0.185000X-0.135000X0.185000X0.135000X-0.185000X0.135000X-0.185000X-0.135000X0*%
%ADD21R,1.000000X1.000000*%
%ADD22R,1.050000X2.200000*%
%ADD23R,0.500000X0.350000*%
%ADD24RoundRect,0.218750X0.256250X-0.218750X0.256250X0.218750X-0.256250X0.218750X-0.256250X-0.218750X0*%
%ADD25RoundRect,0.140000X-0.170000X0.140000X-0.170000X-0.140000X0.170000X-0.140000X0.170000X0.140000X0*%
%ADD26C,0.600000*%
%ADD27R,1.200000X1.400000*%
%ADD28RoundRect,0.140000X-0.140000X-0.170000X0.140000X-0.170000X0.140000X0.170000X-0.140000X0.170000X0*%
%ADD29RoundRect,0.135000X-0.185000X0.135000X-0.185000X-0.135000X0.185000X-0.135000X0.185000X0.135000X0*%
%ADD30RoundRect,0.150000X-0.150000X0.650000X-0.150000X-0.650000X0.150000X-0.650000X0.150000X0.650000X0*%
%ADD31R,0.400000X1.000000*%
%ADD32R,2.000000X1.300000*%
%ADD33RoundRect,0.250000X0.475000X-0.250000X0.475000X0.250000X-0.475000X0.250000X-0.475000X-0.250000X0*%
%ADD34RoundRect,0.135000X-0.135000X-0.185000X0.135000X-0.185000X0.135000X0.185000X-0.135000X0.185000X0*%
%ADD35C,1.210000*%
%ADD36RoundRect,0.150500X-0.951500X-0.451500X0.951500X-0.451500X0.951500X0.451500X-0.951500X0.451500X0*%
%ADD37RoundRect,0.150000X-0.150000X-0.625000X0.150000X-0.625000X0.150000X0.625000X-0.150000X0.625000X0*%
%ADD38RoundRect,0.250000X-0.350000X-0.650000X0.350000X-0.650000X0.350000X0.650000X-0.350000X0.650000X0*%
%ADD39RoundRect,0.062500X-0.375000X-0.062500X0.375000X-0.062500X0.375000X0.062500X-0.375000X0.062500X0*%
%ADD40RoundRect,0.062500X-0.062500X-0.375000X0.062500X-0.375000X0.062500X0.375000X-0.062500X0.375000X0*%
%ADD41R,5.600000X5.600000*%
%ADD42R,1.000000X1.800000*%
%ADD43R,2.000000X1.500000*%
%ADD44R,2.000000X3.800000*%
%ADD45RoundRect,0.225000X-0.225000X-0.250000X0.225000X-0.250000X0.225000X0.250000X-0.225000X0.250000X0*%
%ADD46R,1.700000X1.700000*%
%ADD47O,1.700000X1.700000*%
%ADD48R,0.254000X0.675000*%
%ADD49R,0.675000X0.254000*%
%ADD50RoundRect,0.218750X-0.218750X-0.256250X0.218750X-0.256250X0.218750X0.256250X-0.218750X0.256250X0*%
G04 APERTURE END LIST*
D10*
X126476016Y-98514290D02*
X126399826Y-98476195D01*
X126399826Y-98476195D02*
X126285540Y-98476195D01*
X126285540Y-98476195D02*
X126171254Y-98514290D01*
X126171254Y-98514290D02*
X126095064Y-98590480D01*
X126095064Y-98590480D02*
X126056969Y-98666671D01*
X126056969Y-98666671D02*
X126018873Y-98819052D01*
X126018873Y-98819052D02*
X126018873Y-98933338D01*
X126018873Y-98933338D02*
X126056969Y-99085719D01*
X126056969Y-99085719D02*
X126095064Y-99161909D01*
X126095064Y-99161909D02*
X126171254Y-99238100D01*
X126171254Y-99238100D02*
X126285540Y-99276195D01*
X126285540Y-99276195D02*
X126361731Y-99276195D01*
X126361731Y-99276195D02*
X126476016Y-99238100D01*
X126476016Y-99238100D02*
X126514112Y-99200004D01*
X126514112Y-99200004D02*
X126514112Y-98933338D01*
X126514112Y-98933338D02*
X126361731Y-98933338D01*
X126856969Y-99276195D02*
X126856969Y-98476195D01*
X126856969Y-98476195D02*
X127314112Y-99276195D01*
X127314112Y-99276195D02*
X127314112Y-98476195D01*
X127695064Y-99276195D02*
X127695064Y-98476195D01*
X127695064Y-98476195D02*
X127885540Y-98476195D01*
X127885540Y-98476195D02*
X127999826Y-98514290D01*
X127999826Y-98514290D02*
X128076016Y-98590480D01*
X128076016Y-98590480D02*
X128114111Y-98666671D01*
X128114111Y-98666671D02*
X128152207Y-98819052D01*
X128152207Y-98819052D02*
X128152207Y-98933338D01*
X128152207Y-98933338D02*
X128114111Y-99085719D01*
X128114111Y-99085719D02*
X128076016Y-99161909D01*
X128076016Y-99161909D02*
X127999826Y-99238100D01*
X127999826Y-99238100D02*
X127885540Y-99276195D01*
X127885540Y-99276195D02*
X127695064Y-99276195D01*
X164591759Y-123383690D02*
X164515569Y-123345595D01*
X164515569Y-123345595D02*
X164401283Y-123345595D01*
X164401283Y-123345595D02*
X164286997Y-123383690D01*
X164286997Y-123383690D02*
X164210807Y-123459880D01*
X164210807Y-123459880D02*
X164172712Y-123536071D01*
X164172712Y-123536071D02*
X164134616Y-123688452D01*
X164134616Y-123688452D02*
X164134616Y-123802738D01*
X164134616Y-123802738D02*
X164172712Y-123955119D01*
X164172712Y-123955119D02*
X164210807Y-124031309D01*
X164210807Y-124031309D02*
X164286997Y-124107500D01*
X164286997Y-124107500D02*
X164401283Y-124145595D01*
X164401283Y-124145595D02*
X164477474Y-124145595D01*
X164477474Y-124145595D02*
X164591759Y-124107500D01*
X164591759Y-124107500D02*
X164629855Y-124069404D01*
X164629855Y-124069404D02*
X164629855Y-123802738D01*
X164629855Y-123802738D02*
X164477474Y-123802738D01*
X164972712Y-124145595D02*
X164972712Y-123345595D01*
X164972712Y-123345595D02*
X165429855Y-124145595D01*
X165429855Y-124145595D02*
X165429855Y-123345595D01*
X165810807Y-124145595D02*
X165810807Y-123345595D01*
X165810807Y-123345595D02*
X166001283Y-123345595D01*
X166001283Y-123345595D02*
X166115569Y-123383690D01*
X166115569Y-123383690D02*
X166191759Y-123459880D01*
X166191759Y-123459880D02*
X166229854Y-123536071D01*
X166229854Y-123536071D02*
X166267950Y-123688452D01*
X166267950Y-123688452D02*
X166267950Y-123802738D01*
X166267950Y-123802738D02*
X166229854Y-123955119D01*
X166229854Y-123955119D02*
X166191759Y-124031309D01*
X166191759Y-124031309D02*
X166115569Y-124107500D01*
X166115569Y-124107500D02*
X166001283Y-124145595D01*
X166001283Y-124145595D02*
X165810807Y-124145595D01*
X126025254Y-104356195D02*
X126025254Y-103556195D01*
X126025254Y-103556195D02*
X126482397Y-104356195D01*
X126482397Y-104356195D02*
X126482397Y-103556195D01*
X127320492Y-104356195D02*
X127053825Y-103975242D01*
X126863349Y-104356195D02*
X126863349Y-103556195D01*
X126863349Y-103556195D02*
X127168111Y-103556195D01*
X127168111Y-103556195D02*
X127244301Y-103594290D01*
X127244301Y-103594290D02*
X127282396Y-103632385D01*
X127282396Y-103632385D02*
X127320492Y-103708576D01*
X127320492Y-103708576D02*
X127320492Y-103822861D01*
X127320492Y-103822861D02*
X127282396Y-103899052D01*
X127282396Y-103899052D02*
X127244301Y-103937147D01*
X127244301Y-103937147D02*
X127168111Y-103975242D01*
X127168111Y-103975242D02*
X126863349Y-103975242D01*
X127625253Y-104318100D02*
X127739539Y-104356195D01*
X127739539Y-104356195D02*
X127930015Y-104356195D01*
X127930015Y-104356195D02*
X128006206Y-104318100D01*
X128006206Y-104318100D02*
X128044301Y-104280004D01*
X128044301Y-104280004D02*
X128082396Y-104203814D01*
X128082396Y-104203814D02*
X128082396Y-104127623D01*
X128082396Y-104127623D02*
X128044301Y-104051433D01*
X128044301Y-104051433D02*
X128006206Y-104013338D01*
X128006206Y-104013338D02*
X127930015Y-103975242D01*
X127930015Y-103975242D02*
X127777634Y-103937147D01*
X127777634Y-103937147D02*
X127701444Y-103899052D01*
X127701444Y-103899052D02*
X127663349Y-103860957D01*
X127663349Y-103860957D02*
X127625253Y-103784766D01*
X127625253Y-103784766D02*
X127625253Y-103708576D01*
X127625253Y-103708576D02*
X127663349Y-103632385D01*
X127663349Y-103632385D02*
X127701444Y-103594290D01*
X127701444Y-103594290D02*
X127777634Y-103556195D01*
X127777634Y-103556195D02*
X127968111Y-103556195D01*
X127968111Y-103556195D02*
X128082396Y-103594290D01*
X128310968Y-103556195D02*
X128768111Y-103556195D01*
X128539539Y-104356195D02*
X128539539Y-103556195D01*
D11*
X145043922Y-79219819D02*
X145615350Y-79219819D01*
X145329636Y-80219819D02*
X145329636Y-79219819D01*
X146139160Y-79219819D02*
X146329636Y-79219819D01*
X146329636Y-79219819D02*
X146424874Y-79267438D01*
X146424874Y-79267438D02*
X146520112Y-79362676D01*
X146520112Y-79362676D02*
X146567731Y-79553152D01*
X146567731Y-79553152D02*
X146567731Y-79886485D01*
X146567731Y-79886485D02*
X146520112Y-80076961D01*
X146520112Y-80076961D02*
X146424874Y-80172200D01*
X146424874Y-80172200D02*
X146329636Y-80219819D01*
X146329636Y-80219819D02*
X146139160Y-80219819D01*
X146139160Y-80219819D02*
X146043922Y-80172200D01*
X146043922Y-80172200D02*
X145948684Y-80076961D01*
X145948684Y-80076961D02*
X145901065Y-79886485D01*
X145901065Y-79886485D02*
X145901065Y-79553152D01*
X145901065Y-79553152D02*
X145948684Y-79362676D01*
X145948684Y-79362676D02*
X146043922Y-79267438D01*
X146043922Y-79267438D02*
X146139160Y-79219819D01*
X148329636Y-80219819D02*
X147996303Y-79743628D01*
X147758208Y-80219819D02*
X147758208Y-79219819D01*
X147758208Y-79219819D02*
X148139160Y-79219819D01*
X148139160Y-79219819D02*
X148234398Y-79267438D01*
X148234398Y-79267438D02*
X148282017Y-79315057D01*
X148282017Y-79315057D02*
X148329636Y-79410295D01*
X148329636Y-79410295D02*
X148329636Y-79553152D01*
X148329636Y-79553152D02*
X148282017Y-79648390D01*
X148282017Y-79648390D02*
X148234398Y-79696009D01*
X148234398Y-79696009D02*
X148139160Y-79743628D01*
X148139160Y-79743628D02*
X147758208Y-79743628D01*
X149091541Y-79696009D02*
X148758208Y-79696009D01*
X148758208Y-80219819D02*
X148758208Y-79219819D01*
X148758208Y-79219819D02*
X149234398Y-79219819D01*
X150710589Y-79696009D02*
X150853446Y-79743628D01*
X150853446Y-79743628D02*
X150901065Y-79791247D01*
X150901065Y-79791247D02*
X150948684Y-79886485D01*
X150948684Y-79886485D02*
X150948684Y-80029342D01*
X150948684Y-80029342D02*
X150901065Y-80124580D01*
X150901065Y-80124580D02*
X150853446Y-80172200D01*
X150853446Y-80172200D02*
X150758208Y-80219819D01*
X150758208Y-80219819D02*
X150377256Y-80219819D01*
X150377256Y-80219819D02*
X150377256Y-79219819D01*
X150377256Y-79219819D02*
X150710589Y-79219819D01*
X150710589Y-79219819D02*
X150805827Y-79267438D01*
X150805827Y-79267438D02*
X150853446Y-79315057D01*
X150853446Y-79315057D02*
X150901065Y-79410295D01*
X150901065Y-79410295D02*
X150901065Y-79505533D01*
X150901065Y-79505533D02*
X150853446Y-79600771D01*
X150853446Y-79600771D02*
X150805827Y-79648390D01*
X150805827Y-79648390D02*
X150710589Y-79696009D01*
X150710589Y-79696009D02*
X150377256Y-79696009D01*
X151567732Y-79219819D02*
X151758208Y-79219819D01*
X151758208Y-79219819D02*
X151853446Y-79267438D01*
X151853446Y-79267438D02*
X151948684Y-79362676D01*
X151948684Y-79362676D02*
X151996303Y-79553152D01*
X151996303Y-79553152D02*
X151996303Y-79886485D01*
X151996303Y-79886485D02*
X151948684Y-80076961D01*
X151948684Y-80076961D02*
X151853446Y-80172200D01*
X151853446Y-80172200D02*
X151758208Y-80219819D01*
X151758208Y-80219819D02*
X151567732Y-80219819D01*
X151567732Y-80219819D02*
X151472494Y-80172200D01*
X151472494Y-80172200D02*
X151377256Y-80076961D01*
X151377256Y-80076961D02*
X151329637Y-79886485D01*
X151329637Y-79886485D02*
X151329637Y-79553152D01*
X151329637Y-79553152D02*
X151377256Y-79362676D01*
X151377256Y-79362676D02*
X151472494Y-79267438D01*
X151472494Y-79267438D02*
X151567732Y-79219819D01*
X152377256Y-79934104D02*
X152853446Y-79934104D01*
X152282018Y-80219819D02*
X152615351Y-79219819D01*
X152615351Y-79219819D02*
X152948684Y-80219819D01*
X153853446Y-80219819D02*
X153520113Y-79743628D01*
X153282018Y-80219819D02*
X153282018Y-79219819D01*
X153282018Y-79219819D02*
X153662970Y-79219819D01*
X153662970Y-79219819D02*
X153758208Y-79267438D01*
X153758208Y-79267438D02*
X153805827Y-79315057D01*
X153805827Y-79315057D02*
X153853446Y-79410295D01*
X153853446Y-79410295D02*
X153853446Y-79553152D01*
X153853446Y-79553152D02*
X153805827Y-79648390D01*
X153805827Y-79648390D02*
X153758208Y-79696009D01*
X153758208Y-79696009D02*
X153662970Y-79743628D01*
X153662970Y-79743628D02*
X153282018Y-79743628D01*
X154282018Y-80219819D02*
X154282018Y-79219819D01*
X154282018Y-79219819D02*
X154520113Y-79219819D01*
X154520113Y-79219819D02*
X154662970Y-79267438D01*
X154662970Y-79267438D02*
X154758208Y-79362676D01*
X154758208Y-79362676D02*
X154805827Y-79457914D01*
X154805827Y-79457914D02*
X154853446Y-79648390D01*
X154853446Y-79648390D02*
X154853446Y-79791247D01*
X154853446Y-79791247D02*
X154805827Y-79981723D01*
X154805827Y-79981723D02*
X154758208Y-80076961D01*
X154758208Y-80076961D02*
X154662970Y-80172200D01*
X154662970Y-80172200D02*
X154520113Y-80219819D01*
X154520113Y-80219819D02*
X154282018Y-80219819D01*
X163072017Y-106064216D02*
X163505350Y-106064216D01*
X162985350Y-106349931D02*
X163288684Y-105349931D01*
X163288684Y-105349931D02*
X163592017Y-106349931D01*
X164415350Y-106349931D02*
X164112017Y-105873740D01*
X163895350Y-106349931D02*
X163895350Y-105349931D01*
X163895350Y-105349931D02*
X164242017Y-105349931D01*
X164242017Y-105349931D02*
X164328684Y-105397550D01*
X164328684Y-105397550D02*
X164372017Y-105445169D01*
X164372017Y-105445169D02*
X164415350Y-105540407D01*
X164415350Y-105540407D02*
X164415350Y-105683264D01*
X164415350Y-105683264D02*
X164372017Y-105778502D01*
X164372017Y-105778502D02*
X164328684Y-105826121D01*
X164328684Y-105826121D02*
X164242017Y-105873740D01*
X164242017Y-105873740D02*
X163895350Y-105873740D01*
X164805350Y-105826121D02*
X165108684Y-105826121D01*
X165238684Y-106349931D02*
X164805350Y-106349931D01*
X164805350Y-106349931D02*
X164805350Y-105349931D01*
X164805350Y-105349931D02*
X165238684Y-105349931D01*
X165585350Y-106302312D02*
X165715350Y-106349931D01*
X165715350Y-106349931D02*
X165932017Y-106349931D01*
X165932017Y-106349931D02*
X166018683Y-106302312D01*
X166018683Y-106302312D02*
X166062017Y-106254692D01*
X166062017Y-106254692D02*
X166105350Y-106159454D01*
X166105350Y-106159454D02*
X166105350Y-106064216D01*
X166105350Y-106064216D02*
X166062017Y-105968978D01*
X166062017Y-105968978D02*
X166018683Y-105921359D01*
X166018683Y-105921359D02*
X165932017Y-105873740D01*
X165932017Y-105873740D02*
X165758683Y-105826121D01*
X165758683Y-105826121D02*
X165672017Y-105778502D01*
X165672017Y-105778502D02*
X165628683Y-105730883D01*
X165628683Y-105730883D02*
X165585350Y-105635645D01*
X165585350Y-105635645D02*
X165585350Y-105540407D01*
X165585350Y-105540407D02*
X165628683Y-105445169D01*
X165628683Y-105445169D02*
X165672017Y-105397550D01*
X165672017Y-105397550D02*
X165758683Y-105349931D01*
X165758683Y-105349931D02*
X165975350Y-105349931D01*
X165975350Y-105349931D02*
X166105350Y-105397550D01*
X167492017Y-105826121D02*
X167188683Y-105826121D01*
X167188683Y-106349931D02*
X167188683Y-105349931D01*
X167188683Y-105349931D02*
X167622017Y-105349931D01*
X168098683Y-106349931D02*
X168012017Y-106302312D01*
X168012017Y-106302312D02*
X167968683Y-106207073D01*
X167968683Y-106207073D02*
X167968683Y-105349931D01*
X168445350Y-106349931D02*
X168445350Y-105683264D01*
X168445350Y-105349931D02*
X168402017Y-105397550D01*
X168402017Y-105397550D02*
X168445350Y-105445169D01*
X168445350Y-105445169D02*
X168488684Y-105397550D01*
X168488684Y-105397550D02*
X168445350Y-105349931D01*
X168445350Y-105349931D02*
X168445350Y-105445169D01*
X169268683Y-105683264D02*
X169268683Y-106492788D01*
X169268683Y-106492788D02*
X169225350Y-106588026D01*
X169225350Y-106588026D02*
X169182017Y-106635645D01*
X169182017Y-106635645D02*
X169095350Y-106683264D01*
X169095350Y-106683264D02*
X168965350Y-106683264D01*
X168965350Y-106683264D02*
X168878683Y-106635645D01*
X169268683Y-106302312D02*
X169182017Y-106349931D01*
X169182017Y-106349931D02*
X169008683Y-106349931D01*
X169008683Y-106349931D02*
X168922017Y-106302312D01*
X168922017Y-106302312D02*
X168878683Y-106254692D01*
X168878683Y-106254692D02*
X168835350Y-106159454D01*
X168835350Y-106159454D02*
X168835350Y-105873740D01*
X168835350Y-105873740D02*
X168878683Y-105778502D01*
X168878683Y-105778502D02*
X168922017Y-105730883D01*
X168922017Y-105730883D02*
X169008683Y-105683264D01*
X169008683Y-105683264D02*
X169182017Y-105683264D01*
X169182017Y-105683264D02*
X169268683Y-105730883D01*
X169702016Y-106349931D02*
X169702016Y-105349931D01*
X170092016Y-106349931D02*
X170092016Y-105826121D01*
X170092016Y-105826121D02*
X170048683Y-105730883D01*
X170048683Y-105730883D02*
X169962016Y-105683264D01*
X169962016Y-105683264D02*
X169832016Y-105683264D01*
X169832016Y-105683264D02*
X169745350Y-105730883D01*
X169745350Y-105730883D02*
X169702016Y-105778502D01*
X170395349Y-105683264D02*
X170742016Y-105683264D01*
X170525349Y-105349931D02*
X170525349Y-106207073D01*
X170525349Y-106207073D02*
X170568683Y-106302312D01*
X170568683Y-106302312D02*
X170655349Y-106349931D01*
X170655349Y-106349931D02*
X170742016Y-106349931D01*
X172258682Y-106254692D02*
X172215349Y-106302312D01*
X172215349Y-106302312D02*
X172085349Y-106349931D01*
X172085349Y-106349931D02*
X171998682Y-106349931D01*
X171998682Y-106349931D02*
X171868682Y-106302312D01*
X171868682Y-106302312D02*
X171782016Y-106207073D01*
X171782016Y-106207073D02*
X171738682Y-106111835D01*
X171738682Y-106111835D02*
X171695349Y-105921359D01*
X171695349Y-105921359D02*
X171695349Y-105778502D01*
X171695349Y-105778502D02*
X171738682Y-105588026D01*
X171738682Y-105588026D02*
X171782016Y-105492788D01*
X171782016Y-105492788D02*
X171868682Y-105397550D01*
X171868682Y-105397550D02*
X171998682Y-105349931D01*
X171998682Y-105349931D02*
X172085349Y-105349931D01*
X172085349Y-105349931D02*
X172215349Y-105397550D01*
X172215349Y-105397550D02*
X172258682Y-105445169D01*
X172778682Y-106349931D02*
X172692016Y-106302312D01*
X172692016Y-106302312D02*
X172648682Y-106254692D01*
X172648682Y-106254692D02*
X172605349Y-106159454D01*
X172605349Y-106159454D02*
X172605349Y-105873740D01*
X172605349Y-105873740D02*
X172648682Y-105778502D01*
X172648682Y-105778502D02*
X172692016Y-105730883D01*
X172692016Y-105730883D02*
X172778682Y-105683264D01*
X172778682Y-105683264D02*
X172908682Y-105683264D01*
X172908682Y-105683264D02*
X172995349Y-105730883D01*
X172995349Y-105730883D02*
X173038682Y-105778502D01*
X173038682Y-105778502D02*
X173082016Y-105873740D01*
X173082016Y-105873740D02*
X173082016Y-106159454D01*
X173082016Y-106159454D02*
X173038682Y-106254692D01*
X173038682Y-106254692D02*
X172995349Y-106302312D01*
X172995349Y-106302312D02*
X172908682Y-106349931D01*
X172908682Y-106349931D02*
X172778682Y-106349931D01*
X173472015Y-106349931D02*
X173472015Y-105683264D01*
X173472015Y-105778502D02*
X173515349Y-105730883D01*
X173515349Y-105730883D02*
X173602015Y-105683264D01*
X173602015Y-105683264D02*
X173732015Y-105683264D01*
X173732015Y-105683264D02*
X173818682Y-105730883D01*
X173818682Y-105730883D02*
X173862015Y-105826121D01*
X173862015Y-105826121D02*
X173862015Y-106349931D01*
X173862015Y-105826121D02*
X173905349Y-105730883D01*
X173905349Y-105730883D02*
X173992015Y-105683264D01*
X173992015Y-105683264D02*
X174122015Y-105683264D01*
X174122015Y-105683264D02*
X174208682Y-105730883D01*
X174208682Y-105730883D02*
X174252015Y-105826121D01*
X174252015Y-105826121D02*
X174252015Y-106349931D01*
X174685348Y-105683264D02*
X174685348Y-106683264D01*
X174685348Y-105730883D02*
X174772015Y-105683264D01*
X174772015Y-105683264D02*
X174945348Y-105683264D01*
X174945348Y-105683264D02*
X175032015Y-105730883D01*
X175032015Y-105730883D02*
X175075348Y-105778502D01*
X175075348Y-105778502D02*
X175118682Y-105873740D01*
X175118682Y-105873740D02*
X175118682Y-106159454D01*
X175118682Y-106159454D02*
X175075348Y-106254692D01*
X175075348Y-106254692D02*
X175032015Y-106302312D01*
X175032015Y-106302312D02*
X174945348Y-106349931D01*
X174945348Y-106349931D02*
X174772015Y-106349931D01*
X174772015Y-106349931D02*
X174685348Y-106302312D01*
X175898681Y-105683264D02*
X175898681Y-106349931D01*
X175508681Y-105683264D02*
X175508681Y-106207073D01*
X175508681Y-106207073D02*
X175552015Y-106302312D01*
X175552015Y-106302312D02*
X175638681Y-106349931D01*
X175638681Y-106349931D02*
X175768681Y-106349931D01*
X175768681Y-106349931D02*
X175855348Y-106302312D01*
X175855348Y-106302312D02*
X175898681Y-106254692D01*
X176202014Y-105683264D02*
X176548681Y-105683264D01*
X176332014Y-105349931D02*
X176332014Y-106207073D01*
X176332014Y-106207073D02*
X176375348Y-106302312D01*
X176375348Y-106302312D02*
X176462014Y-106349931D01*
X176462014Y-106349931D02*
X176548681Y-106349931D01*
X177198681Y-106302312D02*
X177112014Y-106349931D01*
X177112014Y-106349931D02*
X176938681Y-106349931D01*
X176938681Y-106349931D02*
X176852014Y-106302312D01*
X176852014Y-106302312D02*
X176808681Y-106207073D01*
X176808681Y-106207073D02*
X176808681Y-105826121D01*
X176808681Y-105826121D02*
X176852014Y-105730883D01*
X176852014Y-105730883D02*
X176938681Y-105683264D01*
X176938681Y-105683264D02*
X177112014Y-105683264D01*
X177112014Y-105683264D02*
X177198681Y-105730883D01*
X177198681Y-105730883D02*
X177242014Y-105826121D01*
X177242014Y-105826121D02*
X177242014Y-105921359D01*
X177242014Y-105921359D02*
X176808681Y-106016597D01*
X177632014Y-106349931D02*
X177632014Y-105683264D01*
X177632014Y-105873740D02*
X177675348Y-105778502D01*
X177675348Y-105778502D02*
X177718681Y-105730883D01*
X177718681Y-105730883D02*
X177805348Y-105683264D01*
X177805348Y-105683264D02*
X177892014Y-105683264D01*
X163115350Y-107959875D02*
X163115350Y-107293208D01*
X163115350Y-107483684D02*
X163158684Y-107388446D01*
X163158684Y-107388446D02*
X163202017Y-107340827D01*
X163202017Y-107340827D02*
X163288684Y-107293208D01*
X163288684Y-107293208D02*
X163375350Y-107293208D01*
X164025350Y-107912256D02*
X163938683Y-107959875D01*
X163938683Y-107959875D02*
X163765350Y-107959875D01*
X163765350Y-107959875D02*
X163678683Y-107912256D01*
X163678683Y-107912256D02*
X163635350Y-107817017D01*
X163635350Y-107817017D02*
X163635350Y-107436065D01*
X163635350Y-107436065D02*
X163678683Y-107340827D01*
X163678683Y-107340827D02*
X163765350Y-107293208D01*
X163765350Y-107293208D02*
X163938683Y-107293208D01*
X163938683Y-107293208D02*
X164025350Y-107340827D01*
X164025350Y-107340827D02*
X164068683Y-107436065D01*
X164068683Y-107436065D02*
X164068683Y-107531303D01*
X164068683Y-107531303D02*
X163635350Y-107626541D01*
X164372017Y-107293208D02*
X164588683Y-107959875D01*
X164588683Y-107959875D02*
X164805350Y-107293208D01*
X165498683Y-107912256D02*
X165412016Y-107959875D01*
X165412016Y-107959875D02*
X165238683Y-107959875D01*
X165238683Y-107959875D02*
X165152016Y-107912256D01*
X165152016Y-107912256D02*
X165108683Y-107817017D01*
X165108683Y-107817017D02*
X165108683Y-107436065D01*
X165108683Y-107436065D02*
X165152016Y-107340827D01*
X165152016Y-107340827D02*
X165238683Y-107293208D01*
X165238683Y-107293208D02*
X165412016Y-107293208D01*
X165412016Y-107293208D02*
X165498683Y-107340827D01*
X165498683Y-107340827D02*
X165542016Y-107436065D01*
X165542016Y-107436065D02*
X165542016Y-107531303D01*
X165542016Y-107531303D02*
X165108683Y-107626541D01*
X165932016Y-107959875D02*
X165932016Y-107293208D01*
X165932016Y-107483684D02*
X165975350Y-107388446D01*
X165975350Y-107388446D02*
X166018683Y-107340827D01*
X166018683Y-107340827D02*
X166105350Y-107293208D01*
X166105350Y-107293208D02*
X166192016Y-107293208D01*
X166365349Y-107293208D02*
X166712016Y-107293208D01*
X166495349Y-106959875D02*
X166495349Y-107817017D01*
X166495349Y-107817017D02*
X166538683Y-107912256D01*
X166538683Y-107912256D02*
X166625349Y-107959875D01*
X166625349Y-107959875D02*
X166712016Y-107959875D01*
X167362016Y-107912256D02*
X167275349Y-107959875D01*
X167275349Y-107959875D02*
X167102016Y-107959875D01*
X167102016Y-107959875D02*
X167015349Y-107912256D01*
X167015349Y-107912256D02*
X166972016Y-107817017D01*
X166972016Y-107817017D02*
X166972016Y-107436065D01*
X166972016Y-107436065D02*
X167015349Y-107340827D01*
X167015349Y-107340827D02*
X167102016Y-107293208D01*
X167102016Y-107293208D02*
X167275349Y-107293208D01*
X167275349Y-107293208D02*
X167362016Y-107340827D01*
X167362016Y-107340827D02*
X167405349Y-107436065D01*
X167405349Y-107436065D02*
X167405349Y-107531303D01*
X167405349Y-107531303D02*
X166972016Y-107626541D01*
X167665349Y-107293208D02*
X168012016Y-107293208D01*
X167795349Y-106959875D02*
X167795349Y-107817017D01*
X167795349Y-107817017D02*
X167838683Y-107912256D01*
X167838683Y-107912256D02*
X167925349Y-107959875D01*
X167925349Y-107959875D02*
X168012016Y-107959875D01*
X168705349Y-107293208D02*
X168705349Y-107959875D01*
X168315349Y-107293208D02*
X168315349Y-107817017D01*
X168315349Y-107817017D02*
X168358683Y-107912256D01*
X168358683Y-107912256D02*
X168445349Y-107959875D01*
X168445349Y-107959875D02*
X168575349Y-107959875D01*
X168575349Y-107959875D02*
X168662016Y-107912256D01*
X168662016Y-107912256D02*
X168705349Y-107864636D01*
X169138682Y-107959875D02*
X169138682Y-107293208D01*
X169138682Y-107483684D02*
X169182016Y-107388446D01*
X169182016Y-107388446D02*
X169225349Y-107340827D01*
X169225349Y-107340827D02*
X169312016Y-107293208D01*
X169312016Y-107293208D02*
X169398682Y-107293208D01*
X170785348Y-107959875D02*
X170785348Y-107436065D01*
X170785348Y-107436065D02*
X170742015Y-107340827D01*
X170742015Y-107340827D02*
X170655348Y-107293208D01*
X170655348Y-107293208D02*
X170482015Y-107293208D01*
X170482015Y-107293208D02*
X170395348Y-107340827D01*
X170785348Y-107912256D02*
X170698682Y-107959875D01*
X170698682Y-107959875D02*
X170482015Y-107959875D01*
X170482015Y-107959875D02*
X170395348Y-107912256D01*
X170395348Y-107912256D02*
X170352015Y-107817017D01*
X170352015Y-107817017D02*
X170352015Y-107721779D01*
X170352015Y-107721779D02*
X170395348Y-107626541D01*
X170395348Y-107626541D02*
X170482015Y-107578922D01*
X170482015Y-107578922D02*
X170698682Y-107578922D01*
X170698682Y-107578922D02*
X170785348Y-107531303D01*
X171608681Y-107959875D02*
X171608681Y-106959875D01*
X171608681Y-107912256D02*
X171522015Y-107959875D01*
X171522015Y-107959875D02*
X171348681Y-107959875D01*
X171348681Y-107959875D02*
X171262015Y-107912256D01*
X171262015Y-107912256D02*
X171218681Y-107864636D01*
X171218681Y-107864636D02*
X171175348Y-107769398D01*
X171175348Y-107769398D02*
X171175348Y-107483684D01*
X171175348Y-107483684D02*
X171218681Y-107388446D01*
X171218681Y-107388446D02*
X171262015Y-107340827D01*
X171262015Y-107340827D02*
X171348681Y-107293208D01*
X171348681Y-107293208D02*
X171522015Y-107293208D01*
X171522015Y-107293208D02*
X171608681Y-107340827D01*
X172605347Y-107293208D02*
X172952014Y-107293208D01*
X172735347Y-106959875D02*
X172735347Y-107817017D01*
X172735347Y-107817017D02*
X172778681Y-107912256D01*
X172778681Y-107912256D02*
X172865347Y-107959875D01*
X172865347Y-107959875D02*
X172952014Y-107959875D01*
X173602014Y-107912256D02*
X173515347Y-107959875D01*
X173515347Y-107959875D02*
X173342014Y-107959875D01*
X173342014Y-107959875D02*
X173255347Y-107912256D01*
X173255347Y-107912256D02*
X173212014Y-107817017D01*
X173212014Y-107817017D02*
X173212014Y-107436065D01*
X173212014Y-107436065D02*
X173255347Y-107340827D01*
X173255347Y-107340827D02*
X173342014Y-107293208D01*
X173342014Y-107293208D02*
X173515347Y-107293208D01*
X173515347Y-107293208D02*
X173602014Y-107340827D01*
X173602014Y-107340827D02*
X173645347Y-107436065D01*
X173645347Y-107436065D02*
X173645347Y-107531303D01*
X173645347Y-107531303D02*
X173212014Y-107626541D01*
X174035347Y-107959875D02*
X174035347Y-107293208D01*
X174035347Y-107483684D02*
X174078681Y-107388446D01*
X174078681Y-107388446D02*
X174122014Y-107340827D01*
X174122014Y-107340827D02*
X174208681Y-107293208D01*
X174208681Y-107293208D02*
X174295347Y-107293208D01*
X174598680Y-107959875D02*
X174598680Y-107293208D01*
X174598680Y-107483684D02*
X174642014Y-107388446D01*
X174642014Y-107388446D02*
X174685347Y-107340827D01*
X174685347Y-107340827D02*
X174772014Y-107293208D01*
X174772014Y-107293208D02*
X174858680Y-107293208D01*
X175552013Y-107959875D02*
X175552013Y-107436065D01*
X175552013Y-107436065D02*
X175508680Y-107340827D01*
X175508680Y-107340827D02*
X175422013Y-107293208D01*
X175422013Y-107293208D02*
X175248680Y-107293208D01*
X175248680Y-107293208D02*
X175162013Y-107340827D01*
X175552013Y-107912256D02*
X175465347Y-107959875D01*
X175465347Y-107959875D02*
X175248680Y-107959875D01*
X175248680Y-107959875D02*
X175162013Y-107912256D01*
X175162013Y-107912256D02*
X175118680Y-107817017D01*
X175118680Y-107817017D02*
X175118680Y-107721779D01*
X175118680Y-107721779D02*
X175162013Y-107626541D01*
X175162013Y-107626541D02*
X175248680Y-107578922D01*
X175248680Y-107578922D02*
X175465347Y-107578922D01*
X175465347Y-107578922D02*
X175552013Y-107531303D01*
X175985346Y-107959875D02*
X175985346Y-107293208D01*
X175985346Y-107388446D02*
X176028680Y-107340827D01*
X176028680Y-107340827D02*
X176115346Y-107293208D01*
X176115346Y-107293208D02*
X176245346Y-107293208D01*
X176245346Y-107293208D02*
X176332013Y-107340827D01*
X176332013Y-107340827D02*
X176375346Y-107436065D01*
X176375346Y-107436065D02*
X176375346Y-107959875D01*
X176375346Y-107436065D02*
X176418680Y-107340827D01*
X176418680Y-107340827D02*
X176505346Y-107293208D01*
X176505346Y-107293208D02*
X176635346Y-107293208D01*
X176635346Y-107293208D02*
X176722013Y-107340827D01*
X176722013Y-107340827D02*
X176765346Y-107436065D01*
X176765346Y-107436065D02*
X176765346Y-107959875D01*
X163115350Y-108903152D02*
X163115350Y-109903152D01*
X163115350Y-108950771D02*
X163202017Y-108903152D01*
X163202017Y-108903152D02*
X163375350Y-108903152D01*
X163375350Y-108903152D02*
X163462017Y-108950771D01*
X163462017Y-108950771D02*
X163505350Y-108998390D01*
X163505350Y-108998390D02*
X163548684Y-109093628D01*
X163548684Y-109093628D02*
X163548684Y-109379342D01*
X163548684Y-109379342D02*
X163505350Y-109474580D01*
X163505350Y-109474580D02*
X163462017Y-109522200D01*
X163462017Y-109522200D02*
X163375350Y-109569819D01*
X163375350Y-109569819D02*
X163202017Y-109569819D01*
X163202017Y-109569819D02*
X163115350Y-109522200D01*
X164285350Y-109522200D02*
X164198683Y-109569819D01*
X164198683Y-109569819D02*
X164025350Y-109569819D01*
X164025350Y-109569819D02*
X163938683Y-109522200D01*
X163938683Y-109522200D02*
X163895350Y-109426961D01*
X163895350Y-109426961D02*
X163895350Y-109046009D01*
X163895350Y-109046009D02*
X163938683Y-108950771D01*
X163938683Y-108950771D02*
X164025350Y-108903152D01*
X164025350Y-108903152D02*
X164198683Y-108903152D01*
X164198683Y-108903152D02*
X164285350Y-108950771D01*
X164285350Y-108950771D02*
X164328683Y-109046009D01*
X164328683Y-109046009D02*
X164328683Y-109141247D01*
X164328683Y-109141247D02*
X163895350Y-109236485D01*
X164718683Y-109569819D02*
X164718683Y-108903152D01*
X164718683Y-109093628D02*
X164762017Y-108998390D01*
X164762017Y-108998390D02*
X164805350Y-108950771D01*
X164805350Y-108950771D02*
X164892017Y-108903152D01*
X164892017Y-108903152D02*
X164978683Y-108903152D01*
X166365349Y-109569819D02*
X166365349Y-109046009D01*
X166365349Y-109046009D02*
X166322016Y-108950771D01*
X166322016Y-108950771D02*
X166235349Y-108903152D01*
X166235349Y-108903152D02*
X166062016Y-108903152D01*
X166062016Y-108903152D02*
X165975349Y-108950771D01*
X166365349Y-109522200D02*
X166278683Y-109569819D01*
X166278683Y-109569819D02*
X166062016Y-109569819D01*
X166062016Y-109569819D02*
X165975349Y-109522200D01*
X165975349Y-109522200D02*
X165932016Y-109426961D01*
X165932016Y-109426961D02*
X165932016Y-109331723D01*
X165932016Y-109331723D02*
X165975349Y-109236485D01*
X165975349Y-109236485D02*
X166062016Y-109188866D01*
X166062016Y-109188866D02*
X166278683Y-109188866D01*
X166278683Y-109188866D02*
X166365349Y-109141247D01*
X166755349Y-109522200D02*
X166842016Y-109569819D01*
X166842016Y-109569819D02*
X167015349Y-109569819D01*
X167015349Y-109569819D02*
X167102016Y-109522200D01*
X167102016Y-109522200D02*
X167145349Y-109426961D01*
X167145349Y-109426961D02*
X167145349Y-109379342D01*
X167145349Y-109379342D02*
X167102016Y-109284104D01*
X167102016Y-109284104D02*
X167015349Y-109236485D01*
X167015349Y-109236485D02*
X166885349Y-109236485D01*
X166885349Y-109236485D02*
X166798682Y-109188866D01*
X166798682Y-109188866D02*
X166755349Y-109093628D01*
X166755349Y-109093628D02*
X166755349Y-109046009D01*
X166755349Y-109046009D02*
X166798682Y-108950771D01*
X166798682Y-108950771D02*
X166885349Y-108903152D01*
X166885349Y-108903152D02*
X167015349Y-108903152D01*
X167015349Y-108903152D02*
X167102016Y-108950771D01*
X167535349Y-108903152D02*
X167535349Y-109903152D01*
X167535349Y-108950771D02*
X167622016Y-108903152D01*
X167622016Y-108903152D02*
X167795349Y-108903152D01*
X167795349Y-108903152D02*
X167882016Y-108950771D01*
X167882016Y-108950771D02*
X167925349Y-108998390D01*
X167925349Y-108998390D02*
X167968683Y-109093628D01*
X167968683Y-109093628D02*
X167968683Y-109379342D01*
X167968683Y-109379342D02*
X167925349Y-109474580D01*
X167925349Y-109474580D02*
X167882016Y-109522200D01*
X167882016Y-109522200D02*
X167795349Y-109569819D01*
X167795349Y-109569819D02*
X167622016Y-109569819D01*
X167622016Y-109569819D02*
X167535349Y-109522200D01*
X168705349Y-109522200D02*
X168618682Y-109569819D01*
X168618682Y-109569819D02*
X168445349Y-109569819D01*
X168445349Y-109569819D02*
X168358682Y-109522200D01*
X168358682Y-109522200D02*
X168315349Y-109426961D01*
X168315349Y-109426961D02*
X168315349Y-109046009D01*
X168315349Y-109046009D02*
X168358682Y-108950771D01*
X168358682Y-108950771D02*
X168445349Y-108903152D01*
X168445349Y-108903152D02*
X168618682Y-108903152D01*
X168618682Y-108903152D02*
X168705349Y-108950771D01*
X168705349Y-108950771D02*
X168748682Y-109046009D01*
X168748682Y-109046009D02*
X168748682Y-109141247D01*
X168748682Y-109141247D02*
X168315349Y-109236485D01*
X169138682Y-109569819D02*
X169138682Y-108903152D01*
X169138682Y-109093628D02*
X169182016Y-108998390D01*
X169182016Y-108998390D02*
X169225349Y-108950771D01*
X169225349Y-108950771D02*
X169312016Y-108903152D01*
X169312016Y-108903152D02*
X169398682Y-108903152D01*
X170092015Y-109569819D02*
X170092015Y-109046009D01*
X170092015Y-109046009D02*
X170048682Y-108950771D01*
X170048682Y-108950771D02*
X169962015Y-108903152D01*
X169962015Y-108903152D02*
X169788682Y-108903152D01*
X169788682Y-108903152D02*
X169702015Y-108950771D01*
X170092015Y-109522200D02*
X170005349Y-109569819D01*
X170005349Y-109569819D02*
X169788682Y-109569819D01*
X169788682Y-109569819D02*
X169702015Y-109522200D01*
X169702015Y-109522200D02*
X169658682Y-109426961D01*
X169658682Y-109426961D02*
X169658682Y-109331723D01*
X169658682Y-109331723D02*
X169702015Y-109236485D01*
X169702015Y-109236485D02*
X169788682Y-109188866D01*
X169788682Y-109188866D02*
X170005349Y-109188866D01*
X170005349Y-109188866D02*
X170092015Y-109141247D01*
D10*
X125911015Y-96571100D02*
X126025301Y-96609195D01*
X126025301Y-96609195D02*
X126215777Y-96609195D01*
X126215777Y-96609195D02*
X126291968Y-96571100D01*
X126291968Y-96571100D02*
X126330063Y-96533004D01*
X126330063Y-96533004D02*
X126368158Y-96456814D01*
X126368158Y-96456814D02*
X126368158Y-96380623D01*
X126368158Y-96380623D02*
X126330063Y-96304433D01*
X126330063Y-96304433D02*
X126291968Y-96266338D01*
X126291968Y-96266338D02*
X126215777Y-96228242D01*
X126215777Y-96228242D02*
X126063396Y-96190147D01*
X126063396Y-96190147D02*
X125987206Y-96152052D01*
X125987206Y-96152052D02*
X125949111Y-96113957D01*
X125949111Y-96113957D02*
X125911015Y-96037766D01*
X125911015Y-96037766D02*
X125911015Y-95961576D01*
X125911015Y-95961576D02*
X125949111Y-95885385D01*
X125949111Y-95885385D02*
X125987206Y-95847290D01*
X125987206Y-95847290D02*
X126063396Y-95809195D01*
X126063396Y-95809195D02*
X126253873Y-95809195D01*
X126253873Y-95809195D02*
X126368158Y-95847290D01*
X126634825Y-95809195D02*
X126825301Y-96609195D01*
X126825301Y-96609195D02*
X126977682Y-96037766D01*
X126977682Y-96037766D02*
X127130063Y-96609195D01*
X127130063Y-96609195D02*
X127320540Y-95809195D01*
X128082445Y-96533004D02*
X128044349Y-96571100D01*
X128044349Y-96571100D02*
X127930064Y-96609195D01*
X127930064Y-96609195D02*
X127853873Y-96609195D01*
X127853873Y-96609195D02*
X127739587Y-96571100D01*
X127739587Y-96571100D02*
X127663397Y-96494909D01*
X127663397Y-96494909D02*
X127625302Y-96418719D01*
X127625302Y-96418719D02*
X127587206Y-96266338D01*
X127587206Y-96266338D02*
X127587206Y-96152052D01*
X127587206Y-96152052D02*
X127625302Y-95999671D01*
X127625302Y-95999671D02*
X127663397Y-95923480D01*
X127663397Y-95923480D02*
X127739587Y-95847290D01*
X127739587Y-95847290D02*
X127853873Y-95809195D01*
X127853873Y-95809195D02*
X127930064Y-95809195D01*
X127930064Y-95809195D02*
X128044349Y-95847290D01*
X128044349Y-95847290D02*
X128082445Y-95885385D01*
X128806254Y-96609195D02*
X128425302Y-96609195D01*
X128425302Y-96609195D02*
X128425302Y-95809195D01*
X129072921Y-96609195D02*
X129072921Y-95809195D01*
X129530064Y-96609195D02*
X129187206Y-96152052D01*
X129530064Y-95809195D02*
X129072921Y-96266338D01*
X159613426Y-123345595D02*
X159880093Y-124145595D01*
X159880093Y-124145595D02*
X160146759Y-123345595D01*
X160680092Y-123726547D02*
X160794378Y-123764642D01*
X160794378Y-123764642D02*
X160832473Y-123802738D01*
X160832473Y-123802738D02*
X160870569Y-123878928D01*
X160870569Y-123878928D02*
X160870569Y-123993214D01*
X160870569Y-123993214D02*
X160832473Y-124069404D01*
X160832473Y-124069404D02*
X160794378Y-124107500D01*
X160794378Y-124107500D02*
X160718188Y-124145595D01*
X160718188Y-124145595D02*
X160413426Y-124145595D01*
X160413426Y-124145595D02*
X160413426Y-123345595D01*
X160413426Y-123345595D02*
X160680092Y-123345595D01*
X160680092Y-123345595D02*
X160756283Y-123383690D01*
X160756283Y-123383690D02*
X160794378Y-123421785D01*
X160794378Y-123421785D02*
X160832473Y-123497976D01*
X160832473Y-123497976D02*
X160832473Y-123574166D01*
X160832473Y-123574166D02*
X160794378Y-123650357D01*
X160794378Y-123650357D02*
X160756283Y-123688452D01*
X160756283Y-123688452D02*
X160680092Y-123726547D01*
X160680092Y-123726547D02*
X160413426Y-123726547D01*
X161213426Y-123345595D02*
X161213426Y-123993214D01*
X161213426Y-123993214D02*
X161251521Y-124069404D01*
X161251521Y-124069404D02*
X161289616Y-124107500D01*
X161289616Y-124107500D02*
X161365807Y-124145595D01*
X161365807Y-124145595D02*
X161518188Y-124145595D01*
X161518188Y-124145595D02*
X161594378Y-124107500D01*
X161594378Y-124107500D02*
X161632473Y-124069404D01*
X161632473Y-124069404D02*
X161670569Y-123993214D01*
X161670569Y-123993214D02*
X161670569Y-123345595D01*
X162013425Y-124107500D02*
X162127711Y-124145595D01*
X162127711Y-124145595D02*
X162318187Y-124145595D01*
X162318187Y-124145595D02*
X162394378Y-124107500D01*
X162394378Y-124107500D02*
X162432473Y-124069404D01*
X162432473Y-124069404D02*
X162470568Y-123993214D01*
X162470568Y-123993214D02*
X162470568Y-123917023D01*
X162470568Y-123917023D02*
X162432473Y-123840833D01*
X162432473Y-123840833D02*
X162394378Y-123802738D01*
X162394378Y-123802738D02*
X162318187Y-123764642D01*
X162318187Y-123764642D02*
X162165806Y-123726547D01*
X162165806Y-123726547D02*
X162089616Y-123688452D01*
X162089616Y-123688452D02*
X162051521Y-123650357D01*
X162051521Y-123650357D02*
X162013425Y-123574166D01*
X162013425Y-123574166D02*
X162013425Y-123497976D01*
X162013425Y-123497976D02*
X162051521Y-123421785D01*
X162051521Y-123421785D02*
X162089616Y-123383690D01*
X162089616Y-123383690D02*
X162165806Y-123345595D01*
X162165806Y-123345595D02*
X162356283Y-123345595D01*
X162356283Y-123345595D02*
X162470568Y-123383690D01*
D11*
X143893922Y-118719819D02*
X144465350Y-118719819D01*
X144179636Y-119719819D02*
X144179636Y-118719819D01*
X144989160Y-118719819D02*
X145179636Y-118719819D01*
X145179636Y-118719819D02*
X145274874Y-118767438D01*
X145274874Y-118767438D02*
X145370112Y-118862676D01*
X145370112Y-118862676D02*
X145417731Y-119053152D01*
X145417731Y-119053152D02*
X145417731Y-119386485D01*
X145417731Y-119386485D02*
X145370112Y-119576961D01*
X145370112Y-119576961D02*
X145274874Y-119672200D01*
X145274874Y-119672200D02*
X145179636Y-119719819D01*
X145179636Y-119719819D02*
X144989160Y-119719819D01*
X144989160Y-119719819D02*
X144893922Y-119672200D01*
X144893922Y-119672200D02*
X144798684Y-119576961D01*
X144798684Y-119576961D02*
X144751065Y-119386485D01*
X144751065Y-119386485D02*
X144751065Y-119053152D01*
X144751065Y-119053152D02*
X144798684Y-118862676D01*
X144798684Y-118862676D02*
X144893922Y-118767438D01*
X144893922Y-118767438D02*
X144989160Y-118719819D01*
X146608208Y-119719819D02*
X146608208Y-118719819D01*
X146608208Y-118719819D02*
X146941541Y-119434104D01*
X146941541Y-119434104D02*
X147274874Y-118719819D01*
X147274874Y-118719819D02*
X147274874Y-119719819D01*
X148322493Y-119624580D02*
X148274874Y-119672200D01*
X148274874Y-119672200D02*
X148132017Y-119719819D01*
X148132017Y-119719819D02*
X148036779Y-119719819D01*
X148036779Y-119719819D02*
X147893922Y-119672200D01*
X147893922Y-119672200D02*
X147798684Y-119576961D01*
X147798684Y-119576961D02*
X147751065Y-119481723D01*
X147751065Y-119481723D02*
X147703446Y-119291247D01*
X147703446Y-119291247D02*
X147703446Y-119148390D01*
X147703446Y-119148390D02*
X147751065Y-118957914D01*
X147751065Y-118957914D02*
X147798684Y-118862676D01*
X147798684Y-118862676D02*
X147893922Y-118767438D01*
X147893922Y-118767438D02*
X148036779Y-118719819D01*
X148036779Y-118719819D02*
X148132017Y-118719819D01*
X148132017Y-118719819D02*
X148274874Y-118767438D01*
X148274874Y-118767438D02*
X148322493Y-118815057D01*
X148751065Y-119719819D02*
X148751065Y-118719819D01*
X148751065Y-118719819D02*
X149132017Y-118719819D01*
X149132017Y-118719819D02*
X149227255Y-118767438D01*
X149227255Y-118767438D02*
X149274874Y-118815057D01*
X149274874Y-118815057D02*
X149322493Y-118910295D01*
X149322493Y-118910295D02*
X149322493Y-119053152D01*
X149322493Y-119053152D02*
X149274874Y-119148390D01*
X149274874Y-119148390D02*
X149227255Y-119196009D01*
X149227255Y-119196009D02*
X149132017Y-119243628D01*
X149132017Y-119243628D02*
X148751065Y-119243628D01*
X149703446Y-119672200D02*
X149846303Y-119719819D01*
X149846303Y-119719819D02*
X150084398Y-119719819D01*
X150084398Y-119719819D02*
X150179636Y-119672200D01*
X150179636Y-119672200D02*
X150227255Y-119624580D01*
X150227255Y-119624580D02*
X150274874Y-119529342D01*
X150274874Y-119529342D02*
X150274874Y-119434104D01*
X150274874Y-119434104D02*
X150227255Y-119338866D01*
X150227255Y-119338866D02*
X150179636Y-119291247D01*
X150179636Y-119291247D02*
X150084398Y-119243628D01*
X150084398Y-119243628D02*
X149893922Y-119196009D01*
X149893922Y-119196009D02*
X149798684Y-119148390D01*
X149798684Y-119148390D02*
X149751065Y-119100771D01*
X149751065Y-119100771D02*
X149703446Y-119005533D01*
X149703446Y-119005533D02*
X149703446Y-118910295D01*
X149703446Y-118910295D02*
X149751065Y-118815057D01*
X149751065Y-118815057D02*
X149798684Y-118767438D01*
X149798684Y-118767438D02*
X149893922Y-118719819D01*
X149893922Y-118719819D02*
X150132017Y-118719819D01*
X150132017Y-118719819D02*
X150274874Y-118767438D01*
X151798684Y-119196009D02*
X151941541Y-119243628D01*
X151941541Y-119243628D02*
X151989160Y-119291247D01*
X151989160Y-119291247D02*
X152036779Y-119386485D01*
X152036779Y-119386485D02*
X152036779Y-119529342D01*
X152036779Y-119529342D02*
X151989160Y-119624580D01*
X151989160Y-119624580D02*
X151941541Y-119672200D01*
X151941541Y-119672200D02*
X151846303Y-119719819D01*
X151846303Y-119719819D02*
X151465351Y-119719819D01*
X151465351Y-119719819D02*
X151465351Y-118719819D01*
X151465351Y-118719819D02*
X151798684Y-118719819D01*
X151798684Y-118719819D02*
X151893922Y-118767438D01*
X151893922Y-118767438D02*
X151941541Y-118815057D01*
X151941541Y-118815057D02*
X151989160Y-118910295D01*
X151989160Y-118910295D02*
X151989160Y-119005533D01*
X151989160Y-119005533D02*
X151941541Y-119100771D01*
X151941541Y-119100771D02*
X151893922Y-119148390D01*
X151893922Y-119148390D02*
X151798684Y-119196009D01*
X151798684Y-119196009D02*
X151465351Y-119196009D01*
X152655827Y-118719819D02*
X152846303Y-118719819D01*
X152846303Y-118719819D02*
X152941541Y-118767438D01*
X152941541Y-118767438D02*
X153036779Y-118862676D01*
X153036779Y-118862676D02*
X153084398Y-119053152D01*
X153084398Y-119053152D02*
X153084398Y-119386485D01*
X153084398Y-119386485D02*
X153036779Y-119576961D01*
X153036779Y-119576961D02*
X152941541Y-119672200D01*
X152941541Y-119672200D02*
X152846303Y-119719819D01*
X152846303Y-119719819D02*
X152655827Y-119719819D01*
X152655827Y-119719819D02*
X152560589Y-119672200D01*
X152560589Y-119672200D02*
X152465351Y-119576961D01*
X152465351Y-119576961D02*
X152417732Y-119386485D01*
X152417732Y-119386485D02*
X152417732Y-119053152D01*
X152417732Y-119053152D02*
X152465351Y-118862676D01*
X152465351Y-118862676D02*
X152560589Y-118767438D01*
X152560589Y-118767438D02*
X152655827Y-118719819D01*
X153465351Y-119434104D02*
X153941541Y-119434104D01*
X153370113Y-119719819D02*
X153703446Y-118719819D01*
X153703446Y-118719819D02*
X154036779Y-119719819D01*
X154941541Y-119719819D02*
X154608208Y-119243628D01*
X154370113Y-119719819D02*
X154370113Y-118719819D01*
X154370113Y-118719819D02*
X154751065Y-118719819D01*
X154751065Y-118719819D02*
X154846303Y-118767438D01*
X154846303Y-118767438D02*
X154893922Y-118815057D01*
X154893922Y-118815057D02*
X154941541Y-118910295D01*
X154941541Y-118910295D02*
X154941541Y-119053152D01*
X154941541Y-119053152D02*
X154893922Y-119148390D01*
X154893922Y-119148390D02*
X154846303Y-119196009D01*
X154846303Y-119196009D02*
X154751065Y-119243628D01*
X154751065Y-119243628D02*
X154370113Y-119243628D01*
X155370113Y-119719819D02*
X155370113Y-118719819D01*
X155370113Y-118719819D02*
X155608208Y-118719819D01*
X155608208Y-118719819D02*
X155751065Y-118767438D01*
X155751065Y-118767438D02*
X155846303Y-118862676D01*
X155846303Y-118862676D02*
X155893922Y-118957914D01*
X155893922Y-118957914D02*
X155941541Y-119148390D01*
X155941541Y-119148390D02*
X155941541Y-119291247D01*
X155941541Y-119291247D02*
X155893922Y-119481723D01*
X155893922Y-119481723D02*
X155846303Y-119576961D01*
X155846303Y-119576961D02*
X155751065Y-119672200D01*
X155751065Y-119672200D02*
X155608208Y-119719819D01*
X155608208Y-119719819D02*
X155370113Y-119719819D01*
D10*
X126025301Y-101651100D02*
X126139587Y-101689195D01*
X126139587Y-101689195D02*
X126330063Y-101689195D01*
X126330063Y-101689195D02*
X126406254Y-101651100D01*
X126406254Y-101651100D02*
X126444349Y-101613004D01*
X126444349Y-101613004D02*
X126482444Y-101536814D01*
X126482444Y-101536814D02*
X126482444Y-101460623D01*
X126482444Y-101460623D02*
X126444349Y-101384433D01*
X126444349Y-101384433D02*
X126406254Y-101346338D01*
X126406254Y-101346338D02*
X126330063Y-101308242D01*
X126330063Y-101308242D02*
X126177682Y-101270147D01*
X126177682Y-101270147D02*
X126101492Y-101232052D01*
X126101492Y-101232052D02*
X126063397Y-101193957D01*
X126063397Y-101193957D02*
X126025301Y-101117766D01*
X126025301Y-101117766D02*
X126025301Y-101041576D01*
X126025301Y-101041576D02*
X126063397Y-100965385D01*
X126063397Y-100965385D02*
X126101492Y-100927290D01*
X126101492Y-100927290D02*
X126177682Y-100889195D01*
X126177682Y-100889195D02*
X126368159Y-100889195D01*
X126368159Y-100889195D02*
X126482444Y-100927290D01*
X126749111Y-100889195D02*
X126939587Y-101689195D01*
X126939587Y-101689195D02*
X127091968Y-101117766D01*
X127091968Y-101117766D02*
X127244349Y-101689195D01*
X127244349Y-101689195D02*
X127434826Y-100889195D01*
X127739588Y-101689195D02*
X127739588Y-100889195D01*
X127739588Y-100889195D02*
X127930064Y-100889195D01*
X127930064Y-100889195D02*
X128044350Y-100927290D01*
X128044350Y-100927290D02*
X128120540Y-101003480D01*
X128120540Y-101003480D02*
X128158635Y-101079671D01*
X128158635Y-101079671D02*
X128196731Y-101232052D01*
X128196731Y-101232052D02*
X128196731Y-101346338D01*
X128196731Y-101346338D02*
X128158635Y-101498719D01*
X128158635Y-101498719D02*
X128120540Y-101574909D01*
X128120540Y-101574909D02*
X128044350Y-101651100D01*
X128044350Y-101651100D02*
X127930064Y-101689195D01*
X127930064Y-101689195D02*
X127739588Y-101689195D01*
X128539588Y-101689195D02*
X128539588Y-100889195D01*
X129072921Y-100889195D02*
X129225302Y-100889195D01*
X129225302Y-100889195D02*
X129301492Y-100927290D01*
X129301492Y-100927290D02*
X129377683Y-101003480D01*
X129377683Y-101003480D02*
X129415778Y-101155861D01*
X129415778Y-101155861D02*
X129415778Y-101422528D01*
X129415778Y-101422528D02*
X129377683Y-101574909D01*
X129377683Y-101574909D02*
X129301492Y-101651100D01*
X129301492Y-101651100D02*
X129225302Y-101689195D01*
X129225302Y-101689195D02*
X129072921Y-101689195D01*
X129072921Y-101689195D02*
X128996730Y-101651100D01*
X128996730Y-101651100D02*
X128920540Y-101574909D01*
X128920540Y-101574909D02*
X128882444Y-101422528D01*
X128882444Y-101422528D02*
X128882444Y-101155861D01*
X128882444Y-101155861D02*
X128920540Y-101003480D01*
X128920540Y-101003480D02*
X128996730Y-100927290D01*
X128996730Y-100927290D02*
X129072921Y-100889195D01*
D11*
X170078333Y-117461104D02*
X170554523Y-117461104D01*
X169983095Y-117746819D02*
X170316428Y-116746819D01*
X170316428Y-116746819D02*
X170649761Y-117746819D01*
X170983095Y-117223009D02*
X171316428Y-117223009D01*
X171459285Y-117746819D02*
X170983095Y-117746819D01*
X170983095Y-117746819D02*
X170983095Y-116746819D01*
X170983095Y-116746819D02*
X171459285Y-116746819D01*
X172411666Y-117746819D02*
X171840238Y-117746819D01*
X172125952Y-117746819D02*
X172125952Y-116746819D01*
X172125952Y-116746819D02*
X172030714Y-116889676D01*
X172030714Y-116889676D02*
X171935476Y-116984914D01*
X171935476Y-116984914D02*
X171840238Y-117032533D01*
D12*
X163764000Y-119800000D02*
X166664000Y-119800000D01*
X163764000Y-122700000D02*
X163764000Y-119800000D01*
X166664000Y-119800000D02*
X166664000Y-122700000D01*
X166664000Y-122700000D02*
X163764000Y-122700000D01*
X140640000Y-93136376D02*
X140640000Y-92920704D01*
X141360000Y-93136376D02*
X141360000Y-92920704D01*
X129480336Y-91999500D02*
X129264664Y-91999500D01*
X129480336Y-92719500D02*
X129264664Y-92719500D01*
X140520000Y-96103641D02*
X140520000Y-95796359D01*
X141280000Y-96103641D02*
X141280000Y-95796359D01*
X169745000Y-112292000D02*
X170545000Y-112292000D01*
X169745000Y-112492000D02*
X169745000Y-112292000D01*
X169945000Y-115292000D02*
X169745000Y-115092000D01*
X170545000Y-115292000D02*
X169945000Y-115292000D01*
X170545000Y-115292000D02*
X170545000Y-115792000D01*
X171945000Y-112292000D02*
X172745000Y-112292000D01*
X171945000Y-115292000D02*
X171945000Y-115792000D01*
X172745000Y-112292000D02*
X172745000Y-112492000D01*
X172745000Y-115092000D02*
X172745000Y-115292000D01*
X172745000Y-115292000D02*
X171945000Y-115292000D01*
X159608000Y-119800000D02*
X162508000Y-119800000D01*
X159608000Y-122700000D02*
X159608000Y-119800000D01*
X162508000Y-119800000D02*
X162508000Y-122700000D01*
X162508000Y-122700000D02*
X159608000Y-122700000D01*
D13*
X135487500Y-79075000D02*
X137487500Y-79075000D01*
X135487500Y-81775000D02*
X137487500Y-81775000D01*
D14*
X138282500Y-79275000D02*
G75*
G02*
X138082500Y-79275000I-100000J0D01*
G01*
X138082500Y-79275000D02*
G75*
G02*
X138282500Y-79275000I100000J0D01*
G01*
D12*
X169215000Y-81700000D02*
X169215000Y-83985000D01*
X169215000Y-83985000D02*
X170685000Y-83985000D01*
X170685000Y-83985000D02*
X170685000Y-81700000D01*
X126472500Y-87044664D02*
X126472500Y-87260336D01*
X127192500Y-87044664D02*
X127192500Y-87260336D01*
X155018000Y-89040704D02*
X155018000Y-89256376D01*
X155738000Y-89040704D02*
X155738000Y-89256376D01*
D13*
X174212500Y-95080000D02*
X175892500Y-95080000D01*
X174212500Y-104020000D02*
X175892500Y-104020000D01*
X179662500Y-95080000D02*
X178232500Y-95080000D01*
X179662500Y-104020000D02*
X178232500Y-104020000D01*
X179662500Y-104020000D02*
X179662500Y-95080000D01*
D14*
X171162500Y-102750000D02*
G75*
G02*
X170962500Y-102750000I-100000J0D01*
G01*
X170962500Y-102750000D02*
G75*
G02*
X171162500Y-102750000I100000J0D01*
G01*
D12*
X137110800Y-89807340D02*
X137110800Y-93807340D01*
X140410800Y-89807340D02*
X137110800Y-89807340D01*
X129772664Y-85268500D02*
X129988336Y-85268500D01*
X129772664Y-85988500D02*
X129988336Y-85988500D01*
X133929664Y-79065000D02*
X134145336Y-79065000D01*
X133929664Y-79785000D02*
X134145336Y-79785000D01*
X170420000Y-96596359D02*
X170420000Y-96903641D01*
X171180000Y-96596359D02*
X171180000Y-96903641D01*
X162597500Y-89725000D02*
X162857500Y-89725000D01*
X162597500Y-92450000D02*
X162597500Y-89725000D01*
X162597500Y-92450000D02*
X162597500Y-95175000D01*
X162597500Y-95175000D02*
X162857500Y-95175000D01*
X167787500Y-89725000D02*
X167787500Y-88050000D01*
X168047500Y-89725000D02*
X167787500Y-89725000D01*
X168047500Y-92450000D02*
X168047500Y-89725000D01*
X168047500Y-92450000D02*
X168047500Y-95175000D01*
X168047500Y-95175000D02*
X167787500Y-95175000D01*
X163820000Y-100653641D02*
X163820000Y-100346359D01*
X164580000Y-100653641D02*
X164580000Y-100346359D01*
X147989164Y-86829740D02*
X148204836Y-86829740D01*
X147989164Y-87549740D02*
X148204836Y-87549740D01*
X143290000Y-120690000D02*
X143290000Y-122740000D01*
X143290000Y-124560000D02*
X143290000Y-124860000D01*
X143290000Y-124860000D02*
X144090000Y-124860000D01*
X144060000Y-120690000D02*
X143290000Y-120690000D01*
X144060000Y-121040000D02*
X144060000Y-120690000D01*
X144090000Y-124860000D02*
X144090000Y-126160000D01*
X144090000Y-126160000D02*
X155910000Y-126160000D01*
X146040000Y-120450000D02*
X146040000Y-121040000D01*
X146040000Y-121040000D02*
X144060000Y-121040000D01*
X155910000Y-124860000D02*
X156710000Y-124860000D01*
X155910000Y-126160000D02*
X155910000Y-124860000D01*
X155940000Y-120690000D02*
X155940000Y-121040000D01*
X155940000Y-121040000D02*
X153960000Y-121040000D01*
X156710000Y-120690000D02*
X155940000Y-120690000D01*
X156710000Y-122740000D02*
X156710000Y-120690000D01*
X156710000Y-124860000D02*
X156710000Y-124560000D01*
X170154760Y-100654841D02*
X170154760Y-100347559D01*
X170914760Y-100654841D02*
X170914760Y-100347559D01*
X146620000Y-82746359D02*
X146620000Y-83053641D01*
X147380000Y-82746359D02*
X147380000Y-83053641D01*
X139192164Y-101290000D02*
X139407836Y-101290000D01*
X139192164Y-102010000D02*
X139407836Y-102010000D01*
X137040000Y-102562779D02*
X137040000Y-102237221D01*
X138060000Y-102562779D02*
X138060000Y-102237221D01*
X129715000Y-109561252D02*
X129715000Y-109038748D01*
X131185000Y-109561252D02*
X131185000Y-109038748D01*
X169570000Y-84883859D02*
X169570000Y-85191141D01*
X170330000Y-84883859D02*
X170330000Y-85191141D01*
X129218859Y-93249500D02*
X129526141Y-93249500D01*
X129218859Y-94009500D02*
X129526141Y-94009500D01*
D13*
X143550000Y-101400000D02*
X159550000Y-101400000D01*
X143550000Y-101830000D02*
X143550000Y-101400000D01*
X143550000Y-117400000D02*
X143550000Y-116970000D01*
X159550000Y-101400000D02*
X159550000Y-101830000D01*
X159550000Y-117400000D02*
X143550000Y-117400000D01*
X159550000Y-117400000D02*
X159550000Y-116970000D01*
D14*
X141650000Y-102650000D02*
G75*
G02*
X141450000Y-102650000I-100000J0D01*
G01*
X141450000Y-102650000D02*
G75*
G02*
X141650000Y-102650000I100000J0D01*
G01*
D12*
X158690000Y-75510000D02*
X158690000Y-76659999D01*
X158690000Y-76659999D02*
X159740001Y-76660000D01*
X159740001Y-76660000D02*
X159740001Y-77650000D01*
X159860000Y-73540000D02*
X163739999Y-73540000D01*
X164910000Y-75510000D02*
X164910000Y-76660000D01*
X164910000Y-76660000D02*
X163860000Y-76659999D01*
X166815336Y-97340000D02*
X166599664Y-97340000D01*
X166815336Y-98060000D02*
X166599664Y-98060000D01*
X147670000Y-82756359D02*
X147670000Y-83063641D01*
X148430000Y-82756359D02*
X148430000Y-83063641D01*
X146990000Y-95659740D02*
X146990000Y-95184740D01*
X147465000Y-88439740D02*
X146990000Y-88439740D01*
X147465000Y-95659740D02*
X146990000Y-95659740D01*
X153735000Y-88439740D02*
X154210000Y-88439740D01*
X153735000Y-95659740D02*
X154210000Y-95659740D01*
X154210000Y-88439740D02*
X154210000Y-88914740D01*
X154210000Y-95659740D02*
X154210000Y-95184740D01*
X130809500Y-82848500D02*
X129459500Y-82848500D01*
X130809500Y-84598500D02*
X129459500Y-84598500D01*
X146270000Y-99896359D02*
X146270000Y-100203641D01*
X147030000Y-99896359D02*
X147030000Y-100203641D01*
X132500000Y-104190000D02*
X138510000Y-104190000D01*
X134750000Y-111010000D02*
X138510000Y-111010000D01*
X138510000Y-104190000D02*
X138510000Y-105450000D01*
X138510000Y-111010000D02*
X138510000Y-109750000D01*
X129715000Y-105711252D02*
X129715000Y-105188748D01*
X131185000Y-105711252D02*
X131185000Y-105188748D01*
X144550000Y-88935576D02*
X144550000Y-88719904D01*
X145270000Y-88935576D02*
X145270000Y-88719904D01*
X128146359Y-111349500D02*
X128453641Y-111349500D01*
X128146359Y-112109500D02*
X128453641Y-112109500D01*
X167788000Y-84883859D02*
X167788000Y-85191141D01*
X168548000Y-84883859D02*
X168548000Y-85191141D01*
X131804664Y-85268500D02*
X132020336Y-85268500D01*
X131804664Y-85988500D02*
X132020336Y-85988500D01*
X144387836Y-92651000D02*
X144172164Y-92651000D01*
X144387836Y-93371000D02*
X144172164Y-93371000D01*
X147859420Y-85390000D02*
X148140580Y-85390000D01*
X147859420Y-86410000D02*
X148140580Y-86410000D01*
X141270000Y-110403641D02*
X141270000Y-110096359D01*
X142030000Y-110403641D02*
X142030000Y-110096359D01*
X141370000Y-102996359D02*
X141370000Y-103303641D01*
X142130000Y-102996359D02*
X142130000Y-103303641D01*
X143290000Y-74150000D02*
X143290000Y-74450000D01*
X143290000Y-76270000D02*
X143290000Y-78320000D01*
X143290000Y-78320000D02*
X144060000Y-78320000D01*
X144060000Y-77970000D02*
X146040000Y-77970000D01*
X144060000Y-78320000D02*
X144060000Y-77970000D01*
X144090000Y-72850000D02*
X144090000Y-74150000D01*
X144090000Y-74150000D02*
X143290000Y-74150000D01*
X153960000Y-77970000D02*
X155940000Y-77970000D01*
X153960000Y-78560000D02*
X153960000Y-77970000D01*
X155910000Y-72850000D02*
X144090000Y-72850000D01*
X155910000Y-74150000D02*
X155910000Y-72850000D01*
X155940000Y-77970000D02*
X155940000Y-78320000D01*
X155940000Y-78320000D02*
X156710000Y-78320000D01*
X156710000Y-74150000D02*
X155910000Y-74150000D01*
X156710000Y-74450000D02*
X156710000Y-74150000D01*
X156710000Y-78320000D02*
X156710000Y-76270000D01*
X154918000Y-95890964D02*
X154918000Y-96106636D01*
X155638000Y-95890964D02*
X155638000Y-96106636D01*
X122497740Y-102418800D02*
X122497740Y-94738800D01*
X125157740Y-94738800D02*
X122497740Y-94738800D01*
X125157740Y-102418800D02*
X122497740Y-102418800D01*
X125157740Y-102418800D02*
X125157740Y-94738800D01*
X125157740Y-103688800D02*
X125157740Y-105018800D01*
X125157740Y-105018800D02*
X123827740Y-105018800D01*
X164970000Y-100653641D02*
X164970000Y-100346359D01*
X165730000Y-100653641D02*
X165730000Y-100346359D01*
X141194800Y-90899176D02*
X141194800Y-90683504D01*
X141914800Y-90899176D02*
X141914800Y-90683504D01*
X134029664Y-81015000D02*
X134245336Y-81015000D01*
X134029664Y-81735000D02*
X134245336Y-81735000D01*
X144428000Y-94642836D02*
X144428000Y-94427164D01*
X145148000Y-94642836D02*
X145148000Y-94427164D01*
X127415000Y-108642000D02*
X127415000Y-110927000D01*
X127415000Y-110927000D02*
X128885000Y-110927000D01*
X128885000Y-110927000D02*
X128885000Y-108642000D01*
X147270000Y-99896359D02*
X147270000Y-100203641D01*
X148030000Y-99896359D02*
X148030000Y-100203641D01*
X127952500Y-87440000D02*
X128212500Y-87440000D01*
X127952500Y-91460000D02*
X127952500Y-91200000D01*
X127952500Y-91460000D02*
X128212500Y-91460000D01*
X133372500Y-87440000D02*
X133112500Y-87440000D01*
X133372500Y-87440000D02*
X133372500Y-87700000D01*
X133372500Y-91460000D02*
X133112500Y-91460000D01*
X133372500Y-91460000D02*
X133372500Y-91200000D01*
X155990000Y-96107836D02*
X155990000Y-95892164D01*
X156710000Y-96107836D02*
X156710000Y-95892164D01*
X167433000Y-81700000D02*
X167433000Y-83985000D01*
X167433000Y-83985000D02*
X168903000Y-83985000D01*
X168903000Y-83985000D02*
X168903000Y-81700000D01*
X140665000Y-111950000D02*
X140665000Y-114235000D01*
X140665000Y-114235000D02*
X142135000Y-114235000D01*
X142135000Y-114235000D02*
X142135000Y-111950000D01*
X141357836Y-101290000D02*
X141142164Y-101290000D01*
X141357836Y-102010000D02*
X141142164Y-102010000D01*
X143285000Y-94642836D02*
X143285000Y-94427164D01*
X144005000Y-94642836D02*
X144005000Y-94427164D01*
X168377500Y-88903641D02*
X168377500Y-88596359D01*
X169137500Y-88903641D02*
X169137500Y-88596359D01*
X145550000Y-88935576D02*
X145550000Y-88719904D01*
X146270000Y-88935576D02*
X146270000Y-88719904D01*
X135090000Y-75460000D02*
X135090000Y-76610000D01*
X135090000Y-76610000D02*
X136140000Y-76610000D01*
X136140000Y-76610000D02*
X136140000Y-77600000D01*
X136260000Y-73490000D02*
X140140000Y-73490000D01*
X141310000Y-75460000D02*
X141310000Y-76610000D01*
X141310000Y-76610000D02*
X140260000Y-76610000D01*
X143009221Y-96986540D02*
X143334779Y-96986540D01*
X143009221Y-98006540D02*
X143334779Y-98006540D01*
%LPC*%
D15*
X172932500Y-96700000D02*
X171692500Y-96700000D01*
X171692500Y-96000000D01*
X172932500Y-96000000D01*
X172932500Y-96700000D01*
G36*
X172932500Y-96700000D02*
G01*
X171692500Y-96700000D01*
X171692500Y-96000000D01*
X172932500Y-96000000D01*
X172932500Y-96700000D01*
G37*
X172932500Y-97500000D02*
X171692500Y-97500000D01*
X171692500Y-96800000D01*
X172932500Y-96800000D01*
X172932500Y-97500000D01*
G36*
X172932500Y-97500000D02*
G01*
X171692500Y-97500000D01*
X171692500Y-96800000D01*
X172932500Y-96800000D01*
X172932500Y-97500000D01*
G37*
X172932500Y-98000000D02*
X171692500Y-98000000D01*
X171692500Y-97600000D01*
X172932500Y-97600000D01*
X172932500Y-98000000D01*
G36*
X172932500Y-98000000D02*
G01*
X171692500Y-98000000D01*
X171692500Y-97600000D01*
X172932500Y-97600000D01*
X172932500Y-98000000D01*
G37*
X172932500Y-98500000D02*
X171692500Y-98500000D01*
X171692500Y-98100000D01*
X172932500Y-98100000D01*
X172932500Y-98500000D01*
G36*
X172932500Y-98500000D02*
G01*
X171692500Y-98500000D01*
X171692500Y-98100000D01*
X172932500Y-98100000D01*
X172932500Y-98500000D01*
G37*
X172932500Y-99000000D02*
X171692500Y-99000000D01*
X171692500Y-98600000D01*
X172932500Y-98600000D01*
X172932500Y-99000000D01*
G36*
X172932500Y-99000000D02*
G01*
X171692500Y-99000000D01*
X171692500Y-98600000D01*
X172932500Y-98600000D01*
X172932500Y-99000000D01*
G37*
X172932500Y-99500000D02*
X171692500Y-99500000D01*
X171692500Y-99100000D01*
X172932500Y-99100000D01*
X172932500Y-99500000D01*
G36*
X172932500Y-99500000D02*
G01*
X171692500Y-99500000D01*
X171692500Y-99100000D01*
X172932500Y-99100000D01*
X172932500Y-99500000D01*
G37*
X172932500Y-100000000D02*
X171692500Y-100000000D01*
X171692500Y-99600000D01*
X172932500Y-99600000D01*
X172932500Y-100000000D01*
G36*
X172932500Y-100000000D02*
G01*
X171692500Y-100000000D01*
X171692500Y-99600000D01*
X172932500Y-99600000D01*
X172932500Y-100000000D01*
G37*
X172932500Y-100500000D02*
X171692500Y-100500000D01*
X171692500Y-100100000D01*
X172932500Y-100100000D01*
X172932500Y-100500000D01*
G36*
X172932500Y-100500000D02*
G01*
X171692500Y-100500000D01*
X171692500Y-100100000D01*
X172932500Y-100100000D01*
X172932500Y-100500000D01*
G37*
X172932500Y-101000000D02*
X171692500Y-101000000D01*
X171692500Y-100600000D01*
X172932500Y-100600000D01*
X172932500Y-101000000D01*
G36*
X172932500Y-101000000D02*
G01*
X171692500Y-101000000D01*
X171692500Y-100600000D01*
X172932500Y-100600000D01*
X172932500Y-101000000D01*
G37*
X172932500Y-101500000D02*
X171692500Y-101500000D01*
X171692500Y-101100000D01*
X172932500Y-101100000D01*
X172932500Y-101500000D01*
G36*
X172932500Y-101500000D02*
G01*
X171692500Y-101500000D01*
X171692500Y-101100000D01*
X172932500Y-101100000D01*
X172932500Y-101500000D01*
G37*
X172932500Y-102300000D02*
X171692500Y-102300000D01*
X171692500Y-101600000D01*
X172932500Y-101600000D01*
X172932500Y-102300000D01*
G36*
X172932500Y-102300000D02*
G01*
X171692500Y-102300000D01*
X171692500Y-101600000D01*
X172932500Y-101600000D01*
X172932500Y-102300000D01*
G37*
X172932500Y-103100000D02*
X171692500Y-103100000D01*
X171692500Y-102400000D01*
X172932500Y-102400000D01*
X172932500Y-103100000D01*
G36*
X172932500Y-103100000D02*
G01*
X171692500Y-103100000D01*
X171692500Y-102400000D01*
X172932500Y-102400000D01*
X172932500Y-103100000D01*
G37*
X173468500Y-94726000D02*
X173494500Y-94728000D01*
X173520500Y-94731000D01*
X173546500Y-94736000D01*
X173571500Y-94742000D01*
X173597500Y-94749000D01*
X173621500Y-94758000D01*
X173645500Y-94768000D01*
X173669500Y-94779000D01*
X173692500Y-94792000D01*
X173714500Y-94806000D01*
X173736500Y-94820000D01*
X173757500Y-94836000D01*
X173777500Y-94853000D01*
X173796500Y-94871000D01*
X173814500Y-94890000D01*
X173831500Y-94910000D01*
X173847500Y-94931000D01*
X173861500Y-94953000D01*
X173875500Y-94975000D01*
X173888500Y-94998000D01*
X173899500Y-95022000D01*
X173909500Y-95046000D01*
X173918500Y-95070000D01*
X173925500Y-95096000D01*
X173931500Y-95121000D01*
X173936500Y-95147000D01*
X173939500Y-95173000D01*
X173941500Y-95199000D01*
X173942500Y-95225000D01*
X173941500Y-95255000D01*
X173938500Y-95282000D01*
X173934500Y-95308000D01*
X173929500Y-95334000D01*
X173922500Y-95359000D01*
X173915500Y-95384000D01*
X173905500Y-95409000D01*
X173895500Y-95433000D01*
X173883500Y-95457000D01*
X173870500Y-95480000D01*
X173856500Y-95502000D01*
X173840500Y-95524000D01*
X173824500Y-95545000D01*
X173806500Y-95564000D01*
X173788500Y-95583000D01*
X173768500Y-95601000D01*
X173748500Y-95618000D01*
X173727500Y-95634000D01*
X173705500Y-95648000D01*
X173682500Y-95662000D01*
X173658500Y-95674000D01*
X173634500Y-95685000D01*
X173610500Y-95695000D01*
X173585500Y-95703000D01*
X173559500Y-95710000D01*
X173533500Y-95716000D01*
X173507500Y-95720000D01*
X173481500Y-95723000D01*
X173455500Y-95725000D01*
X173432500Y-95725000D01*
X172332500Y-95725000D01*
X172302500Y-95724000D01*
X172277500Y-95721000D01*
X172251500Y-95718000D01*
X172226500Y-95712000D01*
X172201500Y-95706000D01*
X172176500Y-95698000D01*
X172152500Y-95689000D01*
X172128500Y-95679000D01*
X172105500Y-95667000D01*
X172082500Y-95654000D01*
X172060500Y-95640000D01*
X172039500Y-95625000D01*
X172019500Y-95609000D01*
X171999500Y-95592000D01*
X171981500Y-95574000D01*
X171963500Y-95555000D01*
X171947500Y-95535000D01*
X171931500Y-95514000D01*
X171917500Y-95492000D01*
X171904500Y-95470000D01*
X171892500Y-95447000D01*
X171881500Y-95423000D01*
X171872500Y-95399000D01*
X171864500Y-95375000D01*
X171857500Y-95350000D01*
X171851500Y-95324000D01*
X171847500Y-95299000D01*
X171844500Y-95273000D01*
X171842500Y-95247000D01*
X171842500Y-95225000D01*
X171843500Y-95199000D01*
X171845500Y-95173000D01*
X171848500Y-95147000D01*
X171853500Y-95121000D01*
X171859500Y-95096000D01*
X171866500Y-95070000D01*
X171875500Y-95046000D01*
X171885500Y-95022000D01*
X171896500Y-94998000D01*
X171909500Y-94975000D01*
X171923500Y-94953000D01*
X171937500Y-94931000D01*
X171953500Y-94910000D01*
X171970500Y-94890000D01*
X171988500Y-94871000D01*
X172007500Y-94853000D01*
X172027500Y-94836000D01*
X172048500Y-94820000D01*
X172070500Y-94806000D01*
X172092500Y-94792000D01*
X172115500Y-94779000D01*
X172139500Y-94768000D01*
X172163500Y-94758000D01*
X172187500Y-94749000D01*
X172213500Y-94742000D01*
X172238500Y-94736000D01*
X172264500Y-94731000D01*
X172290500Y-94728000D01*
X172316500Y-94726000D01*
X172342500Y-94725000D01*
X173442500Y-94725000D01*
X173468500Y-94726000D01*
G36*
X173468500Y-94726000D02*
G01*
X173494500Y-94728000D01*
X173520500Y-94731000D01*
X173546500Y-94736000D01*
X173571500Y-94742000D01*
X173597500Y-94749000D01*
X173621500Y-94758000D01*
X173645500Y-94768000D01*
X173669500Y-94779000D01*
X173692500Y-94792000D01*
X173714500Y-94806000D01*
X173736500Y-94820000D01*
X173757500Y-94836000D01*
X173777500Y-94853000D01*
X173796500Y-94871000D01*
X173814500Y-94890000D01*
X173831500Y-94910000D01*
X173847500Y-94931000D01*
X173861500Y-94953000D01*
X173875500Y-94975000D01*
X173888500Y-94998000D01*
X173899500Y-95022000D01*
X173909500Y-95046000D01*
X173918500Y-95070000D01*
X173925500Y-95096000D01*
X173931500Y-95121000D01*
X173936500Y-95147000D01*
X173939500Y-95173000D01*
X173941500Y-95199000D01*
X173942500Y-95225000D01*
X173941500Y-95255000D01*
X173938500Y-95282000D01*
X173934500Y-95308000D01*
X173929500Y-95334000D01*
X173922500Y-95359000D01*
X173915500Y-95384000D01*
X173905500Y-95409000D01*
X173895500Y-95433000D01*
X173883500Y-95457000D01*
X173870500Y-95480000D01*
X173856500Y-95502000D01*
X173840500Y-95524000D01*
X173824500Y-95545000D01*
X173806500Y-95564000D01*
X173788500Y-95583000D01*
X173768500Y-95601000D01*
X173748500Y-95618000D01*
X173727500Y-95634000D01*
X173705500Y-95648000D01*
X173682500Y-95662000D01*
X173658500Y-95674000D01*
X173634500Y-95685000D01*
X173610500Y-95695000D01*
X173585500Y-95703000D01*
X173559500Y-95710000D01*
X173533500Y-95716000D01*
X173507500Y-95720000D01*
X173481500Y-95723000D01*
X173455500Y-95725000D01*
X173432500Y-95725000D01*
X172332500Y-95725000D01*
X172302500Y-95724000D01*
X172277500Y-95721000D01*
X172251500Y-95718000D01*
X172226500Y-95712000D01*
X172201500Y-95706000D01*
X172176500Y-95698000D01*
X172152500Y-95689000D01*
X172128500Y-95679000D01*
X172105500Y-95667000D01*
X172082500Y-95654000D01*
X172060500Y-95640000D01*
X172039500Y-95625000D01*
X172019500Y-95609000D01*
X171999500Y-95592000D01*
X171981500Y-95574000D01*
X171963500Y-95555000D01*
X171947500Y-95535000D01*
X171931500Y-95514000D01*
X171917500Y-95492000D01*
X171904500Y-95470000D01*
X171892500Y-95447000D01*
X171881500Y-95423000D01*
X171872500Y-95399000D01*
X171864500Y-95375000D01*
X171857500Y-95350000D01*
X171851500Y-95324000D01*
X171847500Y-95299000D01*
X171844500Y-95273000D01*
X171842500Y-95247000D01*
X171842500Y-95225000D01*
X171843500Y-95199000D01*
X171845500Y-95173000D01*
X171848500Y-95147000D01*
X171853500Y-95121000D01*
X171859500Y-95096000D01*
X171866500Y-95070000D01*
X171875500Y-95046000D01*
X171885500Y-95022000D01*
X171896500Y-94998000D01*
X171909500Y-94975000D01*
X171923500Y-94953000D01*
X171937500Y-94931000D01*
X171953500Y-94910000D01*
X171970500Y-94890000D01*
X171988500Y-94871000D01*
X172007500Y-94853000D01*
X172027500Y-94836000D01*
X172048500Y-94820000D01*
X172070500Y-94806000D01*
X172092500Y-94792000D01*
X172115500Y-94779000D01*
X172139500Y-94768000D01*
X172163500Y-94758000D01*
X172187500Y-94749000D01*
X172213500Y-94742000D01*
X172238500Y-94736000D01*
X172264500Y-94731000D01*
X172290500Y-94728000D01*
X172316500Y-94726000D01*
X172342500Y-94725000D01*
X173442500Y-94725000D01*
X173468500Y-94726000D01*
G37*
X173468500Y-103376000D02*
X173494500Y-103378000D01*
X173520500Y-103381000D01*
X173546500Y-103386000D01*
X173571500Y-103392000D01*
X173597500Y-103399000D01*
X173621500Y-103408000D01*
X173645500Y-103418000D01*
X173669500Y-103429000D01*
X173692500Y-103442000D01*
X173714500Y-103456000D01*
X173736500Y-103470000D01*
X173757500Y-103486000D01*
X173777500Y-103503000D01*
X173796500Y-103521000D01*
X173814500Y-103540000D01*
X173831500Y-103560000D01*
X173847500Y-103581000D01*
X173861500Y-103603000D01*
X173875500Y-103625000D01*
X173888500Y-103648000D01*
X173899500Y-103672000D01*
X173909500Y-103696000D01*
X173918500Y-103720000D01*
X173925500Y-103746000D01*
X173931500Y-103771000D01*
X173936500Y-103797000D01*
X173939500Y-103823000D01*
X173941500Y-103849000D01*
X173942500Y-103875000D01*
X173941500Y-103901000D01*
X173939500Y-103927000D01*
X173936500Y-103953000D01*
X173931500Y-103979000D01*
X173925500Y-104004000D01*
X173918500Y-104030000D01*
X173909500Y-104054000D01*
X173899500Y-104078000D01*
X173888500Y-104102000D01*
X173875500Y-104125000D01*
X173861500Y-104147000D01*
X173847500Y-104169000D01*
X173831500Y-104190000D01*
X173814500Y-104210000D01*
X173796500Y-104229000D01*
X173777500Y-104247000D01*
X173757500Y-104264000D01*
X173736500Y-104280000D01*
X173714500Y-104294000D01*
X173692500Y-104308000D01*
X173669500Y-104321000D01*
X173645500Y-104332000D01*
X173621500Y-104342000D01*
X173597500Y-104351000D01*
X173571500Y-104358000D01*
X173546500Y-104364000D01*
X173520500Y-104369000D01*
X173494500Y-104372000D01*
X173468500Y-104374000D01*
X173442500Y-104375000D01*
X172342500Y-104375000D01*
X172316500Y-104374000D01*
X172290500Y-104372000D01*
X172264500Y-104369000D01*
X172238500Y-104364000D01*
X172213500Y-104358000D01*
X172187500Y-104351000D01*
X172163500Y-104342000D01*
X172139500Y-104332000D01*
X172115500Y-104321000D01*
X172092500Y-104308000D01*
X172070500Y-104294000D01*
X172048500Y-104280000D01*
X172027500Y-104264000D01*
X172007500Y-104247000D01*
X171988500Y-104229000D01*
X171970500Y-104210000D01*
X171953500Y-104190000D01*
X171937500Y-104169000D01*
X171923500Y-104147000D01*
X171909500Y-104125000D01*
X171896500Y-104102000D01*
X171885500Y-104078000D01*
X171875500Y-104054000D01*
X171866500Y-104030000D01*
X171859500Y-104004000D01*
X171853500Y-103979000D01*
X171848500Y-103953000D01*
X171845500Y-103927000D01*
X171843500Y-103901000D01*
X171842500Y-103875000D01*
X171843500Y-103849000D01*
X171845500Y-103823000D01*
X171848500Y-103797000D01*
X171853500Y-103771000D01*
X171859500Y-103746000D01*
X171866500Y-103720000D01*
X171875500Y-103696000D01*
X171885500Y-103672000D01*
X171896500Y-103648000D01*
X171909500Y-103625000D01*
X171923500Y-103603000D01*
X171937500Y-103581000D01*
X171953500Y-103560000D01*
X171970500Y-103540000D01*
X171988500Y-103521000D01*
X172007500Y-103503000D01*
X172027500Y-103486000D01*
X172048500Y-103470000D01*
X172070500Y-103456000D01*
X172092500Y-103442000D01*
X172115500Y-103429000D01*
X172139500Y-103418000D01*
X172163500Y-103408000D01*
X172187500Y-103399000D01*
X172213500Y-103392000D01*
X172238500Y-103386000D01*
X172264500Y-103381000D01*
X172290500Y-103378000D01*
X172316500Y-103376000D01*
X172342500Y-103375000D01*
X173442500Y-103375000D01*
X173468500Y-103376000D01*
G36*
X173468500Y-103376000D02*
G01*
X173494500Y-103378000D01*
X173520500Y-103381000D01*
X173546500Y-103386000D01*
X173571500Y-103392000D01*
X173597500Y-103399000D01*
X173621500Y-103408000D01*
X173645500Y-103418000D01*
X173669500Y-103429000D01*
X173692500Y-103442000D01*
X173714500Y-103456000D01*
X173736500Y-103470000D01*
X173757500Y-103486000D01*
X173777500Y-103503000D01*
X173796500Y-103521000D01*
X173814500Y-103540000D01*
X173831500Y-103560000D01*
X173847500Y-103581000D01*
X173861500Y-103603000D01*
X173875500Y-103625000D01*
X173888500Y-103648000D01*
X173899500Y-103672000D01*
X173909500Y-103696000D01*
X173918500Y-103720000D01*
X173925500Y-103746000D01*
X173931500Y-103771000D01*
X173936500Y-103797000D01*
X173939500Y-103823000D01*
X173941500Y-103849000D01*
X173942500Y-103875000D01*
X173941500Y-103901000D01*
X173939500Y-103927000D01*
X173936500Y-103953000D01*
X173931500Y-103979000D01*
X173925500Y-104004000D01*
X173918500Y-104030000D01*
X173909500Y-104054000D01*
X173899500Y-104078000D01*
X173888500Y-104102000D01*
X173875500Y-104125000D01*
X173861500Y-104147000D01*
X173847500Y-104169000D01*
X173831500Y-104190000D01*
X173814500Y-104210000D01*
X173796500Y-104229000D01*
X173777500Y-104247000D01*
X173757500Y-104264000D01*
X173736500Y-104280000D01*
X173714500Y-104294000D01*
X173692500Y-104308000D01*
X173669500Y-104321000D01*
X173645500Y-104332000D01*
X173621500Y-104342000D01*
X173597500Y-104351000D01*
X173571500Y-104358000D01*
X173546500Y-104364000D01*
X173520500Y-104369000D01*
X173494500Y-104372000D01*
X173468500Y-104374000D01*
X173442500Y-104375000D01*
X172342500Y-104375000D01*
X172316500Y-104374000D01*
X172290500Y-104372000D01*
X172264500Y-104369000D01*
X172238500Y-104364000D01*
X172213500Y-104358000D01*
X172187500Y-104351000D01*
X172163500Y-104342000D01*
X172139500Y-104332000D01*
X172115500Y-104321000D01*
X172092500Y-104308000D01*
X172070500Y-104294000D01*
X172048500Y-104280000D01*
X172027500Y-104264000D01*
X172007500Y-104247000D01*
X171988500Y-104229000D01*
X171970500Y-104210000D01*
X171953500Y-104190000D01*
X171937500Y-104169000D01*
X171923500Y-104147000D01*
X171909500Y-104125000D01*
X171896500Y-104102000D01*
X171885500Y-104078000D01*
X171875500Y-104054000D01*
X171866500Y-104030000D01*
X171859500Y-104004000D01*
X171853500Y-103979000D01*
X171848500Y-103953000D01*
X171845500Y-103927000D01*
X171843500Y-103901000D01*
X171842500Y-103875000D01*
X171843500Y-103849000D01*
X171845500Y-103823000D01*
X171848500Y-103797000D01*
X171853500Y-103771000D01*
X171859500Y-103746000D01*
X171866500Y-103720000D01*
X171875500Y-103696000D01*
X171885500Y-103672000D01*
X171896500Y-103648000D01*
X171909500Y-103625000D01*
X171923500Y-103603000D01*
X171937500Y-103581000D01*
X171953500Y-103560000D01*
X171970500Y-103540000D01*
X171988500Y-103521000D01*
X172007500Y-103503000D01*
X172027500Y-103486000D01*
X172048500Y-103470000D01*
X172070500Y-103456000D01*
X172092500Y-103442000D01*
X172115500Y-103429000D01*
X172139500Y-103418000D01*
X172163500Y-103408000D01*
X172187500Y-103399000D01*
X172213500Y-103392000D01*
X172238500Y-103386000D01*
X172264500Y-103381000D01*
X172290500Y-103378000D01*
X172316500Y-103376000D01*
X172342500Y-103375000D01*
X173442500Y-103375000D01*
X173468500Y-103376000D01*
G37*
X177488500Y-94726000D02*
X177514500Y-94728000D01*
X177540500Y-94731000D01*
X177566500Y-94736000D01*
X177591500Y-94742000D01*
X177617500Y-94749000D01*
X177641500Y-94758000D01*
X177665500Y-94768000D01*
X177689500Y-94779000D01*
X177712500Y-94792000D01*
X177734500Y-94806000D01*
X177756500Y-94820000D01*
X177777500Y-94836000D01*
X177797500Y-94853000D01*
X177816500Y-94871000D01*
X177834500Y-94890000D01*
X177851500Y-94910000D01*
X177867500Y-94931000D01*
X177881500Y-94953000D01*
X177895500Y-94975000D01*
X177908500Y-94998000D01*
X177919500Y-95022000D01*
X177929500Y-95046000D01*
X177938500Y-95070000D01*
X177945500Y-95096000D01*
X177951500Y-95121000D01*
X177956500Y-95147000D01*
X177959500Y-95173000D01*
X177961500Y-95199000D01*
X177962500Y-95225000D01*
X177961500Y-95251000D01*
X177959500Y-95277000D01*
X177956500Y-95303000D01*
X177951500Y-95329000D01*
X177945500Y-95354000D01*
X177938500Y-95380000D01*
X177929500Y-95404000D01*
X177919500Y-95428000D01*
X177908500Y-95452000D01*
X177895500Y-95475000D01*
X177881500Y-95497000D01*
X177867500Y-95519000D01*
X177851500Y-95540000D01*
X177834500Y-95560000D01*
X177816500Y-95579000D01*
X177797500Y-95597000D01*
X177777500Y-95614000D01*
X177756500Y-95630000D01*
X177734500Y-95644000D01*
X177712500Y-95658000D01*
X177689500Y-95671000D01*
X177665500Y-95682000D01*
X177641500Y-95692000D01*
X177617500Y-95701000D01*
X177591500Y-95708000D01*
X177566500Y-95714000D01*
X177540500Y-95719000D01*
X177514500Y-95722000D01*
X177488500Y-95724000D01*
X177462500Y-95725000D01*
X176662500Y-95725000D01*
X176636500Y-95724000D01*
X176610500Y-95722000D01*
X176584500Y-95719000D01*
X176558500Y-95714000D01*
X176533500Y-95708000D01*
X176507500Y-95701000D01*
X176483500Y-95692000D01*
X176459500Y-95682000D01*
X176435500Y-95671000D01*
X176412500Y-95658000D01*
X176390500Y-95644000D01*
X176368500Y-95630000D01*
X176347500Y-95614000D01*
X176327500Y-95597000D01*
X176308500Y-95579000D01*
X176290500Y-95560000D01*
X176273500Y-95540000D01*
X176257500Y-95519000D01*
X176243500Y-95497000D01*
X176229500Y-95475000D01*
X176216500Y-95452000D01*
X176205500Y-95428000D01*
X176195500Y-95404000D01*
X176186500Y-95380000D01*
X176179500Y-95354000D01*
X176173500Y-95329000D01*
X176168500Y-95303000D01*
X176165500Y-95277000D01*
X176163500Y-95251000D01*
X176162500Y-95225000D01*
X176163500Y-95199000D01*
X176165500Y-95173000D01*
X176168500Y-95147000D01*
X176173500Y-95121000D01*
X176179500Y-95096000D01*
X176186500Y-95070000D01*
X176195500Y-95046000D01*
X176205500Y-95022000D01*
X176216500Y-94998000D01*
X176229500Y-94975000D01*
X176243500Y-94953000D01*
X176257500Y-94931000D01*
X176273500Y-94910000D01*
X176290500Y-94890000D01*
X176308500Y-94871000D01*
X176327500Y-94853000D01*
X176347500Y-94836000D01*
X176368500Y-94820000D01*
X176390500Y-94806000D01*
X176412500Y-94792000D01*
X176435500Y-94779000D01*
X176459500Y-94768000D01*
X176483500Y-94758000D01*
X176507500Y-94749000D01*
X176533500Y-94742000D01*
X176558500Y-94736000D01*
X176584500Y-94731000D01*
X176610500Y-94728000D01*
X176636500Y-94726000D01*
X176662500Y-94725000D01*
X177462500Y-94725000D01*
X177488500Y-94726000D01*
G36*
X177488500Y-94726000D02*
G01*
X177514500Y-94728000D01*
X177540500Y-94731000D01*
X177566500Y-94736000D01*
X177591500Y-94742000D01*
X177617500Y-94749000D01*
X177641500Y-94758000D01*
X177665500Y-94768000D01*
X177689500Y-94779000D01*
X177712500Y-94792000D01*
X177734500Y-94806000D01*
X177756500Y-94820000D01*
X177777500Y-94836000D01*
X177797500Y-94853000D01*
X177816500Y-94871000D01*
X177834500Y-94890000D01*
X177851500Y-94910000D01*
X177867500Y-94931000D01*
X177881500Y-94953000D01*
X177895500Y-94975000D01*
X177908500Y-94998000D01*
X177919500Y-95022000D01*
X177929500Y-95046000D01*
X177938500Y-95070000D01*
X177945500Y-95096000D01*
X177951500Y-95121000D01*
X177956500Y-95147000D01*
X177959500Y-95173000D01*
X177961500Y-95199000D01*
X177962500Y-95225000D01*
X177961500Y-95251000D01*
X177959500Y-95277000D01*
X177956500Y-95303000D01*
X177951500Y-95329000D01*
X177945500Y-95354000D01*
X177938500Y-95380000D01*
X177929500Y-95404000D01*
X177919500Y-95428000D01*
X177908500Y-95452000D01*
X177895500Y-95475000D01*
X177881500Y-95497000D01*
X177867500Y-95519000D01*
X177851500Y-95540000D01*
X177834500Y-95560000D01*
X177816500Y-95579000D01*
X177797500Y-95597000D01*
X177777500Y-95614000D01*
X177756500Y-95630000D01*
X177734500Y-95644000D01*
X177712500Y-95658000D01*
X177689500Y-95671000D01*
X177665500Y-95682000D01*
X177641500Y-95692000D01*
X177617500Y-95701000D01*
X177591500Y-95708000D01*
X177566500Y-95714000D01*
X177540500Y-95719000D01*
X177514500Y-95722000D01*
X177488500Y-95724000D01*
X177462500Y-95725000D01*
X176662500Y-95725000D01*
X176636500Y-95724000D01*
X176610500Y-95722000D01*
X176584500Y-95719000D01*
X176558500Y-95714000D01*
X176533500Y-95708000D01*
X176507500Y-95701000D01*
X176483500Y-95692000D01*
X176459500Y-95682000D01*
X176435500Y-95671000D01*
X176412500Y-95658000D01*
X176390500Y-95644000D01*
X176368500Y-95630000D01*
X176347500Y-95614000D01*
X176327500Y-95597000D01*
X176308500Y-95579000D01*
X176290500Y-95560000D01*
X176273500Y-95540000D01*
X176257500Y-95519000D01*
X176243500Y-95497000D01*
X176229500Y-95475000D01*
X176216500Y-95452000D01*
X176205500Y-95428000D01*
X176195500Y-95404000D01*
X176186500Y-95380000D01*
X176179500Y-95354000D01*
X176173500Y-95329000D01*
X176168500Y-95303000D01*
X176165500Y-95277000D01*
X176163500Y-95251000D01*
X176162500Y-95225000D01*
X176163500Y-95199000D01*
X176165500Y-95173000D01*
X176168500Y-95147000D01*
X176173500Y-95121000D01*
X176179500Y-95096000D01*
X176186500Y-95070000D01*
X176195500Y-95046000D01*
X176205500Y-95022000D01*
X176216500Y-94998000D01*
X176229500Y-94975000D01*
X176243500Y-94953000D01*
X176257500Y-94931000D01*
X176273500Y-94910000D01*
X176290500Y-94890000D01*
X176308500Y-94871000D01*
X176327500Y-94853000D01*
X176347500Y-94836000D01*
X176368500Y-94820000D01*
X176390500Y-94806000D01*
X176412500Y-94792000D01*
X176435500Y-94779000D01*
X176459500Y-94768000D01*
X176483500Y-94758000D01*
X176507500Y-94749000D01*
X176533500Y-94742000D01*
X176558500Y-94736000D01*
X176584500Y-94731000D01*
X176610500Y-94728000D01*
X176636500Y-94726000D01*
X176662500Y-94725000D01*
X177462500Y-94725000D01*
X177488500Y-94726000D01*
G37*
X177488500Y-103376000D02*
X177514500Y-103378000D01*
X177540500Y-103381000D01*
X177566500Y-103386000D01*
X177591500Y-103392000D01*
X177617500Y-103399000D01*
X177641500Y-103408000D01*
X177665500Y-103418000D01*
X177689500Y-103429000D01*
X177712500Y-103442000D01*
X177734500Y-103456000D01*
X177756500Y-103470000D01*
X177777500Y-103486000D01*
X177797500Y-103503000D01*
X177816500Y-103521000D01*
X177834500Y-103540000D01*
X177851500Y-103560000D01*
X177867500Y-103581000D01*
X177881500Y-103603000D01*
X177895500Y-103625000D01*
X177908500Y-103648000D01*
X177919500Y-103672000D01*
X177929500Y-103696000D01*
X177938500Y-103720000D01*
X177945500Y-103746000D01*
X177951500Y-103771000D01*
X177956500Y-103797000D01*
X177959500Y-103823000D01*
X177961500Y-103849000D01*
X177962500Y-103875000D01*
X177961500Y-103901000D01*
X177959500Y-103927000D01*
X177956500Y-103953000D01*
X177951500Y-103979000D01*
X177945500Y-104004000D01*
X177938500Y-104030000D01*
X177929500Y-104054000D01*
X177919500Y-104078000D01*
X177908500Y-104102000D01*
X177895500Y-104125000D01*
X177881500Y-104147000D01*
X177867500Y-104169000D01*
X177851500Y-104190000D01*
X177834500Y-104210000D01*
X177816500Y-104229000D01*
X177797500Y-104247000D01*
X177777500Y-104264000D01*
X177756500Y-104280000D01*
X177734500Y-104294000D01*
X177712500Y-104308000D01*
X177689500Y-104321000D01*
X177665500Y-104332000D01*
X177641500Y-104342000D01*
X177617500Y-104351000D01*
X177591500Y-104358000D01*
X177566500Y-104364000D01*
X177540500Y-104369000D01*
X177514500Y-104372000D01*
X177488500Y-104374000D01*
X177462500Y-104375000D01*
X176662500Y-104375000D01*
X176636500Y-104374000D01*
X176610500Y-104372000D01*
X176584500Y-104369000D01*
X176558500Y-104364000D01*
X176533500Y-104358000D01*
X176507500Y-104351000D01*
X176483500Y-104342000D01*
X176459500Y-104332000D01*
X176435500Y-104321000D01*
X176412500Y-104308000D01*
X176390500Y-104294000D01*
X176368500Y-104280000D01*
X176347500Y-104264000D01*
X176327500Y-104247000D01*
X176308500Y-104229000D01*
X176290500Y-104210000D01*
X176273500Y-104190000D01*
X176257500Y-104169000D01*
X176243500Y-104147000D01*
X176229500Y-104125000D01*
X176216500Y-104102000D01*
X176205500Y-104078000D01*
X176195500Y-104054000D01*
X176186500Y-104030000D01*
X176179500Y-104004000D01*
X176173500Y-103979000D01*
X176168500Y-103953000D01*
X176165500Y-103927000D01*
X176163500Y-103901000D01*
X176162500Y-103875000D01*
X176163500Y-103849000D01*
X176165500Y-103823000D01*
X176168500Y-103797000D01*
X176173500Y-103771000D01*
X176179500Y-103746000D01*
X176186500Y-103720000D01*
X176195500Y-103696000D01*
X176205500Y-103672000D01*
X176216500Y-103648000D01*
X176229500Y-103625000D01*
X176243500Y-103603000D01*
X176257500Y-103581000D01*
X176273500Y-103560000D01*
X176290500Y-103540000D01*
X176308500Y-103521000D01*
X176327500Y-103503000D01*
X176347500Y-103486000D01*
X176368500Y-103470000D01*
X176390500Y-103456000D01*
X176412500Y-103442000D01*
X176435500Y-103429000D01*
X176459500Y-103418000D01*
X176483500Y-103408000D01*
X176507500Y-103399000D01*
X176533500Y-103392000D01*
X176558500Y-103386000D01*
X176584500Y-103381000D01*
X176610500Y-103378000D01*
X176636500Y-103376000D01*
X176662500Y-103375000D01*
X177462500Y-103375000D01*
X177488500Y-103376000D01*
G36*
X177488500Y-103376000D02*
G01*
X177514500Y-103378000D01*
X177540500Y-103381000D01*
X177566500Y-103386000D01*
X177591500Y-103392000D01*
X177617500Y-103399000D01*
X177641500Y-103408000D01*
X177665500Y-103418000D01*
X177689500Y-103429000D01*
X177712500Y-103442000D01*
X177734500Y-103456000D01*
X177756500Y-103470000D01*
X177777500Y-103486000D01*
X177797500Y-103503000D01*
X177816500Y-103521000D01*
X177834500Y-103540000D01*
X177851500Y-103560000D01*
X177867500Y-103581000D01*
X177881500Y-103603000D01*
X177895500Y-103625000D01*
X177908500Y-103648000D01*
X177919500Y-103672000D01*
X177929500Y-103696000D01*
X177938500Y-103720000D01*
X177945500Y-103746000D01*
X177951500Y-103771000D01*
X177956500Y-103797000D01*
X177959500Y-103823000D01*
X177961500Y-103849000D01*
X177962500Y-103875000D01*
X177961500Y-103901000D01*
X177959500Y-103927000D01*
X177956500Y-103953000D01*
X177951500Y-103979000D01*
X177945500Y-104004000D01*
X177938500Y-104030000D01*
X177929500Y-104054000D01*
X177919500Y-104078000D01*
X177908500Y-104102000D01*
X177895500Y-104125000D01*
X177881500Y-104147000D01*
X177867500Y-104169000D01*
X177851500Y-104190000D01*
X177834500Y-104210000D01*
X177816500Y-104229000D01*
X177797500Y-104247000D01*
X177777500Y-104264000D01*
X177756500Y-104280000D01*
X177734500Y-104294000D01*
X177712500Y-104308000D01*
X177689500Y-104321000D01*
X177665500Y-104332000D01*
X177641500Y-104342000D01*
X177617500Y-104351000D01*
X177591500Y-104358000D01*
X177566500Y-104364000D01*
X177540500Y-104369000D01*
X177514500Y-104372000D01*
X177488500Y-104374000D01*
X177462500Y-104375000D01*
X176662500Y-104375000D01*
X176636500Y-104374000D01*
X176610500Y-104372000D01*
X176584500Y-104369000D01*
X176558500Y-104364000D01*
X176533500Y-104358000D01*
X176507500Y-104351000D01*
X176483500Y-104342000D01*
X176459500Y-104332000D01*
X176435500Y-104321000D01*
X176412500Y-104308000D01*
X176390500Y-104294000D01*
X176368500Y-104280000D01*
X176347500Y-104264000D01*
X176327500Y-104247000D01*
X176308500Y-104229000D01*
X176290500Y-104210000D01*
X176273500Y-104190000D01*
X176257500Y-104169000D01*
X176243500Y-104147000D01*
X176229500Y-104125000D01*
X176216500Y-104102000D01*
X176205500Y-104078000D01*
X176195500Y-104054000D01*
X176186500Y-104030000D01*
X176179500Y-104004000D01*
X176173500Y-103979000D01*
X176168500Y-103953000D01*
X176165500Y-103927000D01*
X176163500Y-103901000D01*
X176162500Y-103875000D01*
X176163500Y-103849000D01*
X176165500Y-103823000D01*
X176168500Y-103797000D01*
X176173500Y-103771000D01*
X176179500Y-103746000D01*
X176186500Y-103720000D01*
X176195500Y-103696000D01*
X176205500Y-103672000D01*
X176216500Y-103648000D01*
X176229500Y-103625000D01*
X176243500Y-103603000D01*
X176257500Y-103581000D01*
X176273500Y-103560000D01*
X176290500Y-103540000D01*
X176308500Y-103521000D01*
X176327500Y-103503000D01*
X176347500Y-103486000D01*
X176368500Y-103470000D01*
X176390500Y-103456000D01*
X176412500Y-103442000D01*
X176435500Y-103429000D01*
X176459500Y-103418000D01*
X176483500Y-103408000D01*
X176507500Y-103399000D01*
X176533500Y-103392000D01*
X176558500Y-103386000D01*
X176584500Y-103381000D01*
X176610500Y-103378000D01*
X176636500Y-103376000D01*
X176662500Y-103375000D01*
X177462500Y-103375000D01*
X177488500Y-103376000D01*
G37*
D16*
X165214000Y-121250000D03*
D17*
X141000000Y-93508540D03*
X141000000Y-92548540D03*
D18*
X135477740Y-84998800D03*
D19*
X129852500Y-92359500D03*
X128892500Y-92359500D03*
D20*
X140900000Y-96460000D03*
X140900000Y-95440000D03*
D21*
X171245000Y-115292000D03*
D22*
X169770000Y-113792000D03*
D21*
X171245000Y-112292000D03*
D22*
X172720000Y-113792000D03*
D16*
X161058000Y-121250000D03*
D23*
X137287500Y-79450000D03*
X137287500Y-80100000D03*
X137287500Y-80750000D03*
X137287500Y-81400000D03*
X135687500Y-81400000D03*
X135687500Y-80750000D03*
X135687500Y-80100000D03*
X135687500Y-79450000D03*
D24*
X169950000Y-83287500D03*
X169950000Y-81712500D03*
D25*
X126832500Y-86672500D03*
X126832500Y-87632500D03*
X155378000Y-88668540D03*
X155378000Y-89628540D03*
D26*
X173382500Y-102440000D03*
X173382500Y-96660000D03*
D27*
X137910800Y-90707340D03*
X137910800Y-92907340D03*
X139610800Y-92907340D03*
X139610800Y-90707340D03*
D18*
X135477740Y-113998800D03*
D28*
X129400500Y-85628500D03*
X130360500Y-85628500D03*
X133557500Y-79425000D03*
X134517500Y-79425000D03*
D29*
X170800000Y-96240000D03*
X170800000Y-97260000D03*
D30*
X167227500Y-88850000D03*
X165957500Y-88850000D03*
X164687500Y-88850000D03*
X163417500Y-88850000D03*
X163417500Y-96050000D03*
X164687500Y-96050000D03*
X165957500Y-96050000D03*
X167227500Y-96050000D03*
D20*
X164200000Y-101010000D03*
X164200000Y-99990000D03*
D28*
X147617000Y-87189740D03*
X148577000Y-87189740D03*
D31*
X146500000Y-120950000D03*
X147500000Y-120950000D03*
X148500000Y-120950000D03*
X149500000Y-120950000D03*
X150500000Y-120950000D03*
X151500000Y-120950000D03*
X152500000Y-120950000D03*
X153500000Y-120950000D03*
D32*
X143700000Y-123650000D03*
X156300000Y-123650000D03*
D20*
X170534760Y-101011200D03*
X170534760Y-99991200D03*
D29*
X147000000Y-82390000D03*
X147000000Y-83410000D03*
D28*
X138820000Y-101650000D03*
X139780000Y-101650000D03*
D24*
X137550000Y-103187500D03*
X137550000Y-101612500D03*
D33*
X130450000Y-110250000D03*
X130450000Y-108350000D03*
D29*
X169950000Y-84527500D03*
X169950000Y-85547500D03*
D34*
X128862500Y-93629500D03*
X129882500Y-93629500D03*
D35*
X151550000Y-108950000D03*
D36*
X143550000Y-102650000D03*
X143550000Y-104150000D03*
X143550000Y-105650000D03*
X143550000Y-107150000D03*
X143550000Y-108650000D03*
X143550000Y-110150000D03*
X143550000Y-111650000D03*
X143550000Y-113150000D03*
X143550000Y-114650000D03*
X143550000Y-116150000D03*
X159550000Y-116150000D03*
X159550000Y-114650000D03*
X159550000Y-113150000D03*
X159550000Y-111650000D03*
X159550000Y-110150000D03*
X159550000Y-108650000D03*
X159550000Y-107150000D03*
X159550000Y-105650000D03*
X159550000Y-104150000D03*
X159550000Y-102650000D03*
D37*
X160300000Y-76875000D03*
X161300000Y-76875001D03*
X162300000Y-76875000D03*
X163300000Y-76875001D03*
D38*
X158999999Y-74349999D03*
X164600000Y-74349999D03*
D18*
X164477740Y-113998800D03*
D19*
X167187500Y-97700000D03*
X166227500Y-97700000D03*
D29*
X148050000Y-82400000D03*
X148050000Y-83420000D03*
D39*
X147162500Y-89299740D03*
X147162500Y-89799740D03*
X147162500Y-90299740D03*
X147162500Y-90799740D03*
X147162500Y-91299740D03*
X147162500Y-91799740D03*
X147162500Y-92299740D03*
X147162500Y-92799740D03*
X147162500Y-93299740D03*
X147162500Y-93799740D03*
X147162500Y-94299740D03*
X147162500Y-94799740D03*
D40*
X147850000Y-95487240D03*
X148350000Y-95487240D03*
X148850000Y-95487240D03*
X149350000Y-95487240D03*
X149850000Y-95487240D03*
X150350000Y-95487240D03*
X150850000Y-95487240D03*
X151350000Y-95487240D03*
X151850000Y-95487240D03*
X152350000Y-95487240D03*
X152850000Y-95487240D03*
X153350000Y-95487240D03*
D39*
X154037500Y-94799740D03*
X154037500Y-94299740D03*
X154037500Y-93799740D03*
X154037500Y-93299740D03*
X154037500Y-92799740D03*
X154037500Y-92299740D03*
X154037500Y-91799740D03*
X154037500Y-91299740D03*
X154037500Y-90799740D03*
X154037500Y-90299740D03*
X154037500Y-89799740D03*
X154037500Y-89299740D03*
D40*
X153350000Y-88612240D03*
X152850000Y-88612240D03*
X152350000Y-88612240D03*
X151850000Y-88612240D03*
X151350000Y-88612240D03*
X150850000Y-88612240D03*
X150350000Y-88612240D03*
X149850000Y-88612240D03*
X149350000Y-88612240D03*
X148850000Y-88612240D03*
X148350000Y-88612240D03*
X147850000Y-88612240D03*
D41*
X150600000Y-92049740D03*
D42*
X128884500Y-83723500D03*
X131384500Y-83723500D03*
D29*
X146650000Y-99540000D03*
X146650000Y-100560000D03*
D43*
X133450000Y-105300000D03*
X133450000Y-107600000D03*
D44*
X139750000Y-107600000D03*
D43*
X133450000Y-109900000D03*
D33*
X130450000Y-106400000D03*
X130450000Y-104500000D03*
D17*
X144910000Y-89307740D03*
X144910000Y-88347740D03*
D34*
X127790000Y-111729500D03*
X128810000Y-111729500D03*
D29*
X168168000Y-84527500D03*
X168168000Y-85547500D03*
D28*
X131432500Y-85628500D03*
X132392500Y-85628500D03*
D19*
X144760000Y-93011000D03*
X143800000Y-93011000D03*
D45*
X147225000Y-85900000D03*
X148775000Y-85900000D03*
D20*
X141650000Y-110760000D03*
X141650000Y-109740000D03*
D29*
X141750000Y-102640000D03*
X141750000Y-103660000D03*
D31*
X153500000Y-78060000D03*
X152500000Y-78060000D03*
X151500000Y-78060000D03*
X150500000Y-78060000D03*
X149500000Y-78060000D03*
X148500000Y-78060000D03*
X147500000Y-78060000D03*
X146500000Y-78060000D03*
D32*
X156300000Y-75360000D03*
X143700000Y-75360000D03*
D18*
X164427740Y-85048800D03*
D25*
X155278000Y-95518800D03*
X155278000Y-96478800D03*
D46*
X123827740Y-103688800D03*
D47*
X123827740Y-101148800D03*
X123827740Y-98608800D03*
X123827740Y-96068800D03*
D20*
X165350000Y-101010000D03*
X165350000Y-99990000D03*
D17*
X141554800Y-91271340D03*
X141554800Y-90311340D03*
D28*
X133657500Y-81375000D03*
X134617500Y-81375000D03*
D17*
X144788000Y-95015000D03*
X144788000Y-94055000D03*
D24*
X128150000Y-110229500D03*
X128150000Y-108654500D03*
D29*
X147650000Y-99540000D03*
X147650000Y-100560000D03*
D48*
X128412500Y-87787500D03*
D49*
X128275000Y-88700000D03*
X128275000Y-89200000D03*
X128275000Y-89700000D03*
X128275000Y-90200000D03*
D48*
X128412500Y-91112500D03*
X128912500Y-91112500D03*
X129412500Y-91112500D03*
X129912500Y-91112500D03*
X130412500Y-91112500D03*
X130912500Y-91112500D03*
X131412500Y-91112500D03*
X131912500Y-91112500D03*
X132412500Y-91112500D03*
X132912500Y-91112500D03*
D49*
X133050000Y-90200000D03*
X133050000Y-89700000D03*
X133050000Y-89200000D03*
X133050000Y-88700000D03*
D48*
X132912500Y-87787500D03*
X132412500Y-87787500D03*
X131912500Y-87787500D03*
X131412500Y-87787500D03*
X130912500Y-87787500D03*
X130412500Y-87787500D03*
X129912500Y-87787500D03*
X129412500Y-87787500D03*
X128912500Y-87787500D03*
D17*
X156350000Y-96480000D03*
X156350000Y-95520000D03*
D24*
X168168000Y-83287500D03*
X168168000Y-81712500D03*
X141400000Y-113537500D03*
X141400000Y-111962500D03*
D19*
X141730000Y-101650000D03*
X140770000Y-101650000D03*
D17*
X143645000Y-95015000D03*
X143645000Y-94055000D03*
D20*
X168757500Y-89260000D03*
X168757500Y-88240000D03*
D17*
X145910000Y-89307740D03*
X145910000Y-88347740D03*
D37*
X136700000Y-76825000D03*
X137700000Y-76825000D03*
X138700000Y-76825000D03*
X139700000Y-76825000D03*
D38*
X135400000Y-74300000D03*
X141000000Y-74300000D03*
D50*
X142384500Y-97496540D03*
X143959500Y-97496540D03*
%LPD*%
M02*
