M48
; DRILL file {KiCad 8.0.4} date 2025-10-09T01:11:46-0700
; FORMAT={-:-/ absolute / metric / decimal}
; #@! TF.CreationDate,2025-10-09T01:11:46-07:00
; #@! TF.GenerationSoftware,Kicad,Pcbnew,8.0.4
; #@! TF.FileFunction,Plated,1,2,PTH
FMAT,2
METRIC
; #@! TA.AperFunction,Plated,PTH,ViaDrill
T1C0.400
; #@! TA.AperFunction,Plated,PTH,ComponentDrill
T2C0.600
; #@! TA.AperFunction,Plated,PTH,ComponentDrill
T3C1.000
; #@! TA.AperFunction,Plated,PTH,ComponentDrill
T4C1.200
%
G90
G05
T1
X123.139Y-106.172
X123.139Y-107.29
X123.139Y-108.407
X123.139Y-109.525
X123.139Y-110.642
X123.139Y-111.76
X124.257Y-106.172
X124.257Y-107.29
X124.257Y-108.407
X124.257Y-109.525
X124.257Y-110.642
X124.257Y-111.76
X124.257Y-112.878
X124.257Y-113.995
X125.2Y-86.8
X125.2Y-87.8
X125.2Y-90.4
X125.2Y-91.4
X125.2Y-92.4
X125.2Y-93.4
X125.374Y-107.29
X125.374Y-108.407
X125.374Y-109.525
X125.374Y-110.642
X125.374Y-111.76
X125.374Y-112.878
X125.374Y-106.172
X125.374Y-113.995
X126.413Y-116.919
X127.203Y-116.129
X127.203Y-117.709
X127.25Y-91.4
X127.864Y-101.956
X127.864Y-103.073
X127.993Y-115.339
X127.993Y-116.919
X127.993Y-118.5
X128.6Y-79.2
X128.6Y-80.2
X128.784Y-116.129
X128.784Y-117.709
X128.784Y-119.29
X128.9Y-94.65
X128.981Y-101.956
X128.981Y-103.073
X129.574Y-116.919
X129.574Y-118.5
X129.574Y-120.08
X129.6Y-78.2
X129.6Y-79.2
X129.6Y-80.2
X130.099Y-99.72
X130.099Y-100.838
X130.099Y-101.956
X130.099Y-103.073
X130.3Y-112.25
X130.318Y-113.335
X130.353Y-120.859
X130.364Y-117.709
X130.364Y-119.29
X130.6Y-78.2
X130.6Y-79.2
X130.6Y-80.2
X130.912Y-92.35
X131.143Y-120.069
X131.143Y-121.649
X131.155Y-118.5
X131.182Y-103.1
X131.216Y-99.72
X131.216Y-100.838
X131.216Y-101.956
X131.35Y-82.05
X131.382Y-114.4
X131.4Y-112.215
X131.418Y-113.3
X131.6Y-77.2
X131.6Y-78.2
X131.6Y-79.2
X131.6Y-80.2
X131.933Y-119.278
X131.933Y-120.859
X131.933Y-122.439
X132.3Y-103.1
X132.334Y-99.72
X132.334Y-100.838
X132.334Y-101.956
X132.465Y-112.168
X132.5Y-113.265
X132.5Y-114.382
X132.5Y-115.5
X132.6Y-76.2
X132.6Y-77.2
X132.6Y-78.2
X132.6Y-83.2
X132.6Y-84.2
X132.724Y-120.069
X132.724Y-121.649
X132.724Y-123.23
X132.762Y-80.4
X133.45Y-103.168
X133.452Y-99.72
X133.452Y-100.838
X133.452Y-101.956
X133.514Y-120.859
X133.514Y-122.439
X133.6Y-75.2
X133.6Y-76.2
X133.6Y-77.2
X133.6Y-78.2
X133.8Y-98.05
X134.2Y-89.425
X134.282Y-93.618
X134.304Y-121.649
X134.517Y-80.35
X135.23Y-96.063
X135.23Y-97.18
X135.4Y-92.5
X135.4Y-93.618
X135.5Y-108.7
X136.116Y-118.037
X136.347Y-96.063
X136.347Y-97.18
X136.347Y-98.298
X136.5Y-108.7
X136.518Y-91.382
X136.518Y-92.5
X136.518Y-93.618
X136.855Y-123.292
X136.855Y-124.409
X136.855Y-125.527
X136.906Y-117.246
X136.906Y-118.827
X137.1Y-73.8
X137.1Y-74.8
X137.465Y-96.063
X137.465Y-97.18
X137.465Y-98.298
X137.5Y-108.7
X137.696Y-116.456
X137.696Y-118.037
X137.696Y-119.617
X137.75Y-109.65
X137.973Y-123.292
X137.973Y-124.409
X137.973Y-125.527
X138.1Y-73.8
X138.1Y-74.8
X138.4Y-84.6
X138.45Y-79.95
X138.487Y-117.246
X138.487Y-118.827
X138.487Y-120.407
X138.582Y-96.063
X138.582Y-97.18
X138.585Y-78.431
X138.7Y-100.45
X139.0Y-102.9
X139.0Y-103.9
X139.09Y-124.409
X139.09Y-123.292
X139.09Y-125.527
X139.1Y-73.8
X139.1Y-74.8
X139.2Y-110.6
X139.277Y-118.037
X139.277Y-119.617
X139.35Y-80.7
X139.65Y-111.65
X139.65Y-112.65
X139.65Y-113.65
X139.7Y-99.5
X139.7Y-100.45
X139.787Y-78.363
X139.8Y-88.6
X139.85Y-104.7
X140.0Y-114.6
X140.067Y-118.827
X140.067Y-120.407
X140.2Y-110.6
X140.208Y-123.292
X140.208Y-124.409
X140.208Y-125.527
X140.75Y-76.35
X140.75Y-77.35
X140.75Y-103.1
X140.8Y-87.6
X140.8Y-88.6
X140.85Y-104.7
X140.857Y-119.617
X141.05Y-79.975
X141.05Y-81.45
X141.143Y-116.093
X141.326Y-123.292
X141.326Y-124.409
X141.326Y-125.527
X141.75Y-76.35
X141.75Y-77.35
X141.8Y-87.6
X141.8Y-88.6
X141.85Y-116.8
X141.95Y-92.25
X142.763Y-100.563
X142.8Y-87.6
X142.8Y-88.6
X142.9Y-99.3
X143.15Y-81.6
X143.678Y-89.549
X143.678Y-96.049
X143.8Y-87.6
X144.4Y-84.1
X144.65Y-79.6
X144.9Y-99.2
X145.2Y-85.6
X145.4Y-78.6
X145.55Y-83.15
X145.65Y-79.6
X145.925Y-98.4
X145.977Y-124.45
X146.0Y-123.35
X146.8Y-79.65
X146.9Y-96.85
X147.094Y-124.45
X147.097Y-123.4
X147.65Y-98.45
X148.05Y-122.4
X148.212Y-124.45
X148.336Y-89.814
X148.336Y-90.932
X148.336Y-92.05
X148.336Y-93.167
X148.336Y-94.285
X149.163Y-83.187
X149.33Y-124.45
X149.454Y-89.814
X149.454Y-90.932
X149.454Y-92.05
X149.454Y-93.167
X149.454Y-94.285
X149.5Y-122.45
X150.447Y-124.45
X150.571Y-89.814
X150.571Y-90.932
X150.571Y-92.05
X150.571Y-93.167
X150.571Y-94.285
X150.625Y-87.254
X151.2Y-85.7
X151.55Y-97.25
X151.55Y-100.7
X151.565Y-124.45
X151.689Y-89.814
X151.689Y-90.932
X151.689Y-92.05
X151.689Y-93.167
X151.7Y-94.3
X151.8Y-122.3
X152.075Y-87.4
X152.1Y-83.8
X152.25Y-86.3
X152.575Y-79.525
X152.682Y-124.45
X152.75Y-119.15
X152.806Y-89.814
X152.806Y-90.932
X152.806Y-92.05
X152.806Y-93.167
X152.806Y-94.285
X153.278Y-85.149
X153.4Y-122.65
X153.6Y-80.5
X153.618Y-100.7
X153.8Y-124.45
X154.746Y-100.715
X154.8Y-81.35
X155.288Y-85.112
X155.312Y-94.312
X155.378Y-87.6
X155.853Y-100.7
X156.85Y-85.05
X157.0Y-87.5
X157.15Y-89.8
X157.15Y-90.95
X157.3Y-121.55
X157.55Y-95.4
X157.55Y-96.4
X157.7Y-83.25
X157.886Y-118.212
X158.35Y-121.05
X158.35Y-122.168
X158.35Y-123.285
X158.35Y-124.403
X158.35Y-125.52
X158.55Y-95.4
X158.55Y-96.4
X159.175Y-86.0
X159.6Y-95.4
X159.625Y-87.9
X159.65Y-96.8
X159.8Y-89.2
X160.68Y-118.821
X160.75Y-75.3
X161.4Y-111.311
X161.485Y-102.194
X161.485Y-114.194
X161.5Y-103.3
X161.5Y-115.3
X161.544Y-116.332
X161.55Y-85.85
X161.798Y-118.974
X161.95Y-75.2
X162.05Y-78.775
X162.1Y-88.2
X162.1Y-89.2
X162.1Y-93.5
X162.1Y-94.5
X162.56Y-116.84
X162.865Y-119.024
X163.05Y-101.0
X163.1Y-93.5
X163.1Y-94.5
X163.25Y-73.4
X163.25Y-74.4
X163.25Y-75.4
X163.576Y-116.84
X163.6Y-90.8
X163.732Y-111.018
X163.932Y-118.974
X164.592Y-116.877
X164.6Y-91.8
X164.65Y-90.8
X164.85Y-111.018
X164.998Y-119.024
X165.23Y-104.418
X165.325Y-98.225
X165.608Y-116.84
X165.925Y-82.375
X165.968Y-111.018
X166.116Y-119.024
X166.3Y-75.7
X166.3Y-76.7
X166.3Y-77.7
X166.347Y-103.3
X166.347Y-104.418
X166.4Y-100.5
X166.624Y-116.84
X167.234Y-119.024
X167.3Y-75.7
X167.3Y-76.7
X167.3Y-77.7
X167.465Y-103.3
X167.465Y-104.418
X167.64Y-116.84
X167.898Y-111.76
X167.898Y-112.776
X167.898Y-113.792
X167.898Y-114.808
X167.898Y-115.824
X168.3Y-76.7
X168.3Y-77.7
X168.351Y-119.024
X168.351Y-120.142
X168.351Y-121.26
X168.406Y-110.744
X168.582Y-103.3
X168.582Y-104.418
X168.656Y-116.84
X168.925Y-98.075
X168.992Y-97.008
X169.3Y-77.7
X169.4Y-100.9
X169.422Y-110.49
X169.469Y-118.974
X169.469Y-120.142
X169.469Y-121.26
X169.7Y-103.3
X169.7Y-104.418
X170.434Y-89.103
X170.434Y-90.221
X170.434Y-91.338
X170.434Y-92.456
X170.434Y-93.574
X170.45Y-110.5
X170.637Y-118.77
X170.83Y-104.413
X170.865Y-103.3
X171.45Y-109.484
X171.454Y-110.49
X171.552Y-82.398
X171.552Y-83.515
X171.552Y-84.633
X171.552Y-85.75
X171.552Y-86.868
X171.552Y-87.986
X171.552Y-89.103
X171.552Y-90.221
X171.552Y-91.338
X171.552Y-92.456
X171.552Y-93.574
X171.75Y-118.4
X172.47Y-109.49
X172.47Y-110.49
X172.65Y-117.8
X172.669Y-82.398
X172.669Y-83.515
X172.669Y-84.633
X172.669Y-85.75
X172.669Y-86.868
X172.669Y-87.986
X172.669Y-89.103
X172.669Y-90.221
X172.669Y-91.338
X172.669Y-92.456
X172.669Y-93.574
X172.7Y-116.8
X173.486Y-109.49
X173.486Y-110.49
X173.9Y-116.65
X174.448Y-113.57
X174.448Y-115.604
X174.45Y-111.55
X174.45Y-112.566
X174.45Y-114.6
X174.6Y-109.5
X174.6Y-110.5
X175.514Y-84.633
X175.514Y-85.75
X175.514Y-86.868
X175.514Y-87.986
X175.514Y-89.103
X175.514Y-90.221
X175.514Y-91.338
X175.514Y-92.456
X175.514Y-93.574
X175.514Y-96.774
X175.514Y-97.892
X175.514Y-99.009
X175.514Y-100.127
X175.514Y-101.244
X175.514Y-102.362
X175.718Y-109.5
X175.718Y-110.5
X176.632Y-86.868
X176.632Y-87.986
X176.632Y-89.103
X176.632Y-90.221
X176.632Y-91.338
X176.632Y-92.456
X176.632Y-93.574
X176.632Y-96.774
X176.632Y-97.892
X176.632Y-99.009
X176.632Y-100.127
X176.632Y-101.244
X176.632Y-102.362
X176.818Y-109.5
X176.818Y-110.5
X177.749Y-90.221
X177.749Y-91.338
X177.749Y-92.456
X177.749Y-93.574
X177.749Y-96.774
X177.749Y-97.892
X177.749Y-99.009
X177.749Y-100.127
X177.749Y-101.244
X177.749Y-102.362
T2
X172.892Y-95.225
X172.892Y-103.875
X177.062Y-95.225
X177.062Y-103.875
T3
X123.828Y-96.069
X123.828Y-98.609
X123.828Y-101.149
X123.828Y-103.689
T4
X161.058Y-121.25
X165.214Y-121.25
M30
